SplineFontDB: 3.0
FontName: Acme-Regular
FullName: Acme
FamilyName: Acme
Weight: Book
Copyright: Copyright (c) 2011 by Juan Pablo del Peral (huertatipografica.com.ar), , with Reserved Font Name "Acme"
Version: 1.001
ItalicAngle: 0
UnderlinePosition: -90
UnderlineWidth: 33
Ascent: 800
Descent: 200
sfntRevision: 0x00010042
LayerCount: 2
Layer: 0 1 "Back"  1
Layer: 1 1 "Fore"  0
XUID: [1021 563 106641686 15968287]
FSType: 0
OS2Version: 2
OS2_WeightWidthSlopeOnly: 0
OS2_UseTypoMetrics: 1
CreationTime: 1324165710
ModificationTime: 1324194834
PfmFamily: 17
TTFWeight: 400
TTFWidth: 5
LineGap: 0
VLineGap: 0
Panose: 2 0 7 6 5 0 0 2 0 4
OS2TypoAscent: 159
OS2TypoAOffset: 1
OS2TypoDescent: -107
OS2TypoDOffset: 1
OS2TypoLinegap: 0
OS2WinAscent: 0
OS2WinAOffset: 1
OS2WinDescent: 0
OS2WinDOffset: 1
HheadAscent: 0
HheadAOffset: 1
HheadDescent: 0
HheadDOffset: 1
OS2SubXSize: 700
OS2SubYSize: 650
OS2SubXOff: 0
OS2SubYOff: 140
OS2SupXSize: 700
OS2SupYSize: 650
OS2SupXOff: 0
OS2SupYOff: 477
OS2StrikeYSize: 30
OS2StrikeYPos: 250
OS2FamilyClass: 2050
OS2Vendor: 'pyrs'
OS2CodePages: 00000001.00000000
OS2UnicodeRanges: 800000a7.00000000.00000000.00000000
DEI: 91125
TtTable: prep
PUSHW_1
 511
SCANCTRL
PUSHB_1
 4
SCANTYPE
EndTTInstrs
ShortTable: maxp 16
  1
  0
  231
  62
  5
  0
  0
  2
  0
  1
  1
  0
  64
  0
  0
  0
EndShort
LangName: 1033 "" "" "" "JuanPablodelPeral: Acme: 2011" "" "Version 1.001" "" "Acme is a trademark of Juan Pablo del Peral" "Juan Pablo del Peral" "Juan Pablo del Peral" "" "huertatipografica.com.ar" "huertatipografica.com.ar" "This Font Software is licensed under the SIL Open Font License, Version 1.1. This license is available with a FAQ at: http://scripts.sil.org/OFL" "http://scripts.sil.org/OFL" 
GaspTable: 1 65535 15 1
Encoding: UnicodeBmp
UnicodeInterp: none
NameList: Adobe Glyph List
DisplaySize: -24
AntiAlias: 1
FitToEm: 1
BeginChars: 65540 231

StartChar: exclam
Encoding: 33 33 4
Width: 247
GlyphClass: 2
Flags: W
LayerCount: 2
Fore
SplineSet
64 123.5 m 128,-1,1
 88 148 88 148 120 148 c 128,-1,2
 152 148 152 148 168.5 130.5 c 128,-1,3
 185 113 185 113 185 79 c 128,-1,4
 185 45 185 45 162 19.5 c 128,-1,5
 139 -6 139 -6 107.5 -6 c 128,-1,6
 76 -6 76 -6 58 13 c 128,-1,7
 40 32 40 32 40 65.5 c 128,-1,0
 40 99 40 99 64 123.5 c 128,-1,1
227 700 m 1,8,-1
 171 257 l 1,9,-1
 76 243 l 1,10,-1
 76 675 l 1,11,-1
 227 700 l 1,8,-1
EndSplineSet
EndChar

StartChar: quotedbl
Encoding: 34 34 5
Width: 348
GlyphClass: 2
Flags: W
LayerCount: 2
Fore
SplineSet
57 624 m 1,0,-1
 166 634 l 1,1,2
 144 500 144 500 103 390 c 1,3,-1
 46 393 l 1,4,5
 57 519 57 519 57 624 c 1,0,-1
212 624 m 1,6,-1
 321 634 l 1,7,8
 299 500 299 500 258 390 c 1,9,-1
 201 393 l 1,10,11
 212 519 212 519 212 624 c 1,6,-1
EndSplineSet
EndChar

StartChar: numbersign
Encoding: 35 35 6
Width: 425
GlyphClass: 2
Flags: W
LayerCount: 2
Fore
SplineSet
28 301 m 1,0,-1
 34 368 l 1,1,-1
 117 368 l 1,2,-1
 134 472 l 1,3,-1
 209 479 l 1,4,-1
 191 368 l 1,5,-1
 268 368 l 1,6,-1
 285 472 l 1,7,-1
 359 479 l 1,8,-1
 341 368 l 1,9,-1
 425 368 l 1,10,-1
 419 301 l 1,11,-1
 330 301 l 1,12,-1
 319 227 l 1,13,-1
 397 227 l 1,14,-1
 391 159 l 1,15,-1
 308 159 l 1,16,-1
 291 50 l 1,17,-1
 216 43 l 1,18,-1
 234 159 l 1,19,-1
 158 159 l 1,20,-1
 141 50 l 1,21,-1
 66 43 l 1,22,-1
 84 159 l 1,23,-1
 0 159 l 1,24,-1
 6 227 l 1,25,-1
 95 227 l 1,26,-1
 107 301 l 1,27,-1
 28 301 l 1,0,-1
180 301 m 1,28,-1
 169 227 l 1,29,-1
 245 227 l 1,30,-1
 257 301 l 1,31,-1
 180 301 l 1,28,-1
EndSplineSet
EndChar

StartChar: dollar
Encoding: 36 36 7
Width: 372
GlyphClass: 2
Flags: W
LayerCount: 2
Fore
SplineSet
33 351 m 0,0,1
 33 418 33 418 88.5 466.5 c 128,-1,2
 144 515 144 515 220 515 c 2,3,-1
 231 515 l 1,4,-1
 259 630 l 1,5,-1
 306 624 l 1,6,-1
 279 509 l 1,7,8
 322 500 322 500 351 486 c 1,9,-1
 300 378 l 1,10,11
 281 392 281 392 254 404 c 1,12,-1
 229 297 l 1,13,14
 284 274 284 274 307 254 c 0,15,16
 350 218 350 218 350 155.5 c 128,-1,17
 350 93 350 93 294.5 41 c 128,-1,18
 239 -11 239 -11 165 -11 c 2,19,-1
 156 -11 l 1,20,-1
 127 -133 l 1,21,-1
 80 -126 l 1,22,-1
 109 -3 l 1,23,24
 80 5 80 5 54.5 22 c 128,-1,25
 29 39 29 39 18 52 c 2,26,-1
 7 64 l 1,27,-1
 64 144 l 1,28,29
 92 113 92 113 132 94 c 1,30,-1
 160 213 l 1,31,32
 65 252 65 252 44 299 c 0,33,34
 33 322 33 322 33 351 c 0,0,1
137.5 409 m 128,-1,36
 121 396 121 396 121 375.5 c 128,-1,37
 121 355 121 355 137 341.5 c 128,-1,38
 153 328 153 328 184 315 c 1,39,-1
 209 419 l 1,40,41
 194 422 194 422 174 422 c 128,-1,35
 154 422 154 422 137.5 409 c 128,-1,36
262 137 m 0,42,43
 262 168 262 168 205 195 c 1,44,-1
 178 81 l 1,45,-1
 190 81 l 2,46,47
 223 81 223 81 242.5 96.5 c 128,-1,48
 262 112 262 112 262 137 c 0,42,43
EndSplineSet
EndChar

StartChar: percent
Encoding: 37 37 8
Width: 975
GlyphClass: 2
Flags: W
LayerCount: 2
Fore
SplineSet
231 695 m 0,0,1
 304 695 304 695 349.5 638.5 c 128,-1,2
 395 582 395 582 395 491 c 0,3,4
 395 376 395 376 340.5 309.5 c 128,-1,5
 286 243 286 243 191 243 c 0,6,7
 119 243 119 243 73 300 c 128,-1,8
 27 357 27 357 27 456 c 128,-1,9
 27 555 27 555 84.5 625 c 128,-1,10
 142 695 142 695 231 695 c 0,0,1
273 349.5 m 128,-1,12
 289 380 289 380 289 462.5 c 128,-1,13
 289 545 289 545 272.5 576.5 c 128,-1,14
 256 608 256 608 212.5 608 c 128,-1,15
 169 608 169 608 151 579 c 128,-1,16
 133 550 133 550 133 472 c 128,-1,17
 133 394 133 394 152.5 356.5 c 128,-1,18
 172 319 172 319 214.5 319 c 128,-1,11
 257 319 257 319 273 349.5 c 128,-1,12
784 449 m 0,19,20
 857 449 857 449 902.5 392.5 c 128,-1,21
 948 336 948 336 948 245 c 0,22,23
 948 130 948 130 893.5 63.5 c 128,-1,24
 839 -3 839 -3 744 -3 c 0,25,26
 672 -3 672 -3 626 54 c 128,-1,27
 580 111 580 111 580 210 c 128,-1,28
 580 309 580 309 637.5 379 c 128,-1,29
 695 449 695 449 784 449 c 0,19,20
826 103.5 m 128,-1,31
 842 134 842 134 842 216.5 c 128,-1,32
 842 299 842 299 825.5 330.5 c 128,-1,33
 809 362 809 362 765.5 362 c 128,-1,34
 722 362 722 362 704 333 c 128,-1,35
 686 304 686 304 686 226 c 128,-1,36
 686 148 686 148 705.5 110.5 c 128,-1,37
 725 73 725 73 767.5 73 c 128,-1,30
 810 73 810 73 826 103.5 c 128,-1,31
306 -119 m 1,38,-1
 227 -87 l 1,39,-1
 648 758 l 1,40,-1
 727 726 l 1,41,-1
 306 -119 l 1,38,-1
EndSplineSet
EndChar

StartChar: ampersand
Encoding: 38 38 9
Width: 636
GlyphClass: 2
Flags: W
LayerCount: 2
Fore
SplineSet
467 326 m 1,0,1
 480 245 480 245 480 216.5 c 128,-1,2
 480 188 480 188 477 173 c 1,3,-1
 590 62 l 1,4,-1
 508 -11 l 1,5,6
 474 26 474 26 428 74 c 1,7,8
 395 35 395 35 348 12 c 128,-1,9
 301 -11 301 -11 250 -11 c 0,10,11
 159 -11 159 -11 99 38.5 c 128,-1,12
 39 88 39 88 39 163 c 0,13,14
 39 264 39 264 157 333 c 1,15,16
 77 416 77 416 77 483.5 c 128,-1,17
 77 551 77 551 137 600.5 c 128,-1,18
 197 650 197 650 282 650 c 0,19,20
 334 650 334 650 378.5 639 c 128,-1,21
 423 628 423 628 442 618 c 1,22,-1
 460 607 l 1,23,-1
 398 489 l 1,24,25
 372 511 372 511 333.5 528.5 c 128,-1,26
 295 546 295 546 260.5 546 c 128,-1,27
 226 546 226 546 206.5 530 c 128,-1,28
 187 514 187 514 187 489 c 0,29,30
 187 454 187 454 211 425 c 128,-1,31
 235 396 235 396 326 316 c 1,32,-1
 395 252 l 1,33,34
 390 304 390 304 369 404 c 1,35,-1
 382 417 l 1,36,-1
 592 417 l 1,37,-1
 584 326 l 1,38,-1
 467 326 l 1,0,1
202 289 m 1,39,40
 155 244 155 244 155 198 c 128,-1,41
 155 152 155 152 187.5 121 c 128,-1,42
 220 90 220 90 280 90 c 128,-1,43
 340 90 340 90 372 131 c 1,44,45
 307 197 307 197 250 248 c 1,46,47
 226 266 226 266 202 289 c 1,39,40
EndSplineSet
EndChar

StartChar: quotesingle
Encoding: 39 39 10
Width: 193
GlyphClass: 2
Flags: W
LayerCount: 2
Fore
SplineSet
57 624 m 1,0,-1
 166 634 l 1,1,2
 144 500 144 500 103 390 c 1,3,-1
 46 393 l 1,4,5
 57 519 57 519 57 624 c 1,0,-1
EndSplineSet
EndChar

StartChar: parenleft
Encoding: 40 40 11
Width: 278
GlyphClass: 2
Flags: W
LayerCount: 2
Fore
SplineSet
107 -7.5 m 128,-1,1
 67 86 67 86 67 289.5 c 128,-1,2
 67 493 67 493 107 591 c 128,-1,3
 147 689 147 689 253 741 c 1,4,-1
 283 693 l 1,5,6
 213 648 213 648 187.5 566 c 128,-1,7
 162 484 162 484 162 300.5 c 128,-1,8
 162 117 162 117 187 32.5 c 128,-1,9
 212 -52 212 -52 283 -96 c 1,10,-1
 253 -144 l 1,11,0
 147 -101 147 -101 107 -7.5 c 128,-1,1
EndSplineSet
EndChar

StartChar: parenright
Encoding: 41 41 12
Width: 278
GlyphClass: 2
Flags: W
LayerCount: 2
Fore
SplineSet
171 604.5 m 128,-1,1
 211 511 211 511 211 307.5 c 128,-1,2
 211 104 211 104 171 6 c 128,-1,3
 131 -92 131 -92 25 -144 c 1,4,-1
 -5 -96 l 1,5,6
 65 -51 65 -51 90.5 31 c 128,-1,7
 116 113 116 113 116 296.5 c 128,-1,8
 116 480 116 480 91 564.5 c 128,-1,9
 66 649 66 649 -5 693 c 1,10,-1
 25 741 l 1,11,0
 131 698 131 698 171 604.5 c 128,-1,1
EndSplineSet
EndChar

StartChar: asterisk
Encoding: 42 42 13
Width: 302
GlyphClass: 2
Flags: W
LayerCount: 2
Fore
SplineSet
11 537 m 1,0,-1
 26 610 l 1,1,-1
 125 553 l 1,2,-1
 130 649 l 1,3,-1
 203 657 l 1,4,-1
 180 544 l 1,5,-1
 272 570 l 1,6,-1
 302 503 l 1,7,-1
 189 490 l 1,8,-1
 242 411 l 1,9,-1
 187 361 l 1,10,-1
 139 465 l 1,11,-1
 80 390 l 1,12,-1
 17 426 l 1,13,-1
 101 504 l 1,14,-1
 11 537 l 1,0,-1
EndSplineSet
EndChar

StartChar: plus
Encoding: 43 43 14
Width: 425
GlyphClass: 2
Flags: W
LayerCount: 2
Fore
SplineSet
162 306 m 1,0,-1
 162 453 l 1,1,-1
 262 462 l 1,2,-1
 262 306 l 1,3,-1
 408 306 l 1,4,-1
 400 215 l 1,5,-1
 262 215 l 1,6,-1
 262 69 l 1,7,-1
 162 60 l 1,8,-1
 162 215 l 1,9,-1
 17 215 l 1,10,-1
 25 306 l 1,11,-1
 162 306 l 1,0,-1
EndSplineSet
EndChar

StartChar: comma
Encoding: 44 44 15
Width: 205
GlyphClass: 2
Flags: W
LayerCount: 2
Fore
SplineSet
165 67 m 0,0,1
 165 -18 165 -18 41 -113 c 1,2,-1
 0 -83 l 1,3,4
 59 -14 59 -14 59 36 c 0,5,6
 59 67 59 67 33 115 c 1,7,-1
 131 154 l 1,8,9
 165 111 165 111 165 67 c 0,0,1
EndSplineSet
EndChar

StartChar: hyphen
Encoding: 45 45 16
Width: 270
GlyphClass: 2
Flags: W
LayerCount: 2
Fore
SplineSet
21 194 m 1,0,-1
 13 285 l 1,1,-1
 249 327 l 1,2,-1
 257 236 l 1,3,-1
 21 194 l 1,0,-1
EndSplineSet
EndChar

StartChar: period
Encoding: 46 46 17
Width: 205
GlyphClass: 2
Flags: W
LayerCount: 2
Fore
SplineSet
53.5 123.5 m 128,-1,1
 77 148 77 148 110 148 c 0,2,3
 175 148 175 148 175 82 c 0,4,5
 175 44 175 44 151.5 19 c 128,-1,6
 128 -6 128 -6 96.5 -6 c 128,-1,7
 65 -6 65 -6 47.5 14.5 c 128,-1,8
 30 35 30 35 30 67 c 128,-1,0
 30 99 30 99 53.5 123.5 c 128,-1,1
EndSplineSet
EndChar

StartChar: slash
Encoding: 47 47 18
Width: 302
GlyphClass: 2
Flags: W
LayerCount: 2
Fore
SplineSet
99 -133 m 1,0,-1
 9 -117 l 1,1,-1
 226 758 l 1,2,-1
 316 742 l 1,3,-1
 99 -133 l 1,0,-1
EndSplineSet
EndChar

StartChar: zero
Encoding: 48 48 19
Width: 571
GlyphClass: 2
Flags: W
LayerCount: 2
Fore
SplineSet
313 649 m 0,0,1
 416 649 416 649 478.5 567.5 c 128,-1,2
 541 486 541 486 541 352 c 0,3,4
 541 183 541 183 465.5 86 c 128,-1,5
 390 -11 390 -11 258 -11 c 0,6,7
 157 -11 157 -11 93.5 71.5 c 128,-1,8
 30 154 30 154 30 287 c 0,9,10
 30 446 30 446 109.5 547.5 c 128,-1,11
 189 649 189 649 313 649 c 0,0,1
379.5 136 m 128,-1,13
 405 185 405 185 405 310 c 128,-1,14
 405 435 405 435 379 485.5 c 128,-1,15
 353 536 353 536 288 536 c 128,-1,16
 223 536 223 536 194.5 488.5 c 128,-1,17
 166 441 166 441 166 323.5 c 128,-1,18
 166 206 166 206 196 146.5 c 128,-1,19
 226 87 226 87 290 87 c 128,-1,12
 354 87 354 87 379.5 136 c 128,-1,13
EndSplineSet
EndChar

StartChar: one
Encoding: 49 49 20
Width: 389
GlyphClass: 2
Flags: W
LayerCount: 2
Fore
SplineSet
285 650 m 1,0,-1
 270 260 l 1,1,-1
 282 0 l 1,2,-1
 142 0 l 1,3,-1
 154 243 l 1,4,-1
 146 492 l 1,5,-1
 6 491 l 1,6,-1
 6 556 l 1,7,-1
 285 650 l 1,0,-1
EndSplineSet
EndChar

StartChar: two
Encoding: 50 50 21
Width: 509
GlyphClass: 2
Flags: W
LayerCount: 2
Fore
SplineSet
311 467 m 0,0,1
 311 523 311 523 243 523 c 0,2,3
 201 523 201 523 150.5 505.5 c 128,-1,4
 100 488 100 488 70 470 c 2,5,-1
 41 453 l 1,6,-1
 68 596 l 1,7,8
 107 617 107 617 162 633.5 c 128,-1,9
 217 650 217 650 259 650 c 0,10,11
 344 650 344 650 395.5 606.5 c 128,-1,12
 447 563 447 563 447 491 c 0,13,14
 447 394 447 394 345 289 c 2,15,-1
 171 109 l 1,16,-1
 483 127 l 1,17,-1
 466 -6 l 1,18,-1
 258 3 l 1,19,-1
 22 -4 l 1,20,-1
 38 101 l 1,21,-1
 248 343 l 1,22,23
 311 414 311 414 311 467 c 0,0,1
EndSplineSet
EndChar

StartChar: three
Encoding: 51 51 22
Width: 488
GlyphClass: 2
Flags: W
LayerCount: 2
Fore
SplineSet
61 620 m 1,0,1
 145 650 145 650 228 650 c 128,-1,2
 311 650 311 650 364 608 c 128,-1,3
 417 566 417 566 417 502 c 0,4,5
 417 452 417 452 391 414.5 c 128,-1,6
 365 377 365 377 317 358 c 1,7,8
 387 332 387 332 418 293.5 c 128,-1,9
 449 255 449 255 449 196 c 0,10,11
 449 106 449 106 379.5 47.5 c 128,-1,12
 310 -11 310 -11 203 -11 c 0,13,14
 152 -11 152 -11 103.5 2.5 c 128,-1,15
 55 16 55 16 32 30 c 2,16,-1
 9 44 l 1,17,-1
 51 165 l 1,18,19
 60 157 60 157 75 145 c 128,-1,20
 90 133 90 133 132.5 112.5 c 128,-1,21
 175 92 175 92 218 92 c 128,-1,22
 261 92 261 92 293 115.5 c 128,-1,23
 325 139 325 139 325 182 c 128,-1,24
 325 225 325 225 287.5 253 c 128,-1,25
 250 281 250 281 184 281 c 2,26,-1
 98 281 l 1,27,-1
 116 378 l 1,28,-1
 171 378 l 2,29,30
 226 378 226 378 257 403 c 128,-1,31
 288 428 288 428 288 467 c 128,-1,32
 288 506 288 506 262 527.5 c 128,-1,33
 236 549 236 549 199.5 549 c 128,-1,34
 163 549 163 549 124.5 536.5 c 128,-1,35
 86 524 86 524 40 499 c 1,36,-1
 61 620 l 1,0,1
EndSplineSet
EndChar

StartChar: four
Encoding: 52 52 23
Width: 536
GlyphClass: 2
Flags: W
LayerCount: 2
Fore
SplineSet
10 248 m 1,0,-1
 248 623 l 1,1,-1
 413 643 l 1,2,-1
 399 256 l 1,3,-1
 495 260 l 1,4,-1
 485 159 l 1,5,-1
 405 161 l 1,6,-1
 411 0 l 1,7,-1
 271 0 l 1,8,-1
 281 163 l 1,9,-1
 2 162 l 1,10,-1
 10 248 l 1,0,-1
278 514 m 1,11,-1
 119 257 l 1,12,-1
 283 258 l 1,13,-1
 278 514 l 1,11,-1
EndSplineSet
EndChar

StartChar: five
Encoding: 53 53 24
Width: 487
GlyphClass: 2
Flags: W
LayerCount: 2
Fore
SplineSet
457 214 m 0,0,1
 457 121 457 121 382.5 55 c 128,-1,2
 308 -11 308 -11 201 -11 c 0,3,4
 151 -11 151 -11 105 1.5 c 128,-1,5
 59 14 59 14 38 26 c 2,6,-1
 17 39 l 1,7,-1
 59 156 l 1,8,9
 90 132 90 132 136.5 112 c 128,-1,10
 183 92 183 92 223.5 92 c 128,-1,11
 264 92 264 92 296 117.5 c 128,-1,12
 328 143 328 143 328 180 c 0,13,14
 328 271 328 271 206 291 c 2,15,-1
 73 313 l 1,16,-1
 73 644 l 1,17,-1
 245 632 l 1,18,-1
 448 643 l 1,19,-1
 426 505 l 1,20,-1
 169 528 l 1,21,-1
 169 411 l 1,22,-1
 278 392 l 2,23,24
 362 377 362 377 409.5 329 c 128,-1,25
 457 281 457 281 457 214 c 0,0,1
EndSplineSet
EndChar

StartChar: six
Encoding: 54 54 25
Width: 499
GlyphClass: 2
Flags: W
LayerCount: 2
Fore
SplineSet
176 357 m 1,0,1
 238 405 238 405 310 405 c 128,-1,2
 382 405 382 405 430.5 351 c 128,-1,3
 479 297 479 297 479 208 c 128,-1,4
 479 119 479 119 410 54 c 128,-1,5
 341 -11 341 -11 244.5 -11 c 128,-1,6
 148 -11 148 -11 90 53 c 128,-1,7
 32 117 32 117 32 221 c 128,-1,8
 32 325 32 325 91.5 426 c 128,-1,9
 151 527 151 527 279 650 c 1,10,-1
 418 591 l 1,11,12
 228 468 228 468 176 357 c 1,0,1
266 302 m 0,13,14
 202 302 202 302 151 267 c 1,15,16
 149 245 149 245 149 233 c 0,17,18
 149 169 149 169 180 130.5 c 128,-1,19
 211 92 211 92 257.5 92 c 128,-1,20
 304 92 304 92 331 120 c 128,-1,21
 358 148 358 148 358 193.5 c 128,-1,22
 358 239 358 239 332 270.5 c 128,-1,23
 306 302 306 302 266 302 c 0,13,14
EndSplineSet
EndChar

StartChar: seven
Encoding: 55 55 26
Width: 444
GlyphClass: 2
Flags: W
LayerCount: 2
Fore
SplineSet
55 34 m 1,0,-1
 306 528 l 1,1,-1
 5 505 l 1,2,-1
 27 643 l 1,3,-1
 238 632 l 1,4,-1
 438 644 l 1,5,-1
 423 537 l 1,6,-1
 261 202 l 1,7,-1
 197 -11 l 1,8,-1
 55 34 l 1,0,-1
EndSplineSet
EndChar

StartChar: eight
Encoding: 56 56 27
Width: 531
GlyphClass: 2
Flags: W
LayerCount: 2
Fore
SplineSet
40 155 m 0,0,1
 40 208 40 208 77 246.5 c 128,-1,2
 114 285 114 285 159 308 c 1,3,4
 63 365 63 365 63 451.5 c 128,-1,5
 63 538 63 538 125 594 c 128,-1,6
 187 650 187 650 272 650 c 128,-1,7
 357 650 357 650 410.5 609 c 128,-1,8
 464 568 464 568 464 507 c 0,9,10
 464 428 464 428 370 352 c 1,11,12
 430 324 430 324 464.5 287 c 128,-1,13
 499 250 499 250 499 194 c 0,14,15
 499 110 499 110 427.5 49.5 c 128,-1,16
 356 -11 356 -11 261.5 -11 c 128,-1,17
 167 -11 167 -11 103.5 38 c 128,-1,18
 40 87 40 87 40 155 c 0,0,1
273 256.5 m 128,-1,20
 231 273 231 273 216 280 c 1,21,22
 151 237 151 237 151 193 c 128,-1,23
 151 149 151 149 186 122 c 128,-1,24
 221 95 221 95 273.5 95 c 128,-1,25
 326 95 326 95 357.5 114.5 c 128,-1,26
 389 134 389 134 389 165.5 c 128,-1,27
 389 197 389 197 352 218.5 c 128,-1,19
 315 240 315 240 273 256.5 c 128,-1,20
189 443 m 128,-1,29
 205 429 205 429 214 422.5 c 128,-1,30
 223 416 223 416 244 406 c 0,31,32
 281 389 281 389 310 378 c 1,33,34
 356 436 356 436 356 470.5 c 128,-1,35
 356 505 356 505 329.5 525.5 c 128,-1,36
 303 546 303 546 262.5 546 c 128,-1,37
 222 546 222 546 197.5 528 c 128,-1,38
 173 510 173 510 173 483.5 c 128,-1,28
 173 457 173 457 189 443 c 128,-1,29
EndSplineSet
EndChar

StartChar: nine
Encoding: 57 57 28
Width: 499
GlyphClass: 2
Flags: W
LayerCount: 2
Fore
SplineSet
323 282 m 1,0,1
 263 234 263 234 190 234 c 128,-1,2
 117 234 117 234 68.5 288 c 128,-1,3
 20 342 20 342 20 431 c 128,-1,4
 20 520 20 520 89 585 c 128,-1,5
 158 650 158 650 254.5 650 c 128,-1,6
 351 650 351 650 409 586 c 128,-1,7
 467 522 467 522 467 418 c 128,-1,8
 467 314 467 314 407.5 213 c 128,-1,9
 348 112 348 112 220 -11 c 1,10,-1
 81 48 l 1,11,12
 270 171 270 171 323 282 c 1,0,1
233 337 m 0,13,14
 298 337 298 337 348 372 c 1,15,16
 350 394 350 394 350 406 c 0,17,18
 350 470 350 470 319 508.5 c 128,-1,19
 288 547 288 547 241.5 547 c 128,-1,20
 195 547 195 547 168 519 c 128,-1,21
 141 491 141 491 141 445.5 c 128,-1,22
 141 400 141 400 167 368.5 c 128,-1,23
 193 337 193 337 233 337 c 0,13,14
EndSplineSet
EndChar

StartChar: colon
Encoding: 58 58 29
Width: 205
GlyphClass: 2
Flags: W
LayerCount: 2
Fore
SplineSet
53.5 123.5 m 128,-1,1
 77 148 77 148 110 148 c 0,2,3
 175 148 175 148 175 82 c 0,4,5
 175 44 175 44 151.5 19 c 128,-1,6
 128 -6 128 -6 96.5 -6 c 128,-1,7
 65 -6 65 -6 47.5 14.5 c 128,-1,8
 30 35 30 35 30 67 c 128,-1,0
 30 99 30 99 53.5 123.5 c 128,-1,1
53.5 386.5 m 128,-1,10
 77 411 77 411 110 411 c 0,11,12
 175 411 175 411 175 345 c 0,13,14
 175 307 175 307 151.5 282 c 128,-1,15
 128 257 128 257 96.5 257 c 128,-1,16
 65 257 65 257 47.5 277.5 c 128,-1,17
 30 298 30 298 30 330 c 128,-1,9
 30 362 30 362 53.5 386.5 c 128,-1,10
EndSplineSet
EndChar

StartChar: semicolon
Encoding: 59 59 30
Width: 205
GlyphClass: 2
Flags: W
LayerCount: 2
Fore
SplineSet
53.5 386.5 m 128,-1,1
 77 411 77 411 110 411 c 0,2,3
 175 411 175 411 175 345 c 0,4,5
 175 307 175 307 151.5 282 c 128,-1,6
 128 257 128 257 96.5 257 c 128,-1,7
 65 257 65 257 47.5 277.5 c 128,-1,8
 30 298 30 298 30 330 c 128,-1,0
 30 362 30 362 53.5 386.5 c 128,-1,1
165 67 m 0,9,10
 165 -18 165 -18 41 -113 c 1,11,-1
 0 -83 l 1,12,13
 59 -14 59 -14 59 36 c 0,14,15
 59 67 59 67 33 115 c 1,16,-1
 131 154 l 1,17,18
 165 111 165 111 165 67 c 0,9,10
EndSplineSet
EndChar

StartChar: less
Encoding: 60 60 31
Width: 395
GlyphClass: 2
Flags: W
LayerCount: 2
Fore
SplineSet
21 252 m 1,0,-1
 268 475 l 1,1,-1
 327 408 l 1,2,-1
 163 256 l 1,3,-1
 335 107 l 1,4,-1
 271 36 l 1,5,-1
 21 252 l 1,0,-1
EndSplineSet
EndChar

StartChar: equal
Encoding: 61 61 32
Width: 425
GlyphClass: 2
Flags: W
LayerCount: 2
Fore
SplineSet
17 299 m 1,0,-1
 25 390 l 1,1,-1
 408 390 l 1,2,-1
 400 299 l 1,3,-1
 17 299 l 1,0,-1
17 129 m 1,4,-1
 25 220 l 1,5,-1
 408 220 l 1,6,-1
 400 129 l 1,7,-1
 17 129 l 1,4,-1
EndSplineSet
EndChar

StartChar: greater
Encoding: 62 62 33
Width: 395
GlyphClass: 2
Flags: W
LayerCount: 2
Fore
SplineSet
374 259 m 1,0,-1
 127 36 l 1,1,-1
 68 103 l 1,2,-1
 232 255 l 1,3,-1
 60 404 l 1,4,-1
 124 475 l 1,5,-1
 374 259 l 1,0,-1
EndSplineSet
EndChar

StartChar: question
Encoding: 63 63 34
Width: 354
GlyphClass: 2
Flags: W
LayerCount: 2
Fore
SplineSet
102 123.5 m 128,-1,1
 126 148 126 148 158 148 c 128,-1,2
 190 148 190 148 206.5 130.5 c 128,-1,3
 223 113 223 113 223 79 c 128,-1,4
 223 45 223 45 200 19.5 c 128,-1,5
 177 -6 177 -6 145.5 -6 c 128,-1,6
 114 -6 114 -6 96 13 c 128,-1,7
 78 32 78 32 78 65.5 c 128,-1,0
 78 99 78 99 102 123.5 c 128,-1,1
220 478 m 0,8,9
 220 583 220 583 0 588 c 1,10,-1
 50 700 l 1,11,12
 198 687 198 687 276 637 c 128,-1,13
 354 587 354 587 354 504 c 0,14,15
 354 389 354 389 165 247 c 1,16,-1
 88 316 l 1,17,18
 220 401 220 401 220 478 c 0,8,9
EndSplineSet
EndChar

StartChar: at
Encoding: 64 64 35
Width: 713
GlyphClass: 2
Flags: W
LayerCount: 2
Fore
SplineSet
260.5 137.5 m 128,-1,1
 223 175 223 175 223 238.5 c 128,-1,2
 223 302 223 302 281 348.5 c 128,-1,3
 339 395 339 395 422 395 c 2,4,-1
 490 395 l 1,5,-1
 490 413 l 2,6,7
 490 463 490 463 463.5 486.5 c 128,-1,8
 437 510 437 510 380 510 c 0,9,10
 260 510 260 510 191 439.5 c 128,-1,11
 122 369 122 369 122 250.5 c 128,-1,12
 122 132 122 132 200.5 52 c 128,-1,13
 279 -28 279 -28 400 -28 c 0,14,15
 465 -28 465 -28 534.5 -8 c 128,-1,16
 604 12 604 12 640 32 c 2,17,-1
 677 53 l 1,18,-1
 693 -49 l 1,19,20
 678 -58 678 -58 650 -71.5 c 128,-1,21
 622 -85 622 -85 539.5 -107.5 c 128,-1,22
 457 -130 457 -130 377 -130 c 0,23,24
 221 -130 221 -130 125.5 -29 c 128,-1,25
 30 72 30 72 30 237.5 c 128,-1,26
 30 403 30 403 139 511.5 c 128,-1,27
 248 620 248 620 417 620 c 0,28,29
 506 620 506 620 555 574 c 128,-1,30
 604 528 604 528 604 445 c 2,31,-1
 604 267 l 2,32,33
 604 197 604 197 639 142 c 1,34,-1
 533 97 l 1,35,36
 508 145 508 145 496 183 c 1,37,38
 441 100 441 100 357 100 c 0,39,0
 298 100 298 100 260.5 137.5 c 128,-1,1
399 202 m 0,40,41
 439 202 439 202 490 243 c 1,42,-1
 490 310 l 1,43,44
 437 322 437 322 404 322 c 0,45,46
 341 322 341 322 341 266 c 0,47,48
 341 237 341 237 357 219.5 c 128,-1,49
 373 202 373 202 399 202 c 0,40,41
EndSplineSet
EndChar

StartChar: A
Encoding: 65 65 36
Width: 643
GlyphClass: 2
Flags: W
LayerCount: 2
Fore
SplineSet
484 -5 m 1,0,-1
 435 190 l 1,1,-1
 196 190 l 1,2,-1
 143 0 l 1,3,-1
 15 10 l 1,4,-1
 103 253 l 1,5,-1
 237 683 l 1,6,-1
 416 696 l 1,7,-1
 545 268 l 1,8,-1
 628 17 l 1,9,-1
 484 -5 l 1,0,-1
326 566 m 1,10,-1
 313 566 l 1,11,-1
 227 296 l 1,12,-1
 405 296 l 1,13,-1
 326 566 l 1,10,-1
EndSplineSet
EndChar

StartChar: B
Encoding: 66 66 37
Width: 580
GlyphClass: 2
Flags: W
LayerCount: 2
Fore
SplineSet
297 690 m 2,0,1
 393 690 393 690 449 646.5 c 128,-1,2
 505 603 505 603 505 530 c 0,3,4
 505 413 505 413 409 367 c 1,5,6
 539 322 539 322 539 201 c 0,7,8
 539 110 539 110 461 49.5 c 128,-1,9
 383 -11 383 -11 265 -11 c 0,10,11
 203 -11 203 -11 80 0 c 1,12,-1
 92 243 l 1,13,-1
 80 690 l 1,14,-1
 297 690 l 2,0,1
284 297 m 2,15,-1
 203 297 l 1,16,-1
 202 260 l 1,17,-1
 209 97 l 1,18,19
 267 92 267 92 298 92 c 0,20,21
 351 92 351 92 380.5 118.5 c 128,-1,22
 410 145 410 145 410 196 c 128,-1,23
 410 247 410 247 380 272 c 128,-1,24
 350 297 350 297 284 297 c 2,15,-1
261 589 m 2,25,-1
 212 589 l 1,26,-1
 206 394 l 1,27,-1
 271 394 l 2,28,29
 322 394 322 394 349 421.5 c 128,-1,30
 376 449 376 449 376 500 c 0,31,32
 376 589 376 589 261 589 c 2,25,-1
EndSplineSet
EndChar

StartChar: C
Encoding: 67 67 38
Width: 551
GlyphClass: 2
Flags: W
LayerCount: 2
Fore
SplineSet
293 -11 m 0,0,1
 182 -11 182 -11 106 82 c 128,-1,2
 30 175 30 175 30 310 c 0,3,4
 30 475 30 475 121.5 588 c 128,-1,5
 213 701 213 701 346 701 c 0,6,7
 398 701 398 701 442.5 690.5 c 128,-1,8
 487 680 487 680 506 669 c 2,9,-1
 524 658 l 1,10,-1
 456 519 l 1,11,12
 433 539 433 539 391 556.5 c 128,-1,13
 349 574 349 574 315 574 c 0,14,15
 246 574 246 574 204.5 517 c 128,-1,16
 163 460 163 460 163 354.5 c 128,-1,17
 163 249 163 249 206 181.5 c 128,-1,18
 249 114 249 114 323 114 c 0,19,20
 371 114 371 114 410 144 c 128,-1,21
 449 174 449 174 465 224 c 1,22,-1
 548 176 l 1,23,24
 515 88 515 88 447 38.5 c 128,-1,25
 379 -11 379 -11 293 -11 c 0,0,1
EndSplineSet
EndChar

StartChar: D
Encoding: 68 68 39
Width: 664
GlyphClass: 2
Flags: W
LayerCount: 2
Fore
SplineSet
285 -11 m 0,0,1
 214 -11 214 -11 80 0 c 1,2,-1
 92 243 l 1,3,-1
 80 690 l 1,4,-1
 347 690 l 2,5,6
 482 690 482 690 558 609 c 128,-1,7
 634 528 634 528 634 384 c 0,8,9
 634 202 634 202 540 95.5 c 128,-1,10
 446 -11 446 -11 285 -11 c 0,0,1
311 582 m 0,11,12
 245 582 245 582 218 581 c 1,13,-1
 208 260 l 1,14,-1
 215 98 l 1,15,16
 299 92 299 92 328 92 c 0,17,18
 407 92 407 92 452.5 156 c 128,-1,19
 498 220 498 220 498 342 c 128,-1,20
 498 464 498 464 453.5 523 c 128,-1,21
 409 582 409 582 311 582 c 0,11,12
EndSplineSet
EndChar

StartChar: E
Encoding: 69 69 40
Width: 492
GlyphClass: 2
Flags: W
LayerCount: 2
Fore
SplineSet
80 0 m 1,0,-1
 92 243 l 1,1,-1
 80 690 l 1,2,-1
 455 690 l 1,3,-1
 444 583 l 1,4,-1
 219 583 l 1,5,-1
 213 406 l 1,6,-1
 413 406 l 1,7,-1
 402 300 l 1,8,-1
 209 300 l 1,9,-1
 208 260 l 1,10,-1
 215 106 l 1,11,-1
 457 106 l 1,12,-1
 446 0 l 1,13,-1
 80 0 l 1,0,-1
EndSplineSet
EndChar

StartChar: F
Encoding: 70 70 41
Width: 442
GlyphClass: 2
Flags: W
LayerCount: 2
Fore
SplineSet
431 583 m 1,0,-1
 218 583 l 1,1,-1
 212 399 l 1,2,-1
 403 399 l 1,3,-1
 392 293 l 1,4,-1
 209 293 l 1,5,-1
 208 260 l 1,6,-1
 220 0 l 1,7,-1
 80 0 l 1,8,-1
 92 243 l 1,9,-1
 80 690 l 1,10,-1
 442 690 l 1,11,-1
 431 583 l 1,0,-1
EndSplineSet
EndChar

StartChar: G
Encoding: 71 71 42
Width: 636
GlyphClass: 2
Flags: W
LayerCount: 2
Fore
SplineSet
321 -11 m 0,0,1
 190 -11 190 -11 110 77 c 128,-1,2
 30 165 30 165 30 310 c 0,3,4
 30 475 30 475 130 588 c 128,-1,5
 230 701 230 701 376 701 c 0,6,7
 434 701 434 701 483.5 690.5 c 128,-1,8
 533 680 533 680 554 669 c 2,9,-1
 574 658 l 1,10,-1
 516 519 l 1,11,12
 486 539 486 539 435 556.5 c 128,-1,13
 384 574 384 574 345 574 c 0,14,15
 264 574 264 574 215 517 c 128,-1,16
 166 460 166 460 166 366 c 0,17,18
 166 239 166 239 212.5 168 c 128,-1,19
 259 97 259 97 342 97 c 0,20,21
 396 97 396 97 444 112 c 1,22,-1
 444 267 l 1,23,-1
 315 267 l 1,24,-1
 325 368 l 1,25,-1
 565 368 l 1,26,-1
 556 205 l 1,27,-1
 563 32 l 1,28,29
 416 -11 416 -11 321 -11 c 0,0,1
EndSplineSet
EndChar

StartChar: H
Encoding: 72 72 43
Width: 690
GlyphClass: 2
Flags: W
LayerCount: 2
Fore
SplineSet
610 695 m 1,0,-1
 596 260 l 1,1,-1
 608 0 l 1,2,-1
 468 0 l 1,3,-1
 480 243 l 1,4,-1
 478 296 l 1,5,-1
 209 296 l 1,6,-1
 208 260 l 1,7,-1
 220 0 l 1,8,-1
 80 0 l 1,9,-1
 92 243 l 1,10,-1
 80 670 l 1,11,-1
 222 695 l 1,12,-1
 212 402 l 1,13,-1
 475 402 l 1,14,-1
 468 670 l 1,15,-1
 610 695 l 1,0,-1
EndSplineSet
EndChar

StartChar: I
Encoding: 73 73 44
Width: 302
GlyphClass: 2
Flags: W
LayerCount: 2
Fore
SplineSet
222 695 m 1,0,-1
 208 260 l 1,1,-1
 220 0 l 1,2,-1
 80 0 l 1,3,-1
 92 243 l 1,4,-1
 80 670 l 1,5,-1
 222 695 l 1,0,-1
EndSplineSet
EndChar

StartChar: J
Encoding: 74 74 45
Width: 353
GlyphClass: 2
Flags: W
LayerCount: 2
Fore
SplineSet
82 -10 m 0,0,1
 41 -10 41 -10 0 -1 c 1,2,-1
 32 119 l 1,3,4
 65 108 65 108 96 108 c 0,5,6
 157 108 157 108 157 209 c 1,7,-1
 143 670 l 1,8,-1
 285 695 l 1,9,-1
 271 244 l 1,10,11
 271 135 271 135 218 62.5 c 128,-1,12
 165 -10 165 -10 82 -10 c 0,0,1
EndSplineSet
EndChar

StartChar: K
Encoding: 75 75 46
Width: 578
GlyphClass: 2
Flags: W
LayerCount: 2
Fore
SplineSet
222 695 m 1,0,-1
 211 369 l 1,1,-1
 466 693 l 1,2,-1
 568 625 l 1,3,-1
 338 358 l 1,4,-1
 582 69 l 1,5,-1
 454 -11 l 1,6,-1
 210 334 l 1,7,-1
 208 260 l 1,8,-1
 220 0 l 1,9,-1
 80 0 l 1,10,-1
 92 243 l 1,11,-1
 80 670 l 1,12,-1
 222 695 l 1,0,-1
EndSplineSet
EndChar

StartChar: L
Encoding: 76 76 47
Width: 426
GlyphClass: 2
Flags: W
LayerCount: 2
Fore
SplineSet
80 0 m 1,0,-1
 92 243 l 1,1,-1
 80 670 l 1,2,-1
 222 695 l 1,3,-1
 208 260 l 1,4,-1
 215 98 l 1,5,-1
 420 114 l 1,6,-1
 409 0 l 1,7,-1
 80 0 l 1,0,-1
EndSplineSet
EndChar

StartChar: M
Encoding: 77 77 48
Width: 747
GlyphClass: 2
Flags: W
LayerCount: 2
Fore
SplineSet
370 312 m 1,0,-1
 380 312 l 1,1,-1
 526 692 l 1,2,-1
 664 688 l 1,3,-1
 668 258 l 1,4,-1
 687 0 l 1,5,-1
 552 0 l 1,6,-1
 557 260 l 1,7,-1
 546 523 l 1,8,-1
 426 192 l 1,9,-1
 303 186 l 1,10,-1
 191 523 l 1,11,-1
 182 260 l 1,12,-1
 189 0 l 1,13,-1
 65 0 l 1,14,-1
 79 243 l 1,15,-1
 85 672 l 1,16,-1
 244 697 l 1,17,-1
 370 312 l 1,0,-1
EndSplineSet
EndChar

StartChar: N
Encoding: 78 78 49
Width: 689
GlyphClass: 2
Flags: W
LayerCount: 2
Fore
SplineSet
609 692 m 1,0,-1
 596 260 l 1,1,-1
 607 22 l 1,2,-1
 489 -3 l 1,3,-1
 191 479 l 1,4,-1
 191 260 l 1,5,-1
 205 0 l 1,6,-1
 80 0 l 1,7,-1
 92 243 l 1,8,-1
 80 687 l 1,9,-1
 200 693 l 1,10,-1
 497 204 l 1,11,-1
 487 677 l 1,12,-1
 609 692 l 1,0,-1
EndSplineSet
EndChar

StartChar: O
Encoding: 79 79 50
Width: 661
GlyphClass: 2
Flags: W
LayerCount: 2
Fore
SplineSet
360 700 m 0,0,1
 478 700 478 700 554.5 610 c 128,-1,2
 631 520 631 520 631 381 c 0,3,4
 631 205 631 205 540 97 c 128,-1,5
 449 -11 449 -11 301 -11 c 0,6,7
 186 -11 186 -11 108 81.5 c 128,-1,8
 30 174 30 174 30 310 c 0,9,10
 30 480 30 480 123 590 c 128,-1,11
 216 700 216 700 360 700 c 0,0,1
495 325 m 0,12,13
 495 578 495 578 329 578 c 0,14,15
 253 578 253 578 209.5 521.5 c 128,-1,16
 166 465 166 465 166 352.5 c 128,-1,17
 166 240 166 240 212.5 167.5 c 128,-1,18
 259 95 259 95 335.5 95 c 128,-1,19
 412 95 412 95 453.5 156.5 c 128,-1,20
 495 218 495 218 495 325 c 0,12,13
EndSplineSet
EndChar

StartChar: P
Encoding: 80 80 51
Width: 509
GlyphClass: 2
Flags: W
LayerCount: 2
Fore
SplineSet
297 690 m 2,0,1
 393 690 393 690 450 635.5 c 128,-1,2
 507 581 507 581 507 486 c 128,-1,3
 507 391 507 391 435 323.5 c 128,-1,4
 363 256 363 256 259 256 c 2,5,-1
 202 256 l 1,6,-1
 214 0 l 1,7,-1
 80 0 l 1,8,-1
 92 243 l 1,9,-1
 80 690 l 1,10,-1
 297 690 l 2,0,1
261 589 m 2,11,-1
 212 589 l 1,12,-1
 205 353 l 1,13,-1
 273 353 l 2,14,15
 323 353 323 353 350.5 386 c 128,-1,16
 378 419 378 419 378 480 c 0,17,18
 378 589 378 589 261 589 c 2,11,-1
EndSplineSet
EndChar

StartChar: Q
Encoding: 81 81 52
Width: 680
GlyphClass: 2
Flags: W
LayerCount: 2
Fore
SplineSet
360 700 m 0,0,1
 478 700 478 700 554.5 610 c 128,-1,2
 631 520 631 520 631 381 c 0,3,4
 631 219 631 219 531 101 c 1,5,-1
 663 -56 l 1,6,-1
 564 -129 l 1,7,-1
 449 31 l 1,8,9
 379 -11 379 -11 301 -11 c 0,10,11
 186 -11 186 -11 108 81.5 c 128,-1,12
 30 174 30 174 30 310 c 0,13,14
 30 480 30 480 123 590 c 128,-1,15
 216 700 216 700 360 700 c 0,0,1
495 325 m 0,16,17
 495 578 495 578 329 578 c 0,18,19
 253 578 253 578 209.5 521.5 c 128,-1,20
 166 465 166 465 166 352.5 c 128,-1,21
 166 240 166 240 212.5 167.5 c 128,-1,22
 259 95 259 95 340 95 c 0,23,24
 370 95 370 95 396 107 c 1,25,-1
 277 274 l 1,26,-1
 346 322 l 1,27,-1
 466 179 l 1,28,29
 495 240 495 240 495 325 c 0,16,17
EndSplineSet
EndChar

StartChar: R
Encoding: 82 82 53
Width: 579
GlyphClass: 2
Flags: W
LayerCount: 2
Fore
SplineSet
259 266 m 2,0,-1
 202 266 l 1,1,-1
 202 260 l 1,2,-1
 214 0 l 1,3,-1
 80 0 l 1,4,-1
 92 243 l 1,5,-1
 80 690 l 1,6,-1
 297 690 l 2,7,8
 393 690 393 690 450 638 c 128,-1,9
 507 586 507 586 507 500 c 0,10,11
 507 435 507 435 473.5 381.5 c 128,-1,12
 440 328 440 328 383 297 c 1,13,-1
 557 51 l 1,14,-1
 436 -11 l 1,15,-1
 280 267 l 1,16,17
 273 266 273 266 259 266 c 2,0,-1
261 589 m 2,18,-1
 212 589 l 1,19,-1
 205 363 l 1,20,-1
 273 363 l 2,21,22
 323 363 323 363 350.5 396 c 128,-1,23
 378 429 378 429 378 490 c 0,24,25
 378 589 378 589 261 589 c 2,18,-1
EndSplineSet
EndChar

StartChar: S
Encoding: 83 83 54
Width: 503
GlyphClass: 2
Flags: W
LayerCount: 2
Fore
SplineSet
91 199 m 1,0,1
 176 114 176 114 261 114 c 0,2,3
 305 114 305 114 331.5 134.5 c 128,-1,4
 358 155 358 155 358 187.5 c 128,-1,5
 358 220 358 220 326 242.5 c 128,-1,6
 294 265 294 265 248.5 282 c 128,-1,7
 203 299 203 299 158 320.5 c 128,-1,8
 113 342 113 342 81 382 c 128,-1,9
 49 422 49 422 49 479 c 0,10,11
 49 569 49 569 124 634.5 c 128,-1,12
 199 700 199 700 302 700 c 0,13,14
 349 700 349 700 393 690 c 128,-1,15
 437 680 437 680 478 661 c 1,16,-1
 410 515 l 1,17,18
 382 537 382 537 333.5 555.5 c 128,-1,19
 285 574 285 574 248.5 574 c 128,-1,20
 212 574 212 574 189.5 556.5 c 128,-1,21
 167 539 167 539 167 510 c 128,-1,22
 167 481 167 481 199 458.5 c 128,-1,23
 231 436 231 436 276.5 419 c 128,-1,24
 322 402 322 402 367.5 381.5 c 128,-1,25
 413 361 413 361 445 321 c 128,-1,26
 477 281 477 281 477 224 c 0,27,28
 477 130 477 130 402 59.5 c 128,-1,29
 327 -11 327 -11 227 -11 c 0,30,31
 152 -11 152 -11 94 25 c 0,32,33
 43 56 43 56 22 80 c 1,34,-1
 13 91 l 1,35,-1
 91 199 l 1,0,1
EndSplineSet
EndChar

StartChar: T
Encoding: 84 84 55
Width: 486
GlyphClass: 2
Flags: W
LayerCount: 2
Fore
SplineSet
0 575 m 1,0,-1
 11 690 l 1,1,-1
 486 690 l 1,2,-1
 475 575 l 1,3,-1
 301 590 l 1,4,-1
 297 260 l 1,5,-1
 309 0 l 1,6,-1
 169 0 l 1,7,-1
 181 243 l 1,8,-1
 177 589 l 1,9,-1
 0 575 l 1,0,-1
EndSplineSet
EndChar

StartChar: U
Encoding: 85 85 56
Width: 651
GlyphClass: 2
Flags: W
LayerCount: 2
Fore
SplineSet
291 -11 m 0,0,1
 201 -11 201 -11 139.5 44 c 128,-1,2
 78 99 78 99 78 180 c 1,3,-1
 68 670 l 1,4,-1
 212 695 l 1,5,-1
 196 257 l 1,6,7
 196 187 196 187 228.5 148 c 128,-1,8
 261 109 261 109 329 109 c 128,-1,9
 397 109 397 109 427 147 c 128,-1,10
 457 185 457 185 457 278 c 1,11,-1
 445 670 l 1,12,-1
 585 695 l 1,13,-1
 574 255 l 1,14,15
 574 137 574 137 495 63 c 128,-1,16
 416 -11 416 -11 291 -11 c 0,0,1
EndSplineSet
EndChar

StartChar: V
Encoding: 86 86 57
Width: 599
GlyphClass: 2
Flags: W
LayerCount: 2
Fore
SplineSet
296 125 m 1,0,-1
 308 125 l 1,1,-1
 358 297 l 1,2,-1
 463 696 l 1,3,-1
 584 678 l 1,4,-1
 465 281 l 1,5,-1
 387 8 l 1,6,-1
 202 -5 l 1,7,-1
 131 262 l 1,8,-1
 15 671 l 1,9,-1
 157 696 l 1,10,-1
 248 310 l 1,11,-1
 296 125 l 1,0,-1
EndSplineSet
EndChar

StartChar: W
Encoding: 87 87 58
Width: 925
GlyphClass: 2
Flags: W
LayerCount: 2
Fore
SplineSet
641 125 m 1,0,-1
 652 125 l 1,1,-1
 699 297 l 1,2,-1
 795 696 l 1,3,-1
 908 678 l 1,4,-1
 799 281 l 1,5,-1
 732 8 l 1,6,-1
 549 -5 l 1,7,-1
 492 262 l 1,8,-1
 458 394 l 1,9,-1
 428 281 l 1,10,-1
 361 8 l 1,11,-1
 181 -5 l 1,12,-1
 121 262 l 1,13,-1
 17 671 l 1,14,-1
 147 696 l 1,15,-1
 228 310 l 1,16,-1
 273 125 l 1,17,-1
 284 125 l 1,18,-1
 337 310 l 1,19,-1
 410 580 l 1,20,-1
 387 671 l 1,21,-1
 519 696 l 1,22,-1
 598 310 l 1,23,-1
 641 125 l 1,0,-1
EndSplineSet
EndChar

StartChar: X
Encoding: 88 88 59
Width: 598
GlyphClass: 2
Flags: W
LayerCount: 2
Fore
SplineSet
463 -9 m 1,0,-1
 296 250 l 1,1,-1
 135 -10 l 1,2,-1
 27 43 l 1,3,-1
 224 343 l 1,4,-1
 12 615 l 1,5,-1
 136 696 l 1,6,-1
 297 446 l 1,7,-1
 452 700 l 1,8,-1
 557 638 l 1,9,-1
 374 353 l 1,10,-1
 586 69 l 1,11,-1
 463 -9 l 1,0,-1
EndSplineSet
EndChar

StartChar: Y
Encoding: 89 89 60
Width: 569
GlyphClass: 2
Flags: W
LayerCount: 2
Fore
SplineSet
283 395 m 1,0,-1
 295 395 l 1,1,-1
 369 531 l 1,2,-1
 444 696 l 1,3,-1
 566 678 l 1,4,-1
 474 511 l 1,5,-1
 344 257 l 1,6,-1
 355 0 l 1,7,-1
 215 0 l 1,8,-1
 225 240 l 1,9,-1
 99 496 l 1,10,-1
 3 671 l 1,11,-1
 144 696 l 1,12,-1
 209 544 l 1,13,-1
 283 395 l 1,0,-1
EndSplineSet
EndChar

StartChar: Z
Encoding: 90 90 61
Width: 542
GlyphClass: 2
Flags: W
LayerCount: 2
Fore
SplineSet
39 102 m 1,0,-1
 361 578 l 1,1,-1
 35 556 l 1,2,-1
 59 694 l 1,3,-1
 287 683 l 1,4,-1
 516 695 l 1,5,-1
 501 588 l 1,6,-1
 178 110 l 1,7,-1
 529 132 l 1,8,-1
 509 -6 l 1,9,-1
 268 5 l 1,10,-1
 22 -6 l 1,11,-1
 39 102 l 1,0,-1
EndSplineSet
EndChar

StartChar: bracketleft
Encoding: 91 91 62
Width: 278
GlyphClass: 2
Flags: W
LayerCount: 2
Fore
SplineSet
278 -132 m 1,0,-1
 69 -144 l 1,1,-1
 78 224 l 1,2,-1
 69 741 l 1,3,-1
 277 729 l 1,4,-1
 277 672 l 1,5,-1
 165 658 l 1,6,-1
 165 -61 l 1,7,-1
 278 -75 l 1,8,-1
 278 -132 l 1,0,-1
EndSplineSet
EndChar

StartChar: backslash
Encoding: 92 92 63
Width: 302
GlyphClass: 2
Flags: W
LayerCount: 2
Fore
SplineSet
293 -117 m 1,0,-1
 203 -133 l 1,1,-1
 -14 742 l 1,2,-1
 76 758 l 1,3,-1
 293 -117 l 1,0,-1
EndSplineSet
EndChar

StartChar: bracketright
Encoding: 93 93 64
Width: 278
GlyphClass: 2
Flags: W
LayerCount: 2
Fore
SplineSet
209 -144 m 1,0,-1
 0 -132 l 1,1,-1
 0 -75 l 1,2,-1
 113 -61 l 1,3,-1
 113 658 l 1,4,-1
 1 672 l 1,5,-1
 1 729 l 1,6,-1
 209 741 l 1,7,-1
 200 224 l 1,8,-1
 209 -144 l 1,0,-1
EndSplineSet
EndChar

StartChar: asciicircum
Encoding: 94 94 65
Width: 425
GlyphClass: 2
Flags: W
LayerCount: 2
Fore
SplineSet
17 299 m 1,0,-1
 25 390 l 1,1,-1
 408 390 l 1,2,-1
 400 299 l 1,3,-1
 17 299 l 1,0,-1
17 129 m 1,4,-1
 25 220 l 1,5,-1
 408 220 l 1,6,-1
 400 129 l 1,7,-1
 17 129 l 1,4,-1
EndSplineSet
EndChar

StartChar: underscore
Encoding: 95 95 66
Width: 425
GlyphClass: 2
Flags: W
LayerCount: 2
Fore
SplineSet
-8 -220 m 1,0,-1
 0 -131 l 1,1,-1
 433 -131 l 1,2,-1
 425 -220 l 1,3,-1
 -8 -220 l 1,0,-1
EndSplineSet
EndChar

StartChar: grave
Encoding: 96 96 67
Width: 244
GlyphClass: 2
Flags: W
LayerCount: 2
Fore
SplineSet
39 623 m 1,0,-1
 50 725 l 1,1,2
 178 677 178 677 279 647 c 1,3,-1
 274 575 l 1,4,-1
 39 623 l 1,0,-1
EndSplineSet
EndChar

StartChar: a
Encoding: 97 97 68
Width: 469
GlyphClass: 2
Flags: W
LayerCount: 2
Fore
SplineSet
61.5 37.5 m 128,-1,1
 24 75 24 75 24 138.5 c 128,-1,2
 24 202 24 202 82 248.5 c 128,-1,3
 140 295 140 295 223 295 c 2,4,-1
 291 295 l 1,5,-1
 291 312 l 2,6,7
 291 361 291 361 271 379 c 128,-1,8
 251 397 251 397 196 397 c 0,9,10
 173 397 173 397 141.5 387.5 c 128,-1,11
 110 378 110 378 71 358 c 1,12,-1
 42 437 l 1,13,14
 85 467 85 467 146.5 491 c 128,-1,15
 208 515 208 515 248 515 c 0,16,17
 405 515 405 515 405 363 c 2,18,-1
 405 167 l 2,19,20
 405 111 405 111 440 42 c 1,21,-1
 334 -3 l 1,22,23
 309 45 309 45 297 83 c 1,24,25
 242 0 242 0 158 0 c 0,26,0
 99 0 99 0 61.5 37.5 c 128,-1,1
200 102 m 0,27,28
 240 102 240 102 291 143 c 1,29,-1
 291 210 l 1,30,31
 238 222 238 222 205 222 c 0,32,33
 142 222 142 222 142 166 c 0,34,35
 142 137 142 137 158 119.5 c 128,-1,36
 174 102 174 102 200 102 c 0,27,28
EndSplineSet
EndChar

StartChar: b
Encoding: 98 98 69
Width: 499
GlyphClass: 2
Flags: W
LayerCount: 2
Fore
SplineSet
323 505 m 0,0,1
 390 505 390 505 432 447 c 128,-1,2
 474 389 474 389 474 298 c 0,3,4
 474 167 474 167 405.5 83.5 c 128,-1,5
 337 0 337 0 228 0 c 0,6,7
 178 0 178 0 60 16 c 1,8,-1
 70 243 l 1,9,-1
 58 749 l 1,10,-1
 195 774 l 1,11,-1
 182 516 l 1,12,-1
 182 408 l 1,13,14
 193 424 193 424 209 442 c 128,-1,15
 225 460 225 460 259 482.5 c 128,-1,16
 293 505 293 505 323 505 c 0,0,1
284 375 m 0,17,18
 238 375 238 375 182 347 c 1,19,-1
 182 260 l 1,20,-1
 188 113 l 1,21,22
 230 108 230 108 267 108 c 0,23,24
 363 108 363 108 363 241.5 c 128,-1,25
 363 375 363 375 284 375 c 0,17,18
EndSplineSet
EndChar

StartChar: c
Encoding: 99 99 70
Width: 385
GlyphClass: 2
Flags: W
LayerCount: 2
Fore
SplineSet
162 353.5 m 128,-1,1
 138 322 138 322 138 257 c 128,-1,2
 138 192 138 192 162.5 152.5 c 128,-1,3
 187 113 187 113 234 113 c 0,4,5
 258 113 258 113 281 128 c 128,-1,6
 304 143 304 143 316 158 c 1,7,-1
 327 174 l 1,8,-1
 377 122 l 1,9,10
 374 117 374 117 369.5 108 c 128,-1,11
 365 99 365 99 347.5 76 c 128,-1,12
 330 53 330 53 310.5 35.5 c 128,-1,13
 291 18 291 18 260 3.5 c 128,-1,14
 229 -11 229 -11 195 -11 c 0,15,16
 120 -11 120 -11 73 50 c 128,-1,17
 26 111 26 111 26 209 c 0,18,19
 26 331 26 331 97 423 c 128,-1,20
 168 515 168 515 263 515 c 0,21,22
 292 515 292 515 321 506.5 c 128,-1,23
 350 498 350 498 380 480 c 1,24,-1
 310 357 l 1,25,26
 274 385 274 385 230 385 c 128,-1,0
 186 385 186 385 162 353.5 c 128,-1,1
EndSplineSet
EndChar

StartChar: d
Encoding: 100 100 71
Width: 502
GlyphClass: 2
Flags: W
LayerCount: 2
Fore
SplineSet
322 98 m 1,0,1
 244 0 244 0 187 0 c 0,2,3
 116 0 116 0 70.5 58 c 128,-1,4
 25 116 25 116 25 207 c 0,5,6
 25 332 25 332 94.5 418 c 128,-1,7
 164 504 164 504 265 504 c 1,8,-1
 321 496 l 1,9,-1
 321 515 l 1,10,-1
 309 749 l 1,11,-1
 446 774 l 1,12,-1
 433 260 l 1,13,-1
 433 172 l 2,14,15
 433 112 433 112 463 34 c 1,16,-1
 355 -11 l 1,17,18
 326 49 326 49 322 98 c 1,0,1
160.5 159 m 128,-1,20
 184 123 184 123 228.5 123 c 128,-1,21
 273 123 273 123 321 159 c 1,22,-1
 321 375 l 1,23,24
 261 387 261 387 232 387 c 0,25,26
 187 387 187 387 162 355 c 128,-1,27
 137 323 137 323 137 259 c 128,-1,19
 137 195 137 195 160.5 159 c 128,-1,20
EndSplineSet
EndChar

StartChar: e
Encoding: 101 101 72
Width: 446
GlyphClass: 2
Flags: W
LayerCount: 2
Fore
SplineSet
238 102 m 0,0,1
 267 102 267 102 299 117 c 128,-1,2
 331 132 331 132 349 147 c 2,3,-1
 367 162 l 1,4,-1
 413 106 l 1,5,6
 403 89 403 89 382 67 c 128,-1,7
 361 45 361 45 339.5 29.5 c 128,-1,8
 318 14 318 14 282.5 1.5 c 128,-1,9
 247 -11 247 -11 209 -11 c 0,10,11
 128 -11 128 -11 77 50.5 c 128,-1,12
 26 112 26 112 26 209 c 0,13,14
 26 331 26 331 97 423 c 128,-1,15
 168 515 168 515 263 515 c 0,16,17
 336 515 336 515 376.5 474 c 128,-1,18
 417 433 417 433 417 359 c 0,19,20
 417 315 417 315 402 259 c 1,21,-1
 382 238 l 1,22,-1
 132 215 l 1,23,24
 149 102 149 102 238 102 c 0,0,1
238 412 m 0,25,26
 194 412 194 412 164 376.5 c 128,-1,27
 134 341 134 341 129 286 c 1,28,-1
 299 307 l 1,29,30
 302 330 302 330 302 345 c 0,31,32
 302 412 302 412 238 412 c 0,25,26
EndSplineSet
EndChar

StartChar: f
Encoding: 102 102 73
Width: 303
GlyphClass: 2
Flags: W
LayerCount: 2
Fore
SplineSet
325 651 m 1,0,1
 288 660 288 660 258 660 c 128,-1,2
 228 660 228 660 214.5 642 c 128,-1,3
 201 624 201 624 201 579 c 2,4,-1
 200 484 l 1,5,-1
 308 484 l 1,6,-1
 297 402 l 1,7,-1
 200 402 l 1,8,-1
 199 260 l 1,9,-1
 210 25 l 1,10,-1
 75 0 l 1,11,-1
 87 243 l 1,12,-1
 83 402 l 1,13,-1
 17 402 l 1,14,-1
 28 484 l 1,15,-1
 81 484 l 1,16,-1
 80 560 l 1,17,18
 80 649 80 649 135 711.5 c 128,-1,19
 190 774 190 774 269 774 c 0,20,21
 311 774 311 774 356 765 c 1,22,-1
 325 651 l 1,0,1
EndSplineSet
EndChar

StartChar: g
Encoding: 103 103 74
Width: 508
GlyphClass: 2
Flags: W
LayerCount: 2
Fore
SplineSet
23 -99 m 0,0,1
 23 -11 23 -11 187 39 c 1,2,3
 148 59 148 59 148 91 c 0,4,5
 148 104 148 104 158 117 c 128,-1,6
 168 130 168 130 187 144 c 1,7,-1
 187 152 l 1,8,9
 115 152 115 152 72.5 192 c 128,-1,10
 30 232 30 232 30 299 c 0,11,12
 30 386 30 386 101 450.5 c 128,-1,13
 172 515 172 515 269 515 c 0,14,15
 294 515 294 515 342 505 c 128,-1,16
 390 495 390 495 436 495 c 2,17,-1
 513 495 l 1,18,-1
 503 408 l 1,19,-1
 428 417 l 1,20,21
 438 388 438 388 438 351 c 128,-1,22
 438 314 438 314 420.5 277.5 c 128,-1,23
 403 241 403 241 378.5 219 c 128,-1,24
 354 197 354 197 329.5 180.5 c 128,-1,25
 305 164 305 164 287.5 151.5 c 128,-1,26
 270 139 270 139 270 129 c 0,27,28
 270 110 270 110 310 96 c 1,29,30
 416 53 416 53 453.5 23 c 128,-1,31
 491 -7 491 -7 491 -51 c 0,32,33
 491 -125 491 -125 416.5 -172.5 c 128,-1,34
 342 -220 342 -220 239 -220 c 128,-1,35
 136 -220 136 -220 79.5 -187 c 128,-1,36
 23 -154 23 -154 23 -99 c 0,0,1
325 321 m 0,37,38
 325 370 325 370 303 393 c 128,-1,39
 281 416 281 416 234 416 c 0,40,41
 143 416 143 416 143 326.5 c 128,-1,42
 143 237 143 237 240 237 c 0,43,44
 325 237 325 237 325 321 c 0,37,38
361 -66 m 0,45,46
 361 -48 361 -48 342 -32.5 c 128,-1,47
 323 -17 323 -17 274 4 c 1,48,49
 201 -16 201 -16 173.5 -33 c 128,-1,50
 146 -50 146 -50 146 -75 c 128,-1,51
 146 -100 146 -100 173.5 -115.5 c 128,-1,52
 201 -131 201 -131 250 -131 c 128,-1,53
 299 -131 299 -131 330 -113 c 128,-1,54
 361 -95 361 -95 361 -66 c 0,45,46
EndSplineSet
EndChar

StartChar: h
Encoding: 104 104 75
Width: 525
GlyphClass: 2
Flags: W
LayerCount: 2
Fore
SplineSet
338 345 m 128,-1,1
 326 368 326 368 282 368 c 128,-1,2
 238 368 238 368 182 333 c 1,3,-1
 182 260 l 1,4,-1
 193 25 l 1,5,-1
 58 0 l 1,6,-1
 70 243 l 1,7,-1
 58 749 l 1,8,-1
 195 774 l 1,9,-1
 182 515 l 1,10,-1
 182 398 l 1,11,12
 197 418 197 418 216 437 c 128,-1,13
 235 456 235 456 275 480 c 128,-1,14
 315 504 315 504 360.5 504 c 128,-1,15
 406 504 406 504 437 468.5 c 128,-1,16
 468 433 468 433 468 372 c 1,17,-1
 462 260 l 1,18,-1
 473 20 l 1,19,-1
 338 -5 l 1,20,-1
 350 253 l 1,21,0
 350 322 350 322 338 345 c 128,-1,1
EndSplineSet
EndChar

StartChar: i
Encoding: 105 105 76
Width: 244
GlyphClass: 2
Flags: W
LayerCount: 2
Fore
SplineSet
192 509 m 1,0,-1
 180 260 l 1,1,-1
 191 25 l 1,2,-1
 57 0 l 1,3,-1
 69 243 l 1,4,-1
 58 484 l 1,5,-1
 192 509 l 1,0,-1
77 715.5 m 128,-1,7
 103 742 103 742 137 742 c 128,-1,8
 171 742 171 742 189 723.5 c 128,-1,9
 207 705 207 705 207 668 c 128,-1,10
 207 631 207 631 181.5 604.5 c 128,-1,11
 156 578 156 578 122.5 578 c 128,-1,12
 89 578 89 578 70 600 c 128,-1,13
 51 622 51 622 51 655.5 c 128,-1,6
 51 689 51 689 77 715.5 c 128,-1,7
EndSplineSet
EndChar

StartChar: j
Encoding: 106 106 77
Width: 247
GlyphClass: 2
Flags: W
LayerCount: 2
Fore
SplineSet
3 -220 m 0,0,1
 -38 -220 -38 -220 -79 -211 c 1,2,-1
 -48 -97 l 1,3,4
 -14 -106 -14 -106 15.5 -106 c 128,-1,5
 45 -106 45 -106 58 -84 c 128,-1,6
 71 -62 71 -62 71 -5 c 2,7,-1
 70 243 l 1,8,-1
 59 484 l 1,9,-1
 193 509 l 1,10,-1
 181 260 l 1,11,-1
 192 34 l 1,12,13
 192 -70 192 -70 136 -145 c 128,-1,14
 80 -220 80 -220 3 -220 c 0,0,1
78 715.5 m 128,-1,16
 104 742 104 742 138.5 742 c 128,-1,17
 173 742 173 742 190.5 723.5 c 128,-1,18
 208 705 208 705 208 668.5 c 128,-1,19
 208 632 208 632 183 605 c 128,-1,20
 158 578 158 578 124.5 578 c 128,-1,21
 91 578 91 578 71.5 599 c 128,-1,22
 52 620 52 620 52 654.5 c 128,-1,15
 52 689 52 689 78 715.5 c 128,-1,16
EndSplineSet
EndChar

StartChar: k
Encoding: 107 107 78
Width: 482
GlyphClass: 2
Flags: W
LayerCount: 2
Fore
SplineSet
370 -10 m 1,0,-1
 182 267 l 1,1,-1
 182 260 l 1,2,-1
 193 25 l 1,3,-1
 58 0 l 1,4,-1
 70 243 l 1,5,-1
 58 749 l 1,6,-1
 195 774 l 1,7,-1
 182 291 l 1,8,-1
 382 510 l 1,9,-1
 476 446 l 1,10,-1
 301 282 l 1,11,-1
 484 66 l 1,12,-1
 370 -10 l 1,0,-1
EndSplineSet
EndChar

StartChar: l
Encoding: 108 108 79
Width: 253
GlyphClass: 2
Flags: W
LayerCount: 2
Fore
SplineSet
195 774 m 1,0,-1
 182 260 l 1,1,-1
 193 25 l 1,2,-1
 58 0 l 1,3,-1
 70 243 l 1,4,-1
 58 749 l 1,5,-1
 195 774 l 1,0,-1
EndSplineSet
EndChar

StartChar: m
Encoding: 109 109 80
Width: 803
GlyphClass: 2
Flags: W
LayerCount: 2
Fore
SplineSet
336 345 m 128,-1,1
 324 368 324 368 280 368 c 128,-1,2
 236 368 236 368 180 333 c 1,3,-1
 180 260 l 1,4,-1
 191 25 l 1,5,-1
 57 0 l 1,6,-1
 69 243 l 1,7,8
 65 377 65 377 47 483 c 1,9,-1
 168 509 l 1,10,11
 175 451 175 451 178 396 c 1,12,13
 193 416 193 416 212 435.5 c 128,-1,14
 231 455 231 455 272 479.5 c 128,-1,15
 313 504 313 504 355 504 c 128,-1,16
 397 504 397 504 426 477 c 128,-1,17
 455 450 455 450 463 403 c 1,18,19
 546 504 546 504 631 504 c 0,20,21
 684 504 684 504 715 468.5 c 128,-1,22
 746 433 746 433 746 372 c 1,23,-1
 740 260 l 1,24,-1
 751 20 l 1,25,-1
 616 -5 l 1,26,-1
 628 253 l 1,27,28
 628 322 628 322 616 345 c 128,-1,29
 604 368 604 368 561 368 c 128,-1,30
 518 368 518 368 464 335 c 1,31,-1
 460 260 l 1,32,-1
 471 20 l 1,33,-1
 336 -5 l 1,34,-1
 348 253 l 1,35,0
 348 322 348 322 336 345 c 128,-1,1
EndSplineSet
EndChar

StartChar: n
Encoding: 110 110 81
Width: 523
GlyphClass: 2
Flags: W
LayerCount: 2
Fore
SplineSet
336 345 m 128,-1,1
 324 368 324 368 280 368 c 128,-1,2
 236 368 236 368 180 333 c 1,3,-1
 180 260 l 1,4,-1
 191 25 l 1,5,-1
 57 0 l 1,6,-1
 69 243 l 1,7,8
 65 377 65 377 47 483 c 1,9,-1
 168 509 l 1,10,11
 175 451 175 451 178 396 c 1,12,13
 193 416 193 416 212 435.5 c 128,-1,14
 231 455 231 455 272 479.5 c 128,-1,15
 313 504 313 504 358.5 504 c 128,-1,16
 404 504 404 504 435 468.5 c 128,-1,17
 466 433 466 433 466 372 c 1,18,-1
 460 260 l 1,19,-1
 471 20 l 1,20,-1
 336 -5 l 1,21,-1
 348 253 l 1,22,0
 348 322 348 322 336 345 c 128,-1,1
EndSplineSet
EndChar

StartChar: o
Encoding: 111 111 82
Width: 482
GlyphClass: 2
Flags: W
LayerCount: 2
Fore
SplineSet
97 426 m 128,-1,1
 166 515 166 515 258.5 515 c 128,-1,2
 351 515 351 515 402.5 455 c 128,-1,3
 454 395 454 395 454 296 c 0,4,5
 454 164 454 164 387.5 76.5 c 128,-1,6
 321 -11 321 -11 220 -11 c 0,7,8
 137 -11 137 -11 82.5 51.5 c 128,-1,9
 28 114 28 114 28 209 c 0,10,0
 28 337 28 337 97 426 c 128,-1,1
342 244 m 0,11,12
 342 389 342 389 243 389 c 0,13,14
 140 389 140 389 140 253 c 0,15,16
 140 182 140 182 169 142 c 128,-1,17
 198 102 198 102 245.5 102 c 128,-1,18
 293 102 293 102 317.5 138.5 c 128,-1,19
 342 175 342 175 342 244 c 0,11,12
EndSplineSet
EndChar

StartChar: p
Encoding: 112 112 83
Width: 501
GlyphClass: 2
Flags: W
LayerCount: 2
Fore
SplineSet
325 505 m 0,0,1
 389 505 389 505 432.5 449 c 128,-1,2
 476 393 476 393 476 298 c 0,3,4
 476 165 476 165 407.5 82.5 c 128,-1,5
 339 0 339 0 237 0 c 0,6,7
 216 0 216 0 190 3 c 1,8,-1
 195 -188 l 1,9,-1
 58 -213 l 1,10,-1
 71 243 l 1,11,-1
 72 243 l 1,12,13
 68 377 68 377 50 483 c 1,14,-1
 171 509 l 1,15,16
 177 456 177 456 181 404 c 1,17,18
 183 409 183 409 201.5 431.5 c 128,-1,19
 220 454 220 454 256 479.5 c 128,-1,20
 292 505 292 505 325 505 c 0,0,1
286 375 m 0,21,22
 233 375 233 375 183 346 c 1,23,-1
 183 260 l 1,24,-1
 187 117 l 1,25,26
 241 108 241 108 269 108 c 0,27,28
 365 108 365 108 365 241.5 c 128,-1,29
 365 375 365 375 286 375 c 0,21,22
EndSplineSet
EndChar

StartChar: q
Encoding: 113 113 84
Width: 503
GlyphClass: 2
Flags: W
LayerCount: 2
Fore
SplineSet
321 96 m 1,0,1
 247 0 247 0 183 0 c 128,-1,2
 119 0 119 0 72 56 c 128,-1,3
 25 112 25 112 25 207 c 0,4,5
 25 332 25 332 94.5 418 c 128,-1,6
 164 504 164 504 265 504 c 1,7,-1
 360 491 l 1,8,-1
 445 515 l 1,9,-1
 433 260 l 1,10,-1
 445 -188 l 1,11,-1
 308 -213 l 1,12,-1
 321 -11 l 1,13,-1
 321 96 l 1,0,1
137 263 m 0,14,15
 137 123 137 123 228 123 c 0,16,17
 273 123 273 123 321 159 c 1,18,-1
 321 243 l 1,19,-1
 314 377 l 1,20,21
 252 387 252 387 232 387 c 0,22,23
 188 387 188 387 162.5 356.5 c 128,-1,24
 137 326 137 326 137 263 c 0,14,15
EndSplineSet
EndChar

StartChar: r
Encoding: 114 114 85
Width: 356
GlyphClass: 2
Flags: W
LayerCount: 2
Fore
SplineSet
47 483 m 1,0,-1
 168 509 l 1,1,2
 177 432 177 432 180 363 c 1,3,4
 271 504 271 504 351 504 c 1,5,-1
 340 348 l 1,6,7
 282 348 282 348 248.5 337.5 c 128,-1,8
 215 327 215 327 180 296 c 1,9,-1
 180 260 l 1,10,-1
 191 25 l 1,11,-1
 57 0 l 1,12,-1
 69 243 l 1,13,14
 65 377 65 377 47 483 c 1,0,-1
EndSplineSet
EndChar

StartChar: s
Encoding: 115 115 86
Width: 394
GlyphClass: 2
Flags: W
LayerCount: 2
Fore
SplineSet
209 93 m 0,0,1
 261 93 261 93 261 139 c 0,2,3
 261 155 261 155 238.5 169 c 128,-1,4
 216 183 216 183 183.5 197 c 128,-1,5
 151 211 151 211 118.5 228.5 c 128,-1,6
 86 246 86 246 63.5 277 c 128,-1,7
 41 308 41 308 41 348 c 0,8,9
 41 415 41 415 100 465 c 128,-1,10
 159 515 159 515 236 515 c 0,11,12
 272 515 272 515 306.5 506.5 c 128,-1,13
 341 498 341 498 373 480 c 1,14,-1
 306 358 l 1,15,16
 299 364 299 364 288 373 c 128,-1,17
 277 382 277 382 246.5 396.5 c 128,-1,18
 216 411 216 411 192.5 411 c 128,-1,19
 169 411 169 411 156.5 400.5 c 128,-1,20
 144 390 144 390 144 371.5 c 128,-1,21
 144 353 144 353 178.5 334.5 c 128,-1,22
 213 316 213 316 254 300.5 c 128,-1,23
 295 285 295 285 329.5 249.5 c 128,-1,24
 364 214 364 214 364 165 c 0,25,26
 364 95 364 95 306.5 42 c 128,-1,27
 249 -11 249 -11 174 -11 c 0,28,29
 126 -11 126 -11 84.5 10 c 128,-1,30
 43 31 43 31 25 52 c 2,31,-1
 7 73 l 1,32,-1
 86 165 l 1,33,34
 92 157 92 157 103 145 c 128,-1,35
 114 133 114 133 146.5 113 c 128,-1,36
 179 93 179 93 209 93 c 0,0,1
EndSplineSet
EndChar

StartChar: t
Encoding: 116 116 87
Width: 355
GlyphClass: 2
Flags: W
LayerCount: 2
Fore
SplineSet
97 484 m 1,0,-1
 97 593 l 1,1,-1
 232 619 l 1,2,-1
 219 484 l 1,3,-1
 340 484 l 1,4,-1
 329 402 l 1,5,-1
 215 402 l 1,6,-1
 210 193 l 1,7,8
 210 146 210 146 219 130.5 c 128,-1,9
 228 115 228 115 252 115 c 128,-1,10
 276 115 276 115 316 126 c 1,11,-1
 322 55 l 1,12,13
 256 0 256 0 206 0 c 128,-1,14
 156 0 156 0 124 36.5 c 128,-1,15
 92 73 92 73 92 132 c 1,16,-1
 98 244 l 1,17,-1
 97 402 l 1,18,-1
 28 402 l 1,19,-1
 39 484 l 1,20,-1
 97 484 l 1,0,-1
EndSplineSet
EndChar

StartChar: u
Encoding: 117 117 88
Width: 510
GlyphClass: 2
Flags: W
LayerCount: 2
Fore
SplineSet
178 0 m 0,0,1
 124 0 124 0 90.5 35.5 c 128,-1,2
 57 71 57 71 57 129 c 1,3,-1
 63 244 l 1,4,-1
 52 484 l 1,5,-1
 186 509 l 1,6,-1
 173 205 l 1,7,8
 173 162 173 162 188.5 142 c 128,-1,9
 204 122 204 122 238 122 c 128,-1,10
 272 122 272 122 332 156 c 1,11,-1
 332 216 l 1,12,-1
 321 479 l 1,13,-1
 456 504 l 1,14,-1
 444 254 l 1,15,-1
 445 172 l 2,16,17
 445 108 445 108 478 43 c 1,18,-1
 374 -3 l 1,19,20
 341 62 341 62 334 101 c 1,21,22
 244 0 244 0 178 0 c 0,0,1
EndSplineSet
EndChar

StartChar: v
Encoding: 118 118 89
Width: 460
GlyphClass: 2
Flags: W
LayerCount: 2
Fore
SplineSet
228 125 m 1,0,-1
 241 125 l 1,1,-1
 274 262 l 1,2,-1
 328 509 l 1,3,-1
 452 494 l 1,4,-1
 377 246 l 1,5,-1
 314 12 l 1,6,-1
 143 -3 l 1,7,-1
 84 240 l 1,8,-1
 12 483 l 1,9,-1
 148 508 l 1,10,-1
 191 288 l 1,11,-1
 228 125 l 1,0,-1
EndSplineSet
EndChar

StartChar: w
Encoding: 119 119 90
Width: 731
GlyphClass: 2
Flags: W
LayerCount: 2
Fore
SplineSet
504 125 m 1,0,-1
 517 125 l 1,1,-1
 549 262 l 1,2,-1
 601 509 l 1,3,-1
 723 494 l 1,4,-1
 650 246 l 1,5,-1
 589 12 l 1,6,-1
 425 -3 l 1,7,-1
 370 240 l 1,8,-1
 365 256 l 1,9,-1
 298 12 l 1,10,-1
 139 -3 l 1,11,-1
 81 240 l 1,12,-1
 12 483 l 1,13,-1
 143 508 l 1,14,-1
 184 288 l 1,15,-1
 220 125 l 1,16,-1
 233 125 l 1,17,-1
 319 410 l 1,18,-1
 298 483 l 1,19,-1
 427 508 l 1,20,-1
 469 288 l 1,21,-1
 504 125 l 1,0,-1
EndSplineSet
EndChar

StartChar: x
Encoding: 120 120 91
Width: 473
GlyphClass: 2
Flags: W
LayerCount: 2
Fore
SplineSet
353 -10 m 1,0,-1
 234 167 l 1,1,-1
 111 -10 l 1,2,-1
 12 45 l 1,3,-1
 169 248 l 1,4,-1
 20 432 l 1,5,-1
 131 508 l 1,6,-1
 240 339 l 1,7,-1
 358 510 l 1,8,-1
 455 450 l 1,9,-1
 306 256 l 1,10,-1
 464 66 l 1,11,-1
 353 -10 l 1,0,-1
EndSplineSet
EndChar

StartChar: y
Encoding: 121 121 92
Width: 465
GlyphClass: 2
Flags: W
LayerCount: 2
Fore
SplineSet
72 -193 m 1,0,-1
 175 38 l 1,1,-1
 101 240 l 1,2,-1
 0 483 l 1,3,-1
 133 508 l 1,4,-1
 197 295 l 1,5,-1
 230 194 l 1,6,-1
 243 194 l 1,7,-1
 267 267 l 1,8,-1
 339 509 l 1,9,-1
 462 494 l 1,10,-1
 285 29 l 1,11,-1
 201 -220 l 1,12,-1
 72 -193 l 1,0,-1
EndSplineSet
EndChar

StartChar: z
Encoding: 122 122 93
Width: 417
GlyphClass: 2
Flags: W
LayerCount: 2
Fore
SplineSet
41 99 m 1,0,-1
 252 400 l 1,1,-1
 31 385 l 1,2,-1
 54 511 l 1,3,-1
 225 500 l 1,4,-1
 392 512 l 1,5,-1
 375 408 l 1,6,-1
 163 106 l 1,7,-1
 406 120 l 1,8,-1
 384 -6 l 1,9,-1
 214 5 l 1,10,-1
 24 -6 l 1,11,-1
 41 99 l 1,0,-1
EndSplineSet
EndChar

StartChar: braceleft
Encoding: 123 123 94
Width: 278
GlyphClass: 2
Flags: W
LayerCount: 2
Fore
SplineSet
83 350 m 128,-1,1
 97 364 97 364 97 389.5 c 128,-1,2
 97 415 97 415 75.5 487 c 128,-1,3
 54 559 54 559 54 583 c 0,4,5
 54 662 54 662 105.5 700 c 128,-1,6
 157 738 157 738 263 738 c 1,7,-1
 253 664 l 1,8,9
 195 664 195 664 175 649.5 c 128,-1,10
 155 635 155 635 155 596 c 128,-1,11
 155 557 155 557 172.5 503.5 c 128,-1,12
 190 450 190 450 190 414.5 c 128,-1,13
 190 379 190 379 173.5 346 c 128,-1,14
 157 313 157 313 131 297 c 1,15,16
 157 281 157 281 173.5 248 c 128,-1,17
 190 215 190 215 190 179.5 c 128,-1,18
 190 144 190 144 172.5 90.5 c 128,-1,19
 155 37 155 37 155 -2 c 128,-1,20
 155 -41 155 -41 177 -55.5 c 128,-1,21
 199 -70 199 -70 263 -70 c 1,22,-1
 253 -144 l 1,23,24
 152 -144 152 -144 103 -106 c 128,-1,25
 54 -68 54 -68 54 11 c 0,26,27
 54 35 54 35 75.5 107 c 128,-1,28
 97 179 97 179 97 204 c 0,29,30
 97 259 97 259 25 266 c 1,31,-1
 35 328 l 1,32,0
 69 336 69 336 83 350 c 128,-1,1
EndSplineSet
EndChar

StartChar: bar
Encoding: 124 124 95
Width: 251
GlyphClass: 2
Flags: W
LayerCount: 2
Fore
SplineSet
80 753 m 1,0,-1
 171 761 l 1,1,-1
 171 -136 l 1,2,-1
 80 -144 l 1,3,-1
 80 753 l 1,0,-1
EndSplineSet
EndChar

StartChar: braceright
Encoding: 125 125 96
Width: 278
GlyphClass: 2
Flags: W
LayerCount: 2
Fore
SplineSet
181 204 m 128,-1,1
 181 179 181 179 202.5 107 c 128,-1,2
 224 35 224 35 224 11 c 0,3,4
 224 -68 224 -68 172.5 -106 c 128,-1,5
 121 -144 121 -144 15 -144 c 1,6,-1
 25 -70 l 1,7,8
 83 -70 83 -70 103 -55.5 c 128,-1,9
 123 -41 123 -41 123 -2 c 128,-1,10
 123 37 123 37 105.5 90.5 c 128,-1,11
 88 144 88 144 88 179 c 128,-1,12
 88 214 88 214 104.5 247 c 128,-1,13
 121 280 121 280 147 297 c 1,14,15
 121 313 121 313 104.5 345.5 c 128,-1,16
 88 378 88 378 88 414 c 128,-1,17
 88 450 88 450 105.5 503.5 c 128,-1,18
 123 557 123 557 123 596 c 128,-1,19
 123 635 123 635 101 649.5 c 128,-1,20
 79 664 79 664 15 664 c 1,21,-1
 25 738 l 1,22,23
 126 738 126 738 175 700 c 128,-1,24
 224 662 224 662 224 583 c 0,25,26
 224 559 224 559 202.5 487 c 128,-1,27
 181 415 181 415 181 390 c 0,28,29
 181 335 181 335 253 328 c 1,30,-1
 243 266 l 1,31,32
 209 257 209 257 195 243 c 128,-1,0
 181 229 181 229 181 204 c 128,-1,1
EndSplineSet
EndChar

StartChar: asciitilde
Encoding: 126 126 97
Width: 425
GlyphClass: 2
Flags: W
LayerCount: 2
Fore
SplineSet
131 324 m 1,0,-1
 304 282 l 1,1,-1
 380 326 l 1,2,-1
 408 281 l 1,3,4
 377 248 377 248 344 221.5 c 128,-1,5
 311 195 311 195 293 195 c 1,6,-1
 120 237 l 1,7,-1
 44 193 l 1,8,-1
 16 238 l 1,9,10
 47 271 47 271 80 297.5 c 128,-1,11
 113 324 113 324 131 324 c 1,0,-1
EndSplineSet
EndChar

StartChar: exclamdown
Encoding: 161 161 99
Width: 247
GlyphClass: 2
Flags: W
LayerCount: 2
Fore
SplineSet
183 385.5 m 128,-1,1
 159 361 159 361 127 361 c 128,-1,2
 95 361 95 361 78.5 378.5 c 128,-1,3
 62 396 62 396 62 430 c 128,-1,4
 62 464 62 464 85 489.5 c 128,-1,5
 108 515 108 515 139.5 515 c 128,-1,6
 171 515 171 515 189 496 c 128,-1,7
 207 477 207 477 207 443.5 c 128,-1,0
 207 410 207 410 183 385.5 c 128,-1,1
20 -191 m 1,8,-1
 76 252 l 1,9,-1
 171 266 l 1,10,-1
 171 -166 l 1,11,-1
 20 -191 l 1,8,-1
EndSplineSet
EndChar

StartChar: cent
Encoding: 162 162 100
Width: 369
GlyphClass: 2
Flags: W
LayerCount: 2
Fore
SplineSet
28 225 m 0,0,1
 28 332 28 332 87.5 416.5 c 128,-1,2
 147 501 147 501 230 513 c 1,3,-1
 249 644 l 1,4,-1
 296 642 l 1,5,-1
 277 513 l 1,6,7
 324 507 324 507 364 482 c 1,8,-1
 297 365 l 1,9,10
 281 377 281 377 258 385 c 1,11,-1
 222 133 l 1,12,-1
 225 133 l 2,13,14
 248 133 248 133 270.5 147.5 c 128,-1,15
 293 162 293 162 304 176 c 1,16,-1
 314 191 l 1,17,-1
 361 142 l 1,18,19
 357 131 357 131 339 106.5 c 128,-1,20
 321 82 321 82 304 66 c 0,21,22
 258 22 258 22 205 17 c 1,23,-1
 184 -126 l 1,24,-1
 137 -123 l 1,25,-1
 158 19 l 1,26,27
 99 31 99 31 63.5 86.5 c 128,-1,28
 28 142 28 142 28 225 c 0,0,1
134 280 m 0,29,30
 134 182 134 182 177 148 c 1,31,-1
 212 391 l 1,32,33
 175 388 175 388 154.5 358.5 c 128,-1,34
 134 329 134 329 134 280 c 0,29,30
EndSplineSet
EndChar

StartChar: sterling
Encoding: 163 163 101
Width: 469
GlyphClass: 2
Flags: W
LayerCount: 2
Fore
SplineSet
157 109 m 1,0,-1
 180 110 l 1,1,2
 217 110 217 110 264 98 c 128,-1,3
 311 86 311 86 330.5 86 c 128,-1,4
 350 86 350 86 377 96.5 c 128,-1,5
 404 107 404 107 436 128 c 1,6,-1
 469 53 l 1,7,8
 419 3 419 3 367 -15 c 0,9,10
 344 -23 344 -23 316 -23 c 128,-1,11
 288 -23 288 -23 234 -2 c 128,-1,12
 180 19 180 19 152 19 c 0,13,14
 104 19 104 19 16 -11 c 1,15,-1
 31 84 l 1,16,17
 67 108 67 108 83 131 c 0,18,19
 117 181 117 181 117 233 c 1,20,-1
 110 279 l 1,21,-1
 44 279 l 1,22,-1
 55 361 l 1,23,-1
 99 361 l 1,24,-1
 90 426 l 1,25,26
 90 520 90 520 153.5 585 c 128,-1,27
 217 650 217 650 309 650 c 0,28,29
 359 650 359 650 436 635 c 1,30,-1
 405 521 l 1,31,32
 344 536 344 536 298 536 c 128,-1,33
 252 536 252 536 231.5 515 c 128,-1,34
 211 494 211 494 211 445 c 1,35,-1
 219 361 l 1,36,-1
 383 361 l 1,37,-1
 372 279 l 1,38,-1
 226 279 l 1,39,-1
 229 250 l 1,40,41
 229 169 229 169 157 109 c 1,0,-1
EndSplineSet
EndChar

StartChar: currency
Encoding: 164 164 102
Width: 468
GlyphClass: 2
Flags: W
LayerCount: 2
Fore
SplineSet
93 186 m 1,0,1
 75 219 75 219 75 259.5 c 128,-1,2
 75 300 75 300 95 334 c 1,3,-1
 9 418 l 1,4,-1
 90 476 l 1,5,-1
 160 400 l 1,6,7
 194 418 194 418 232.5 418 c 128,-1,8
 271 418 271 418 307 400 c 1,9,-1
 387 489 l 1,10,-1
 448 405 l 1,11,-1
 372 335 l 1,12,13
 393 299 393 299 393 259 c 128,-1,14
 393 219 393 219 374 186 c 1,15,-1
 462 104 l 1,16,-1
 378 44 l 1,17,-1
 308 120 l 1,18,19
 274 100 274 100 233.5 100 c 128,-1,20
 193 100 193 100 156 121 c 1,21,-1
 76 32 l 1,22,-1
 16 118 l 1,23,-1
 93 186 l 1,0,1
153 259 m 128,-1,25
 153 226 153 226 176.5 202 c 128,-1,26
 200 178 200 178 233 178 c 128,-1,27
 266 178 266 178 290.5 202 c 128,-1,28
 315 226 315 226 315 259 c 128,-1,29
 315 292 315 292 290.5 316 c 128,-1,30
 266 340 266 340 233 340 c 128,-1,31
 200 340 200 340 176.5 316 c 128,-1,24
 153 292 153 292 153 259 c 128,-1,25
EndSplineSet
EndChar

StartChar: yen
Encoding: 165 165 103
Width: 569
GlyphClass: 2
Flags: W
LayerCount: 2
Fore
SplineSet
525 198 m 1,0,-1
 521 151 l 1,1,-1
 348 151 l 1,2,-1
 355 0 l 1,3,-1
 215 0 l 1,4,-1
 222 151 l 1,5,-1
 42 151 l 1,6,-1
 47 198 l 1,7,-1
 224 198 l 1,8,-1
 225 218 l 1,9,-1
 197 275 l 1,10,-1
 42 275 l 1,11,-1
 47 322 l 1,12,-1
 173 322 l 1,13,-1
 112 446 l 1,14,-1
 15 621 l 1,15,-1
 156 646 l 1,16,-1
 222 494 l 1,17,-1
 283 373 l 1,18,-1
 295 373 l 1,19,-1
 352 481 l 1,20,-1
 430 646 l 1,21,-1
 552 628 l 1,22,-1
 457 461 l 1,23,-1
 387 322 l 1,24,-1
 525 322 l 1,25,-1
 521 275 l 1,26,-1
 364 275 l 1,27,-1
 344 235 l 1,28,-1
 345 198 l 1,29,-1
 525 198 l 1,0,-1
EndSplineSet
EndChar

StartChar: brokenbar
Encoding: 166 166 104
Width: 251
GlyphClass: 2
Flags: W
LayerCount: 2
Fore
SplineSet
80 753 m 1,0,-1
 171 761 l 1,1,-1
 171 428 l 1,2,-1
 80 420 l 1,3,-1
 80 753 l 1,0,-1
80 187 m 1,4,-1
 171 195 l 1,5,-1
 171 -136 l 1,6,-1
 80 -144 l 1,7,-1
 80 187 l 1,4,-1
EndSplineSet
EndChar

StartChar: section
Encoding: 167 167 105
Width: 426
GlyphClass: 2
Flags: W
LayerCount: 2
Fore
SplineSet
149 -14 m 128,-1,1
 183 -34 183 -34 209 -34 c 128,-1,2
 235 -34 235 -34 248.5 -23.5 c 128,-1,3
 262 -13 262 -13 262 5 c 128,-1,4
 262 23 262 23 237.5 41 c 128,-1,5
 213 59 213 59 177.5 75 c 128,-1,6
 142 91 142 91 106.5 110.5 c 128,-1,7
 71 130 71 130 46.5 162.5 c 128,-1,8
 22 195 22 195 22 236 c 0,9,10
 22 323 22 323 112 385 c 1,11,12
 60 428 60 428 60 492 c 128,-1,13
 60 556 60 556 113 603 c 128,-1,14
 166 650 166 650 246 650 c 0,15,16
 279 650 279 650 312.5 641.5 c 128,-1,17
 346 633 346 633 381 615 c 1,18,-1
 324 493 l 1,19,20
 260 546 260 546 206 546 c 0,21,22
 185 546 185 546 173 536.5 c 128,-1,23
 161 527 161 527 161 511 c 128,-1,24
 161 495 161 495 185.5 478 c 128,-1,25
 210 461 210 461 245 445 c 128,-1,26
 280 429 280 429 315.5 409.5 c 128,-1,27
 351 390 351 390 375.5 357.5 c 128,-1,28
 400 325 400 325 400 283 c 0,29,30
 400 200 400 200 314 131 c 1,31,32
 363 89 363 89 363 25 c 128,-1,33
 363 -39 363 -39 311 -88.5 c 128,-1,34
 259 -138 259 -138 185 -138 c 0,35,36
 139 -138 139 -138 96 -117 c 128,-1,37
 53 -96 53 -96 33 -75 c 2,38,-1
 13 -54 l 1,39,-1
 84 38 l 1,40,41
 91 30 91 30 103 18 c 128,-1,0
 115 6 115 6 149 -14 c 128,-1,1
124 266 m 0,42,43
 124 242 124 242 152 223 c 0,44,45
 178 206 178 206 210 191.5 c 128,-1,46
 242 177 242 177 255 170 c 1,47,48
 299 217 299 217 299 252 c 0,49,50
 299 277 299 277 271 296 c 0,51,52
 251 310 251 310 217 326 c 128,-1,53
 183 342 183 342 171 348 c 1,54,55
 124 304 124 304 124 266 c 0,42,43
EndSplineSet
EndChar

StartChar: dieresis
Encoding: 168 168 106
Width: 244
GlyphClass: 2
Flags: W
LayerCount: 2
Fore
SplineSet
-2 706 m 128,-1,1
 19 728 19 728 47 728 c 128,-1,2
 75 728 75 728 90 712.5 c 128,-1,3
 105 697 105 697 105 666.5 c 128,-1,4
 105 636 105 636 84 614 c 128,-1,5
 63 592 63 592 35.5 592 c 128,-1,6
 8 592 8 592 -7.5 610 c 128,-1,7
 -23 628 -23 628 -23 656 c 128,-1,0
 -23 684 -23 684 -2 706 c 128,-1,1
160 706 m 128,-1,9
 181 728 181 728 210 728 c 0,10,11
 267 728 267 728 267 670 c 0,12,13
 267 636 267 636 246.5 614 c 128,-1,14
 226 592 226 592 198.5 592 c 128,-1,15
 171 592 171 592 155 610 c 128,-1,16
 139 628 139 628 139 656 c 128,-1,8
 139 684 139 684 160 706 c 128,-1,9
EndSplineSet
EndChar

StartChar: copyright
Encoding: 169 169 107
Width: 761
GlyphClass: 2
Flags: W
LayerCount: 2
Fore
SplineSet
380 700 m 128,-1,1
 529 700 529 700 634.5 596 c 128,-1,2
 740 492 740 492 740 345 c 128,-1,3
 740 198 740 198 634.5 93.5 c 128,-1,4
 529 -11 529 -11 380 -11 c 128,-1,5
 231 -11 231 -11 125.5 93.5 c 128,-1,6
 20 198 20 198 20 345 c 128,-1,7
 20 492 20 492 125.5 596 c 128,-1,0
 231 700 231 700 380 700 c 128,-1,1
588 135.5 m 128,-1,9
 674 222 674 222 674 344.5 c 128,-1,10
 674 467 674 467 588 553.5 c 128,-1,11
 502 640 502 640 380 640 c 128,-1,12
 258 640 258 640 172 553.5 c 128,-1,13
 86 467 86 467 86 344.5 c 128,-1,14
 86 222 86 222 172 135.5 c 128,-1,15
 258 49 258 49 380 49 c 128,-1,8
 502 49 502 49 588 135.5 c 128,-1,9
375 147 m 0,16,17
 312 147 312 147 269 199 c 128,-1,18
 226 251 226 251 226 336.5 c 128,-1,19
 226 422 226 422 277.5 485.5 c 128,-1,20
 329 549 329 549 404 549 c 0,21,22
 433 549 433 549 458 543 c 128,-1,23
 483 537 483 537 504 525 c 1,24,-1
 467 446 l 1,25,26
 430 477 430 477 389.5 477 c 128,-1,27
 349 477 349 477 326 445 c 128,-1,28
 303 413 303 413 303 353.5 c 128,-1,29
 303 294 303 294 326.5 256.5 c 128,-1,30
 350 219 350 219 391 219 c 0,31,32
 417 219 417 219 439 235.5 c 128,-1,33
 461 252 461 252 471 279 c 1,34,-1
 518 252 l 1,35,36
 498 202 498 202 460.5 174.5 c 128,-1,37
 423 147 423 147 375 147 c 0,16,17
EndSplineSet
EndChar

StartChar: ordfeminine
Encoding: 170 170 108
Width: 349
GlyphClass: 2
Flags: W
LayerCount: 2
Fore
SplineSet
44 342.5 m 128,-1,1
 16 369 16 369 16 414.5 c 128,-1,2
 16 460 16 460 59.5 493 c 128,-1,3
 103 526 103 526 166 526 c 2,4,-1
 213 526 l 1,5,-1
 213 535 l 2,6,7
 213 568 213 568 199 579.5 c 128,-1,8
 185 591 185 591 157 591 c 0,9,10
 113 591 113 591 51 563 c 1,11,-1
 28 624 l 1,12,13
 116 678 116 678 185 678 c 0,14,15
 304 678 304 678 304 570 c 2,16,-1
 304 435 l 2,17,18
 304 395 304 395 331 346 c 1,19,-1
 247 313 l 1,20,21
 230 344 230 344 220 371 c 1,22,23
 179 316 179 316 118 316 c 0,24,0
 72 316 72 316 44 342.5 c 128,-1,1
120.5 404 m 128,-1,26
 132 392 132 392 154 392 c 128,-1,27
 176 392 176 392 213 420 c 1,28,-1
 213 462 l 1,29,30
 173 469 173 469 153 469 c 0,31,32
 109 469 109 469 109 434 c 0,33,25
 109 416 109 416 120.5 404 c 128,-1,26
EndSplineSet
EndChar

StartChar: guillemotleft
Encoding: 171 171 109
Width: 437
GlyphClass: 2
Flags: W
LayerCount: 2
Fore
SplineSet
127 265 m 1,0,-1
 232 129 l 1,1,-1
 174 81 l 1,2,-1
 7 258 l 1,3,-1
 174 445 l 1,4,-1
 232 397 l 1,5,-1
 127 265 l 1,0,-1
317 265 m 1,6,-1
 422 129 l 1,7,-1
 364 81 l 1,8,-1
 197 258 l 1,9,-1
 364 445 l 1,10,-1
 422 397 l 1,11,-1
 317 265 l 1,6,-1
EndSplineSet
EndChar

StartChar: logicalnot
Encoding: 172 172 110
Width: 425
GlyphClass: 2
Flags: W
LayerCount: 2
Fore
SplineSet
371 336 m 1,0,-1
 371 89 l 1,1,-1
 271 80 l 1,2,-1
 271 245 l 1,3,-1
 0 245 l 1,4,-1
 8 336 l 1,5,-1
 371 336 l 1,0,-1
EndSplineSet
EndChar

StartChar: registered
Encoding: 174 174 111
Width: 426
GlyphClass: 2
Flags: W
LayerCount: 2
Fore
SplineSet
76.5 641 m 128,-1,1
 133 697 133 697 212.5 697 c 128,-1,2
 292 697 292 697 349 641 c 128,-1,3
 406 585 406 585 406 506.5 c 128,-1,4
 406 428 406 428 349 371.5 c 128,-1,5
 292 315 292 315 212.5 315 c 128,-1,6
 133 315 133 315 76.5 371.5 c 128,-1,7
 20 428 20 428 20 506.5 c 128,-1,0
 20 585 20 585 76.5 641 c 128,-1,1
313 405.5 m 128,-1,9
 355 447 355 447 355 506.5 c 128,-1,10
 355 566 355 566 313 607.5 c 128,-1,11
 271 649 271 649 212.5 649 c 128,-1,12
 154 649 154 649 112.5 607.5 c 128,-1,13
 71 566 71 566 71 506.5 c 128,-1,14
 71 447 71 447 112 405.5 c 128,-1,15
 153 364 153 364 212 364 c 128,-1,8
 271 364 271 364 313 405.5 c 128,-1,9
216 620 m 2,16,17
 246 620 246 620 265 603 c 128,-1,18
 284 586 284 586 284 560 c 0,19,20
 284 520 284 520 249 499 c 1,21,-1
 301 428 l 1,22,-1
 256 405 l 1,23,-1
 209 487 l 1,24,-1
 193 487 l 1,25,-1
 197 410 l 1,26,-1
 147 410 l 1,27,-1
 150 485 l 1,28,-1
 147 620 l 1,29,-1
 216 620 l 2,16,17
206 581 m 2,30,-1
 197 581 l 1,31,-1
 194 525 l 1,32,-1
 210 525 l 2,33,34
 235 525 235 525 235 556 c 0,35,36
 235 581 235 581 206 581 c 2,30,-1
EndSplineSet
EndChar

StartChar: macron
Encoding: 175 175 112
Width: 244
GlyphClass: 2
Flags: W
LayerCount: 2
Fore
SplineSet
0 603 m 1,0,-1
 8 688 l 1,1,-1
 244 688 l 1,2,-1
 236 603 l 1,3,-1
 0 603 l 1,0,-1
EndSplineSet
EndChar

StartChar: degree
Encoding: 176 176 113
Width: 291
GlyphClass: 2
Flags: W
LayerCount: 2
Fore
SplineSet
57 663.5 m 128,-1,1
 94 700 94 700 145.5 700 c 128,-1,2
 197 700 197 700 234 663.5 c 128,-1,3
 271 627 271 627 271 576 c 128,-1,4
 271 525 271 525 234 488.5 c 128,-1,5
 197 452 197 452 145.5 452 c 128,-1,6
 94 452 94 452 57 488.5 c 128,-1,7
 20 525 20 525 20 576 c 128,-1,0
 20 627 20 627 57 663.5 c 128,-1,1
191 529.5 m 128,-1,9
 211 549 211 549 211 575.5 c 128,-1,10
 211 602 211 602 191.5 621.5 c 128,-1,11
 172 641 172 641 145.5 641 c 128,-1,12
 119 641 119 641 99.5 621.5 c 128,-1,13
 80 602 80 602 80 575.5 c 128,-1,14
 80 549 80 549 99.5 529.5 c 128,-1,15
 119 510 119 510 145 510 c 128,-1,8
 171 510 171 510 191 529.5 c 128,-1,9
EndSplineSet
EndChar

StartChar: plusminus
Encoding: 177 177 114
Width: 425
GlyphClass: 2
Flags: W
LayerCount: 2
Fore
SplineSet
162 306 m 1,0,-1
 162 453 l 1,1,-1
 262 462 l 1,2,-1
 262 306 l 1,3,-1
 408 306 l 1,4,-1
 400 215 l 1,5,-1
 262 215 l 1,6,-1
 262 69 l 1,7,-1
 162 60 l 1,8,-1
 162 215 l 1,9,-1
 17 215 l 1,10,-1
 25 306 l 1,11,-1
 162 306 l 1,0,-1
17 -91 m 1,12,-1
 25 0 l 1,13,-1
 408 0 l 1,14,-1
 400 -91 l 1,15,-1
 17 -91 l 1,12,-1
EndSplineSet
EndChar

StartChar: twosuperior
Encoding: 178 178 115
Width: 379
GlyphClass: 2
Flags: W
LayerCount: 2
Fore
SplineSet
219 643 m 0,0,1
 219 659 219 659 210.5 665 c 128,-1,2
 202 671 202 671 177.5 671 c 128,-1,3
 153 671 153 671 119 659.5 c 128,-1,4
 85 648 85 648 45 626 c 1,5,-1
 39 626 l 1,6,-1
 30 632 l 1,7,-1
 49 732 l 1,8,-1
 52 736 l 1,9,10
 128 774 128 774 191.5 774 c 128,-1,11
 255 774 255 774 294 742.5 c 128,-1,12
 333 711 333 711 333 659 c 0,13,14
 333 592 333 592 260 517 c 1,15,-1
 155 414 l 1,16,-1
 360 425 l 1,17,-1
 346 317 l 1,18,-1
 191 323 l 1,19,-1
 15 318 l 1,20,-1
 29 402 l 1,21,-1
 178 566 l 2,22,23
 219 610 219 610 219 643 c 0,0,1
EndSplineSet
EndChar

StartChar: threesuperior
Encoding: 179 179 116
Width: 364
GlyphClass: 2
Flags: W
LayerCount: 2
Fore
SplineSet
50 754 m 1,0,1
 111 774 111 774 171.5 774 c 128,-1,2
 232 774 232 774 272.5 743.5 c 128,-1,3
 313 713 313 713 313 666 c 0,4,5
 313 604 313 604 256 571 c 1,6,7
 334 535 334 535 334 466 c 128,-1,8
 334 397 334 397 282.5 355.5 c 128,-1,9
 231 314 231 314 153 314 c 0,10,11
 116 314 116 314 81 324 c 128,-1,12
 46 334 46 334 12 353 c 1,13,-1
 8 361 l 1,14,-1
 39 445 l 1,15,-1
 49 448 l 1,16,-1
 53 447 l 1,17,18
 106 401 106 401 159 401 c 0,19,20
 191 401 191 401 210.5 414 c 128,-1,21
 230 427 230 427 230 447 c 0,22,23
 230 509 230 509 140 509 c 2,24,-1
 69 509 l 1,25,-1
 85 592 l 1,26,-1
 131 592 l 2,27,28
 204 592 204 592 204 646 c 0,29,30
 204 666 204 666 188.5 677.5 c 128,-1,31
 173 689 173 689 150 689 c 0,32,33
 105 689 105 689 58 665 c 2,34,-1
 43 657 l 1,35,-1
 38 657 l 1,36,-1
 30 663 l 1,37,-1
 44 748 l 1,38,-1
 48 753 l 1,39,-1
 50 754 l 1,0,1
EndSplineSet
EndChar

StartChar: acute
Encoding: 180 180 117
Width: 244
GlyphClass: 2
Flags: W
LayerCount: 2
Fore
SplineSet
198 725 m 1,0,-1
 209 623 l 1,1,2
 78 593 78 593 -26 575 c 1,3,-1
 -31 647 l 1,4,5
 55 672 55 672 198 725 c 1,0,-1
EndSplineSet
EndChar

StartChar: mu
Encoding: 181 181 118
AltUni2: 0003bc.ffffffff.0
Width: 521
GlyphClass: 2
Flags: W
LayerCount: 2
Fore
SplineSet
200 139 m 128,-1,1
 216 122 216 122 249.5 122 c 128,-1,2
 283 122 283 122 343 156 c 1,3,-1
 343 216 l 1,4,-1
 332 479 l 1,5,-1
 467 504 l 1,6,-1
 455 254 l 1,7,-1
 456 172 l 2,8,9
 456 108 456 108 489 43 c 1,10,-1
 385 -3 l 1,11,12
 352 62 352 62 345 101 c 1,13,14
 330 84 330 84 310.5 65.5 c 128,-1,15
 291 47 291 47 251 23.5 c 128,-1,16
 211 0 211 0 178 0 c 1,17,-1
 188 -189 l 1,18,-1
 66 -213 l 1,19,-1
 74 244 l 1,20,-1
 63 484 l 1,21,-1
 197 509 l 1,22,-1
 184 205 l 1,23,0
 184 156 184 156 200 139 c 128,-1,1
EndSplineSet
EndChar

StartChar: paragraph
Encoding: 182 182 119
Width: 514
GlyphClass: 2
Flags: W
LayerCount: 2
Fore
SplineSet
79 323.5 m 128,-1,1
 7 391 7 391 7 486 c 128,-1,2
 7 581 7 581 64 635.5 c 128,-1,3
 121 690 121 690 217 690 c 2,4,-1
 242 690 l 1,5,-1
 255 256 l 1,6,0
 151 256 151 256 79 323.5 c 128,-1,1
243 -10 m 0,7,8
 202 -10 202 -10 161 -1 c 1,9,-1
 193 119 l 1,10,11
 226 108 226 108 256 108 c 0,12,13
 318 108 318 108 318 209 c 1,14,-1
 304 670 l 1,15,-1
 446 695 l 1,16,-1
 432 244 l 1,17,18
 432 135 432 135 379 62.5 c 128,-1,19
 326 -10 326 -10 243 -10 c 0,7,8
EndSplineSet
EndChar

StartChar: periodcentered
Encoding: 183 183 120
Width: 205
GlyphClass: 2
Flags: W
LayerCount: 2
Fore
SplineSet
53.5 311.5 m 128,-1,1
 77 336 77 336 110 336 c 0,2,3
 175 336 175 336 175 270 c 0,4,5
 175 232 175 232 151.5 207 c 128,-1,6
 128 182 128 182 96.5 182 c 128,-1,7
 65 182 65 182 47.5 202.5 c 128,-1,8
 30 223 30 223 30 255 c 128,-1,0
 30 287 30 287 53.5 311.5 c 128,-1,1
EndSplineSet
EndChar

StartChar: cedilla
Encoding: 184 184 121
Width: 244
GlyphClass: 2
Flags: W
LayerCount: 2
Fore
SplineSet
134 -125 m 0,0,1
 134 -94 134 -94 65 -85 c 1,2,-1
 86 20 l 1,3,-1
 148 20 l 1,4,-1
 137 -40 l 1,5,6
 177 -50 177 -50 198.5 -69.5 c 128,-1,7
 220 -89 220 -89 220 -115 c 0,8,9
 220 -152 220 -152 179 -182 c 128,-1,10
 138 -212 138 -212 76 -220 c 1,11,-1
 44 -176 l 1,12,13
 134 -160 134 -160 134 -125 c 0,0,1
EndSplineSet
EndChar

StartChar: onesuperior
Encoding: 185 185 122
Width: 295
GlyphClass: 2
Flags: W
LayerCount: 2
Fore
SplineSet
220 778 m 1,0,-1
 210 504 l 1,1,-1
 218 321 l 1,2,-1
 102 321 l 1,3,-1
 110 493 l 1,4,-1
 104 650 l 1,5,-1
 6 649 l 1,6,-1
 6 709 l 1,7,-1
 220 778 l 1,0,-1
EndSplineSet
EndChar

StartChar: ordmasculine
Encoding: 186 186 123
Width: 361
GlyphClass: 2
Flags: W
LayerCount: 2
Fore
SplineSet
71 615.5 m 128,-1,1
 123 678 123 678 193 678 c 128,-1,2
 263 678 263 678 301.5 636.5 c 128,-1,3
 340 595 340 595 340 524 c 0,4,5
 340 431 340 431 290 369.5 c 128,-1,6
 240 308 240 308 170.5 308 c 128,-1,7
 101 308 101 308 60 352 c 128,-1,8
 19 396 19 396 19 463 c 0,9,0
 19 553 19 553 71 615.5 c 128,-1,1
181 585 m 0,10,11
 108 585 108 585 108 494 c 0,12,13
 108 447 108 447 128.5 419.5 c 128,-1,14
 149 392 149 392 183 392 c 0,15,16
 251 392 251 392 251 488.5 c 128,-1,17
 251 585 251 585 181 585 c 0,10,11
EndSplineSet
EndChar

StartChar: guillemotright
Encoding: 187 187 124
Width: 437
GlyphClass: 2
Flags: W
LayerCount: 2
Fore
SplineSet
120 261 m 1,0,-1
 15 397 l 1,1,-1
 73 445 l 1,2,-1
 240 268 l 1,3,-1
 73 81 l 1,4,-1
 15 129 l 1,5,-1
 120 261 l 1,0,-1
310 261 m 1,6,-1
 205 397 l 1,7,-1
 263 445 l 1,8,-1
 430 268 l 1,9,-1
 263 81 l 1,10,-1
 205 129 l 1,11,-1
 310 261 l 1,6,-1
EndSplineSet
EndChar

StartChar: onequarter
Encoding: 188 188 125
Width: 855
GlyphClass: 2
Flags: W
LayerCount: 2
Fore
SplineSet
223 703 m 1,0,-1
 213 429 l 1,1,-1
 221 246 l 1,2,-1
 105 246 l 1,3,-1
 113 418 l 1,4,-1
 107 575 l 1,5,-1
 9 574 l 1,6,-1
 9 634 l 1,7,-1
 223 703 l 1,0,-1
464 178 m 1,8,-1
 635 435 l 1,9,-1
 765 451 l 1,10,-1
 754 189 l 1,11,-1
 823 192 l 1,12,-1
 815 106 l 1,13,-1
 759 108 l 1,14,-1
 763 0 l 1,15,-1
 647 0 l 1,16,-1
 654 109 l 1,17,-1
 457 108 l 1,18,-1
 464 178 l 1,8,-1
652 324 m 1,19,-1
 566 190 l 1,20,-1
 655 191 l 1,21,-1
 652 324 l 1,19,-1
225 -119 m 1,22,-1
 146 -87 l 1,23,-1
 567 758 l 1,24,-1
 646 726 l 1,25,-1
 225 -119 l 1,22,-1
EndSplineSet
EndChar

StartChar: onehalf
Encoding: 189 189 126
Width: 867
GlyphClass: 2
Flags: W
LayerCount: 2
Fore
SplineSet
223 703 m 1,0,-1
 213 429 l 1,1,-1
 221 246 l 1,2,-1
 105 246 l 1,3,-1
 113 418 l 1,4,-1
 107 575 l 1,5,-1
 9 574 l 1,6,-1
 9 634 l 1,7,-1
 223 703 l 1,0,-1
704 322 m 0,8,9
 704 338 704 338 695.5 344 c 128,-1,10
 687 350 687 350 662.5 350 c 128,-1,11
 638 350 638 350 604 339 c 128,-1,12
 570 328 570 328 530 305 c 1,13,-1
 524 305 l 1,14,-1
 515 311 l 1,15,-1
 534 411 l 1,16,-1
 537 415 l 1,17,18
 613 453 613 453 676.5 453 c 128,-1,19
 740 453 740 453 779 421.5 c 128,-1,20
 818 390 818 390 818 338 c 0,21,22
 818 271 818 271 745 196 c 1,23,-1
 640 93 l 1,24,-1
 845 104 l 1,25,-1
 831 -4 l 1,26,-1
 676 2 l 1,27,-1
 500 -3 l 1,28,-1
 514 81 l 1,29,-1
 663 245 l 2,30,31
 704 289 704 289 704 322 c 0,8,9
225 -119 m 1,32,-1
 146 -87 l 1,33,-1
 567 758 l 1,34,-1
 646 726 l 1,35,-1
 225 -119 l 1,32,-1
EndSplineSet
EndChar

StartChar: threequarters
Encoding: 190 190 127
Width: 884
GlyphClass: 2
Flags: W
LayerCount: 2
Fore
SplineSet
493 178 m 1,0,-1
 664 435 l 1,1,-1
 794 451 l 1,2,-1
 783 189 l 1,3,-1
 852 192 l 1,4,-1
 844 106 l 1,5,-1
 788 108 l 1,6,-1
 792 0 l 1,7,-1
 676 0 l 1,8,-1
 683 109 l 1,9,-1
 486 108 l 1,10,-1
 493 178 l 1,0,-1
53 679 m 1,11,12
 114 699 114 699 174.5 699 c 128,-1,13
 235 699 235 699 275.5 668.5 c 128,-1,14
 316 638 316 638 316 591 c 0,15,16
 316 529 316 529 259 496 c 1,17,18
 337 460 337 460 337 391 c 128,-1,19
 337 322 337 322 285.5 280.5 c 128,-1,20
 234 239 234 239 156 239 c 0,21,22
 119 239 119 239 84 248.5 c 128,-1,23
 49 258 49 258 15 278 c 1,24,-1
 11 286 l 1,25,-1
 42 370 l 1,26,-1
 52 373 l 1,27,-1
 56 372 l 1,28,29
 109 326 109 326 162 326 c 0,30,31
 194 326 194 326 213.5 339 c 128,-1,32
 233 352 233 352 233 372 c 0,33,34
 233 434 233 434 143 434 c 2,35,-1
 72 434 l 1,36,-1
 88 517 l 1,37,-1
 134 517 l 2,38,39
 207 517 207 517 207 571 c 0,40,41
 207 591 207 591 191.5 602.5 c 128,-1,42
 176 614 176 614 153 614 c 0,43,44
 108 614 108 614 62 590 c 2,45,-1
 46 582 l 1,46,-1
 41 582 l 1,47,-1
 33 588 l 1,48,-1
 47 673 l 1,49,-1
 51 678 l 1,50,-1
 53 679 l 1,11,12
254 -119 m 1,51,-1
 175 -87 l 1,52,-1
 596 758 l 1,53,-1
 675 726 l 1,54,-1
 254 -119 l 1,51,-1
681 324 m 1,55,-1
 595 190 l 1,56,-1
 684 191 l 1,57,-1
 681 324 l 1,55,-1
EndSplineSet
EndChar

StartChar: questiondown
Encoding: 191 191 128
Width: 354
GlyphClass: 2
Flags: W
LayerCount: 2
Fore
SplineSet
252 385.5 m 128,-1,1
 228 361 228 361 196 361 c 128,-1,2
 164 361 164 361 147.5 378.5 c 128,-1,3
 131 396 131 396 131 430 c 128,-1,4
 131 464 131 464 154 489.5 c 128,-1,5
 177 515 177 515 208.5 515 c 128,-1,6
 240 515 240 515 258 496 c 128,-1,7
 276 477 276 477 276 443.5 c 128,-1,0
 276 410 276 410 252 385.5 c 128,-1,1
134 31 m 0,8,9
 134 -74 134 -74 354 -79 c 1,10,-1
 304 -191 l 1,11,12
 156 -178 156 -178 78 -128 c 128,-1,13
 0 -78 0 -78 0 5 c 0,14,15
 0 119 0 119 189 262 c 1,16,-1
 266 193 l 1,17,18
 134 108 134 108 134 31 c 0,8,9
EndSplineSet
EndChar

StartChar: Agrave
Encoding: 192 192 129
Width: 643
GlyphClass: 2
Flags: W
LayerCount: 2
Fore
SplineSet
484 -5 m 1,0,-1
 435 190 l 1,1,-1
 196 190 l 1,2,-1
 143 0 l 1,3,-1
 15 10 l 1,4,-1
 103 253 l 1,5,-1
 237 683 l 1,6,-1
 416 696 l 1,7,-1
 545 268 l 1,8,-1
 628 17 l 1,9,-1
 484 -5 l 1,0,-1
326 566 m 1,10,-1
 313 566 l 1,11,-1
 227 296 l 1,12,-1
 405 296 l 1,13,-1
 326 566 l 1,10,-1
204 808 m 1,14,-1
 215 910 l 1,15,16
 343 862 343 862 444 832 c 1,17,-1
 439 760 l 1,18,-1
 204 808 l 1,14,-1
EndSplineSet
EndChar

StartChar: Aacute
Encoding: 193 193 130
Width: 643
GlyphClass: 2
Flags: W
LayerCount: 2
Fore
SplineSet
484 -5 m 1,0,-1
 435 190 l 1,1,-1
 196 190 l 1,2,-1
 143 0 l 1,3,-1
 15 10 l 1,4,-1
 103 253 l 1,5,-1
 237 683 l 1,6,-1
 416 696 l 1,7,-1
 545 268 l 1,8,-1
 628 17 l 1,9,-1
 484 -5 l 1,0,-1
326 566 m 1,10,-1
 313 566 l 1,11,-1
 227 296 l 1,12,-1
 405 296 l 1,13,-1
 326 566 l 1,10,-1
433 910 m 1,14,-1
 444 808 l 1,15,16
 313 778 313 778 209 760 c 1,17,-1
 204 832 l 1,18,19
 290 857 290 857 433 910 c 1,14,-1
EndSplineSet
EndChar

StartChar: Acircumflex
Encoding: 194 194 131
Width: 643
GlyphClass: 2
Flags: W
LayerCount: 2
Fore
SplineSet
484 -5 m 1,0,-1
 435 190 l 1,1,-1
 196 190 l 1,2,-1
 143 0 l 1,3,-1
 15 10 l 1,4,-1
 103 253 l 1,5,-1
 237 683 l 1,6,-1
 416 696 l 1,7,-1
 545 268 l 1,8,-1
 628 17 l 1,9,-1
 484 -5 l 1,0,-1
326 566 m 1,10,-1
 313 566 l 1,11,-1
 227 296 l 1,12,-1
 405 296 l 1,13,-1
 326 566 l 1,10,-1
322 751 m 1,14,-1
 178 836 l 1,15,-1
 193 898 l 1,16,-1
 322 851 l 1,17,-1
 453 898 l 1,18,-1
 468 836 l 1,19,-1
 322 751 l 1,14,-1
EndSplineSet
EndChar

StartChar: Atilde
Encoding: 195 195 132
Width: 643
GlyphClass: 2
Flags: W
LayerCount: 2
Fore
SplineSet
484 -5 m 1,0,-1
 435 190 l 1,1,-1
 196 190 l 1,2,-1
 143 0 l 1,3,-1
 15 10 l 1,4,-1
 103 253 l 1,5,-1
 237 683 l 1,6,-1
 416 696 l 1,7,-1
 545 268 l 1,8,-1
 628 17 l 1,9,-1
 484 -5 l 1,0,-1
460 888 m 1,10,-1
 488 845 l 1,11,12
 460 811 460 811 429.5 785 c 128,-1,13
 399 759 399 759 383 759 c 1,14,15
 368 761 368 761 316.5 780 c 128,-1,16
 265 799 265 799 250 801 c 1,17,-1
 184 759 l 1,18,-1
 156 802 l 1,19,20
 184 836 184 836 214.5 862 c 128,-1,21
 245 888 245 888 261 888 c 1,22,23
 276 886 276 886 327.5 867 c 128,-1,24
 379 848 379 848 394 846 c 1,25,-1
 460 888 l 1,10,-1
326 566 m 1,26,-1
 313 566 l 1,27,-1
 227 296 l 1,28,-1
 405 296 l 1,29,-1
 326 566 l 1,26,-1
EndSplineSet
EndChar

StartChar: Adieresis
Encoding: 196 196 133
Width: 643
GlyphClass: 2
Flags: W
LayerCount: 2
Fore
SplineSet
484 -5 m 1,0,-1
 435 190 l 1,1,-1
 196 190 l 1,2,-1
 143 0 l 1,3,-1
 15 10 l 1,4,-1
 103 253 l 1,5,-1
 237 683 l 1,6,-1
 416 696 l 1,7,-1
 545 268 l 1,8,-1
 628 17 l 1,9,-1
 484 -5 l 1,0,-1
326 566 m 1,10,-1
 313 566 l 1,11,-1
 227 296 l 1,12,-1
 405 296 l 1,13,-1
 326 566 l 1,10,-1
360 891 m 128,-1,15
 381 913 381 913 410 913 c 0,16,17
 467 913 467 913 467 855 c 0,18,19
 467 821 467 821 446.5 799 c 128,-1,20
 426 777 426 777 398.5 777 c 128,-1,21
 371 777 371 777 355 795 c 128,-1,22
 339 813 339 813 339 841 c 128,-1,14
 339 869 339 869 360 891 c 128,-1,15
198 891 m 128,-1,24
 219 913 219 913 247 913 c 128,-1,25
 275 913 275 913 290 897.5 c 128,-1,26
 305 882 305 882 305 851.5 c 128,-1,27
 305 821 305 821 284 799 c 128,-1,28
 263 777 263 777 235.5 777 c 128,-1,29
 208 777 208 777 192.5 795 c 128,-1,30
 177 813 177 813 177 841 c 128,-1,23
 177 869 177 869 198 891 c 128,-1,24
EndSplineSet
EndChar

StartChar: Aring
Encoding: 197 197 134
Width: 643
GlyphClass: 2
Flags: W
LayerCount: 2
Fore
SplineSet
484 -5 m 1,0,-1
 435 190 l 1,1,-1
 196 190 l 1,2,-1
 143 0 l 1,3,-1
 15 10 l 1,4,-1
 103 253 l 1,5,-1
 237 683 l 1,6,-1
 416 696 l 1,7,-1
 545 268 l 1,8,-1
 628 17 l 1,9,-1
 484 -5 l 1,0,-1
243 925 m 128,-1,11
 276 959 276 959 325 959 c 128,-1,12
 374 959 374 959 404 931 c 128,-1,13
 434 903 434 903 434 852 c 128,-1,14
 434 801 434 801 401 766 c 128,-1,15
 368 731 368 731 320 731 c 128,-1,16
 272 731 272 731 241 762.5 c 128,-1,17
 210 794 210 794 210 842.5 c 128,-1,10
 210 891 210 891 243 925 c 128,-1,11
326 566 m 1,18,-1
 313 566 l 1,19,-1
 227 296 l 1,20,-1
 405 296 l 1,21,-1
 326 566 l 1,18,-1
361 888.5 m 128,-1,23
 347 903 347 903 323.5 903 c 128,-1,24
 300 903 300 903 284.5 886.5 c 128,-1,25
 269 870 269 870 269 845 c 128,-1,26
 269 820 269 820 283.5 803.5 c 128,-1,27
 298 787 298 787 320.5 787 c 128,-1,28
 343 787 343 787 359 805 c 128,-1,29
 375 823 375 823 375 848.5 c 128,-1,22
 375 874 375 874 361 888.5 c 128,-1,23
EndSplineSet
EndChar

StartChar: AE
Encoding: 198 198 135
Width: 853
GlyphClass: 2
Flags: W
LayerCount: 2
Fore
SplineSet
462 0 m 1,0,-1
 427 190 l 1,1,-1
 188 190 l 1,2,-1
 122 0 l 1,3,-1
 -5 10 l 1,4,-1
 100 253 l 1,5,-1
 267 690 l 1,6,-1
 767 690 l 1,7,-1
 756 583 l 1,8,-1
 460 583 l 1,9,-1
 501 406 l 1,10,-1
 745 406 l 1,11,-1
 734 300 l 1,12,-1
 525 300 l 1,13,-1
 575 106 l 1,14,-1
 810 106 l 1,15,-1
 799 0 l 1,16,-1
 462 0 l 1,0,-1
345 566 m 1,17,-1
 332 566 l 1,18,-1
 228 296 l 1,19,-1
 405 296 l 1,20,-1
 345 566 l 1,17,-1
EndSplineSet
EndChar

StartChar: Ccedilla
Encoding: 199 199 136
Width: 551
GlyphClass: 2
Flags: W
LayerCount: 2
Fore
SplineSet
321 -125 m 0,0,1
 321 -94 321 -94 252 -85 c 1,2,-1
 267 -9 l 1,3,4
 165 2 165 2 97.5 92.5 c 128,-1,5
 30 183 30 183 30 310 c 0,6,7
 30 475 30 475 121.5 588 c 128,-1,8
 213 701 213 701 346 701 c 0,9,10
 398 701 398 701 442.5 690.5 c 128,-1,11
 487 680 487 680 506 669 c 2,12,-1
 524 658 l 1,13,-1
 456 519 l 1,14,15
 433 539 433 539 391 556.5 c 128,-1,16
 349 574 349 574 315 574 c 0,17,18
 246 574 246 574 204.5 517 c 128,-1,19
 163 460 163 460 163 354.5 c 128,-1,20
 163 249 163 249 206 181.5 c 128,-1,21
 249 114 249 114 323 114 c 0,22,23
 371 114 371 114 410 144 c 128,-1,24
 449 174 449 174 465 224 c 1,25,-1
 548 176 l 1,26,27
 518 97 518 97 460.5 49 c 128,-1,28
 403 1 403 1 329 -8 c 1,29,-1
 324 -40 l 1,30,31
 364 -50 364 -50 385.5 -69.5 c 128,-1,32
 407 -89 407 -89 407 -115 c 0,33,34
 407 -152 407 -152 366 -182 c 128,-1,35
 325 -212 325 -212 263 -220 c 1,36,-1
 231 -176 l 1,37,38
 321 -160 321 -160 321 -125 c 0,0,1
EndSplineSet
EndChar

StartChar: Egrave
Encoding: 200 200 137
Width: 492
GlyphClass: 2
Flags: W
LayerCount: 2
Fore
SplineSet
80 0 m 1,0,-1
 92 243 l 1,1,-1
 80 690 l 1,2,-1
 455 690 l 1,3,-1
 444 583 l 1,4,-1
 219 583 l 1,5,-1
 213 406 l 1,6,-1
 413 406 l 1,7,-1
 402 300 l 1,8,-1
 209 300 l 1,9,-1
 208 260 l 1,10,-1
 215 106 l 1,11,-1
 457 106 l 1,12,-1
 446 0 l 1,13,-1
 80 0 l 1,0,-1
161 808 m 1,14,-1
 172 910 l 1,15,16
 300 862 300 862 401 832 c 1,17,-1
 396 760 l 1,18,-1
 161 808 l 1,14,-1
EndSplineSet
EndChar

StartChar: Eacute
Encoding: 201 201 138
Width: 492
GlyphClass: 2
Flags: W
LayerCount: 2
Fore
SplineSet
80 0 m 1,0,-1
 92 243 l 1,1,-1
 80 690 l 1,2,-1
 455 690 l 1,3,-1
 444 583 l 1,4,-1
 219 583 l 1,5,-1
 213 406 l 1,6,-1
 413 406 l 1,7,-1
 402 300 l 1,8,-1
 209 300 l 1,9,-1
 208 260 l 1,10,-1
 215 106 l 1,11,-1
 457 106 l 1,12,-1
 446 0 l 1,13,-1
 80 0 l 1,0,-1
390 910 m 1,14,-1
 401 808 l 1,15,16
 270 778 270 778 166 760 c 1,17,-1
 161 832 l 1,18,19
 246 857 246 857 390 910 c 1,14,-1
EndSplineSet
EndChar

StartChar: Ecircumflex
Encoding: 202 202 139
Width: 492
GlyphClass: 2
Flags: W
LayerCount: 2
Fore
SplineSet
279 751 m 1,0,-1
 135 836 l 1,1,-1
 150 898 l 1,2,-1
 279 851 l 1,3,-1
 410 898 l 1,4,-1
 425 836 l 1,5,-1
 279 751 l 1,0,-1
80 0 m 1,6,-1
 92 243 l 1,7,-1
 80 690 l 1,8,-1
 455 690 l 1,9,-1
 444 583 l 1,10,-1
 219 583 l 1,11,-1
 213 406 l 1,12,-1
 413 406 l 1,13,-1
 402 300 l 1,14,-1
 209 300 l 1,15,-1
 208 260 l 1,16,-1
 215 106 l 1,17,-1
 457 106 l 1,18,-1
 446 0 l 1,19,-1
 80 0 l 1,6,-1
EndSplineSet
EndChar

StartChar: Edieresis
Encoding: 203 203 140
Width: 492
GlyphClass: 2
Flags: W
LayerCount: 2
Fore
SplineSet
80 0 m 1,0,-1
 92 243 l 1,1,-1
 80 690 l 1,2,-1
 455 690 l 1,3,-1
 444 583 l 1,4,-1
 219 583 l 1,5,-1
 213 406 l 1,6,-1
 413 406 l 1,7,-1
 402 300 l 1,8,-1
 209 300 l 1,9,-1
 208 260 l 1,10,-1
 215 106 l 1,11,-1
 457 106 l 1,12,-1
 446 0 l 1,13,-1
 80 0 l 1,0,-1
155 891 m 128,-1,15
 176 913 176 913 204 913 c 128,-1,16
 232 913 232 913 247 897.5 c 128,-1,17
 262 882 262 882 262 851.5 c 128,-1,18
 262 821 262 821 241 799 c 128,-1,19
 220 777 220 777 192.5 777 c 128,-1,20
 165 777 165 777 149.5 795 c 128,-1,21
 134 813 134 813 134 841 c 128,-1,14
 134 869 134 869 155 891 c 128,-1,15
317 891 m 128,-1,23
 338 913 338 913 366 913 c 0,24,25
 424 913 424 913 424 855 c 0,26,27
 424 821 424 821 403.5 799 c 128,-1,28
 383 777 383 777 355.5 777 c 128,-1,29
 328 777 328 777 312 795 c 128,-1,30
 296 813 296 813 296 841 c 128,-1,22
 296 869 296 869 317 891 c 128,-1,23
EndSplineSet
EndChar

StartChar: Igrave
Encoding: 204 204 141
Width: 302
GlyphClass: 2
Flags: W
LayerCount: 2
Fore
SplineSet
222 695 m 1,0,-1
 208 260 l 1,1,-1
 220 0 l 1,2,-1
 80 0 l 1,3,-1
 92 243 l 1,4,-1
 80 670 l 1,5,-1
 222 695 l 1,0,-1
34 808 m 1,6,-1
 45 910 l 1,7,8
 173 862 173 862 274 832 c 1,9,-1
 269 760 l 1,10,-1
 34 808 l 1,6,-1
EndSplineSet
EndChar

StartChar: Iacute
Encoding: 205 205 142
Width: 302
GlyphClass: 2
Flags: W
LayerCount: 2
Fore
SplineSet
222 695 m 1,0,-1
 208 260 l 1,1,-1
 220 0 l 1,2,-1
 80 0 l 1,3,-1
 92 243 l 1,4,-1
 80 670 l 1,5,-1
 222 695 l 1,0,-1
263 910 m 1,6,-1
 274 808 l 1,7,8
 143 778 143 778 39 760 c 1,9,-1
 34 832 l 1,10,11
 120 857 120 857 263 910 c 1,6,-1
EndSplineSet
EndChar

StartChar: Icircumflex
Encoding: 206 206 143
Width: 302
GlyphClass: 2
Flags: W
LayerCount: 2
Fore
SplineSet
152 751 m 1,0,-1
 8 836 l 1,1,-1
 23 898 l 1,2,-1
 152 851 l 1,3,-1
 283 898 l 1,4,-1
 298 836 l 1,5,-1
 152 751 l 1,0,-1
222 695 m 1,6,-1
 208 260 l 1,7,-1
 220 0 l 1,8,-1
 80 0 l 1,9,-1
 92 243 l 1,10,-1
 80 670 l 1,11,-1
 222 695 l 1,6,-1
EndSplineSet
EndChar

StartChar: Idieresis
Encoding: 207 207 144
Width: 302
GlyphClass: 2
Flags: W
LayerCount: 2
Fore
SplineSet
222 695 m 1,0,-1
 208 260 l 1,1,-1
 220 0 l 1,2,-1
 80 0 l 1,3,-1
 92 243 l 1,4,-1
 80 670 l 1,5,-1
 222 695 l 1,0,-1
28 891 m 128,-1,7
 49 913 49 913 77 913 c 128,-1,8
 105 913 105 913 120 897.5 c 128,-1,9
 135 882 135 882 135 851.5 c 128,-1,10
 135 821 135 821 114 799 c 128,-1,11
 93 777 93 777 65.5 777 c 128,-1,12
 38 777 38 777 22.5 795 c 128,-1,13
 7 813 7 813 7 841 c 128,-1,6
 7 869 7 869 28 891 c 128,-1,7
190 891 m 128,-1,15
 211 913 211 913 240 913 c 0,16,17
 297 913 297 913 297 855 c 0,18,19
 297 821 297 821 276.5 799 c 128,-1,20
 256 777 256 777 228.5 777 c 128,-1,21
 201 777 201 777 185 795 c 128,-1,22
 169 813 169 813 169 841 c 128,-1,14
 169 869 169 869 190 891 c 128,-1,15
EndSplineSet
EndChar

StartChar: Eth
Encoding: 208 208 145
Width: 679
GlyphClass: 2
Flags: W
LayerCount: 2
Fore
SplineSet
362 690 m 2,0,1
 497 690 497 690 573 609 c 128,-1,2
 649 528 649 528 649 384 c 0,3,4
 649 202 649 202 555 95.5 c 128,-1,5
 461 -11 461 -11 300 -11 c 0,6,7
 229 -11 229 -11 95 0 c 1,8,-1
 107 243 l 1,9,-1
 105 319 l 1,10,-1
 4 319 l 1,11,-1
 9 366 l 1,12,-1
 103 366 l 1,13,-1
 95 690 l 1,14,-1
 362 690 l 2,0,1
343 92 m 0,15,16
 422 92 422 92 467.5 156 c 128,-1,17
 513 220 513 220 513 342 c 128,-1,18
 513 464 513 464 468.5 523 c 128,-1,19
 424 582 424 582 326 582 c 0,20,21
 260 582 260 582 233 581 c 1,22,-1
 226 366 l 1,23,-1
 367 366 l 1,24,-1
 363 319 l 1,25,-1
 225 319 l 1,26,-1
 223 260 l 1,27,-1
 230 98 l 1,28,29
 314 92 314 92 343 92 c 0,15,16
EndSplineSet
EndChar

StartChar: Ntilde
Encoding: 209 209 146
Width: 689
GlyphClass: 2
Flags: W
LayerCount: 2
Fore
SplineSet
609 692 m 1,0,-1
 596 260 l 1,1,-1
 607 22 l 1,2,-1
 489 -3 l 1,3,-1
 191 479 l 1,4,-1
 191 260 l 1,5,-1
 205 0 l 1,6,-1
 80 0 l 1,7,-1
 92 243 l 1,8,-1
 80 687 l 1,9,-1
 200 693 l 1,10,-1
 497 204 l 1,11,-1
 487 677 l 1,12,-1
 609 692 l 1,0,-1
483 888 m 1,13,-1
 511 845 l 1,14,15
 483 811 483 811 452.5 785 c 128,-1,16
 422 759 422 759 406 759 c 1,17,18
 391 761 391 761 339.5 780 c 128,-1,19
 288 799 288 799 273 801 c 1,20,-1
 207 759 l 1,21,-1
 179 802 l 1,22,23
 207 836 207 836 237.5 862 c 128,-1,24
 268 888 268 888 284 888 c 1,25,26
 299 886 299 886 350.5 867 c 128,-1,27
 402 848 402 848 417 846 c 1,28,-1
 483 888 l 1,13,-1
EndSplineSet
EndChar

StartChar: Ograve
Encoding: 210 210 147
Width: 661
GlyphClass: 2
Flags: W
LayerCount: 2
Fore
SplineSet
360 700 m 0,0,1
 478 700 478 700 554.5 610 c 128,-1,2
 631 520 631 520 631 381 c 0,3,4
 631 205 631 205 540 97 c 128,-1,5
 449 -11 449 -11 301 -11 c 0,6,7
 186 -11 186 -11 108 81.5 c 128,-1,8
 30 174 30 174 30 310 c 0,9,10
 30 480 30 480 123 590 c 128,-1,11
 216 700 216 700 360 700 c 0,0,1
495 325 m 0,12,13
 495 578 495 578 329 578 c 0,14,15
 253 578 253 578 209.5 521.5 c 128,-1,16
 166 465 166 465 166 352.5 c 128,-1,17
 166 240 166 240 212.5 167.5 c 128,-1,18
 259 95 259 95 335.5 95 c 128,-1,19
 412 95 412 95 453.5 156.5 c 128,-1,20
 495 218 495 218 495 325 c 0,12,13
211 808 m 1,21,-1
 222 910 l 1,22,23
 350 862 350 862 451 832 c 1,24,-1
 446 760 l 1,25,-1
 211 808 l 1,21,-1
EndSplineSet
EndChar

StartChar: Oacute
Encoding: 211 211 148
Width: 661
GlyphClass: 2
Flags: W
LayerCount: 2
Fore
SplineSet
360 700 m 0,0,1
 478 700 478 700 554.5 610 c 128,-1,2
 631 520 631 520 631 381 c 0,3,4
 631 205 631 205 540 97 c 128,-1,5
 449 -11 449 -11 301 -11 c 0,6,7
 186 -11 186 -11 108 81.5 c 128,-1,8
 30 174 30 174 30 310 c 0,9,10
 30 480 30 480 123 590 c 128,-1,11
 216 700 216 700 360 700 c 0,0,1
495 325 m 0,12,13
 495 578 495 578 329 578 c 0,14,15
 253 578 253 578 209.5 521.5 c 128,-1,16
 166 465 166 465 166 352.5 c 128,-1,17
 166 240 166 240 212.5 167.5 c 128,-1,18
 259 95 259 95 335.5 95 c 128,-1,19
 412 95 412 95 453.5 156.5 c 128,-1,20
 495 218 495 218 495 325 c 0,12,13
440 910 m 1,21,-1
 451 808 l 1,22,23
 320 778 320 778 216 760 c 1,24,-1
 211 832 l 1,25,26
 297 857 297 857 440 910 c 1,21,-1
EndSplineSet
EndChar

StartChar: Ocircumflex
Encoding: 212 212 149
Width: 661
GlyphClass: 2
Flags: W
LayerCount: 2
Fore
SplineSet
329 751 m 1,0,-1
 185 836 l 1,1,-1
 200 898 l 1,2,-1
 329 851 l 1,3,-1
 460 898 l 1,4,-1
 475 836 l 1,5,-1
 329 751 l 1,0,-1
360 700 m 0,6,7
 478 700 478 700 554.5 610 c 128,-1,8
 631 520 631 520 631 381 c 0,9,10
 631 205 631 205 540 97 c 128,-1,11
 449 -11 449 -11 301 -11 c 0,12,13
 186 -11 186 -11 108 81.5 c 128,-1,14
 30 174 30 174 30 310 c 0,15,16
 30 480 30 480 123 590 c 128,-1,17
 216 700 216 700 360 700 c 0,6,7
495 325 m 0,18,19
 495 578 495 578 329 578 c 0,20,21
 253 578 253 578 209.5 521.5 c 128,-1,22
 166 465 166 465 166 352.5 c 128,-1,23
 166 240 166 240 212.5 167.5 c 128,-1,24
 259 95 259 95 335.5 95 c 128,-1,25
 412 95 412 95 453.5 156.5 c 128,-1,26
 495 218 495 218 495 325 c 0,18,19
EndSplineSet
EndChar

StartChar: Otilde
Encoding: 213 213 150
Width: 661
GlyphClass: 2
Flags: W
LayerCount: 2
Fore
SplineSet
360 700 m 0,0,1
 478 700 478 700 554.5 610 c 128,-1,2
 631 520 631 520 631 381 c 0,3,4
 631 205 631 205 540 97 c 128,-1,5
 449 -11 449 -11 301 -11 c 0,6,7
 186 -11 186 -11 108 81.5 c 128,-1,8
 30 174 30 174 30 310 c 0,9,10
 30 480 30 480 123 590 c 128,-1,11
 216 700 216 700 360 700 c 0,0,1
495 325 m 0,12,13
 495 578 495 578 329 578 c 0,14,15
 253 578 253 578 209.5 521.5 c 128,-1,16
 166 465 166 465 166 352.5 c 128,-1,17
 166 240 166 240 212.5 167.5 c 128,-1,18
 259 95 259 95 335.5 95 c 128,-1,19
 412 95 412 95 453.5 156.5 c 128,-1,20
 495 218 495 218 495 325 c 0,12,13
467 888 m 1,21,-1
 495 845 l 1,22,23
 467 811 467 811 436.5 785 c 128,-1,24
 406 759 406 759 390 759 c 1,25,26
 375 761 375 761 323.5 780 c 128,-1,27
 272 799 272 799 257 801 c 1,28,-1
 191 759 l 1,29,-1
 163 802 l 1,30,31
 191 836 191 836 221.5 862 c 128,-1,32
 252 888 252 888 268 888 c 1,33,34
 283 886 283 886 334.5 867 c 128,-1,35
 386 848 386 848 401 846 c 1,36,-1
 467 888 l 1,21,-1
EndSplineSet
EndChar

StartChar: Odieresis
Encoding: 214 214 151
Width: 661
GlyphClass: 2
Flags: W
LayerCount: 2
Fore
SplineSet
360 700 m 0,0,1
 478 700 478 700 554.5 610 c 128,-1,2
 631 520 631 520 631 381 c 0,3,4
 631 205 631 205 540 97 c 128,-1,5
 449 -11 449 -11 301 -11 c 0,6,7
 186 -11 186 -11 108 81.5 c 128,-1,8
 30 174 30 174 30 310 c 0,9,10
 30 480 30 480 123 590 c 128,-1,11
 216 700 216 700 360 700 c 0,0,1
495 325 m 0,12,13
 495 578 495 578 329 578 c 0,14,15
 253 578 253 578 209.5 521.5 c 128,-1,16
 166 465 166 465 166 352.5 c 128,-1,17
 166 240 166 240 212.5 167.5 c 128,-1,18
 259 95 259 95 335.5 95 c 128,-1,19
 412 95 412 95 453.5 156.5 c 128,-1,20
 495 218 495 218 495 325 c 0,12,13
205 891 m 128,-1,22
 226 913 226 913 254 913 c 128,-1,23
 282 913 282 913 297 897.5 c 128,-1,24
 312 882 312 882 312 851.5 c 128,-1,25
 312 821 312 821 291 799 c 128,-1,26
 270 777 270 777 242.5 777 c 128,-1,27
 215 777 215 777 199.5 795 c 128,-1,28
 184 813 184 813 184 841 c 128,-1,21
 184 869 184 869 205 891 c 128,-1,22
367 891 m 128,-1,30
 388 913 388 913 416 913 c 0,31,32
 474 913 474 913 474 855 c 0,33,34
 474 821 474 821 453.5 799 c 128,-1,35
 433 777 433 777 405.5 777 c 128,-1,36
 378 777 378 777 362 795 c 128,-1,37
 346 813 346 813 346 841 c 128,-1,29
 346 869 346 869 367 891 c 128,-1,30
EndSplineSet
EndChar

StartChar: multiply
Encoding: 215 215 152
Width: 425
GlyphClass: 2
Flags: W
LayerCount: 2
Fore
SplineSet
107 90 m 1,0,-1
 48 160 l 1,1,-1
 145 257 l 1,2,-1
 41 361 l 1,3,-1
 105 438 l 1,4,-1
 215 327 l 1,5,-1
 319 431 l 1,6,-1
 378 361 l 1,7,-1
 280 263 l 1,8,-1
 383 160 l 1,9,-1
 319 83 l 1,10,-1
 209 192 l 1,11,-1
 107 90 l 1,0,-1
EndSplineSet
EndChar

StartChar: Oslash
Encoding: 216 216 153
Width: 667
GlyphClass: 2
Flags: W
LayerCount: 2
Fore
SplineSet
363 700 m 0,0,1
 427 700 427 700 484 670 c 1,2,-1
 545 780 l 1,3,-1
 589 762 l 1,4,-1
 523 643 l 1,5,6
 575 600 575 600 604.5 532 c 128,-1,7
 634 464 634 464 634 381 c 0,8,9
 634 205 634 205 543 97 c 128,-1,10
 452 -11 452 -11 304 -11 c 0,11,12
 238 -11 238 -11 180 22 c 1,13,-1
 113 -99 l 1,14,-1
 70 -80 l 1,15,-1
 142 50 l 1,16,17
 91 94 91 94 62 162 c 128,-1,18
 33 230 33 230 33 310 c 0,19,20
 33 480 33 480 126 590 c 128,-1,21
 219 700 219 700 363 700 c 0,0,1
456.5 156.5 m 128,-1,23
 498 218 498 218 498 336 c 128,-1,24
 498 454 498 454 454 518 c 1,25,-1
 242 134 l 1,26,27
 284 95 284 95 349.5 95 c 128,-1,22
 415 95 415 95 456.5 156.5 c 128,-1,23
212.5 521.5 m 128,-1,29
 169 465 169 465 169 356 c 128,-1,30
 169 247 169 247 211 175 c 1,31,-1
 420 553 l 1,32,33
 385 578 385 578 332 578 c 0,34,28
 256 578 256 578 212.5 521.5 c 128,-1,29
EndSplineSet
EndChar

StartChar: Ugrave
Encoding: 217 217 154
Width: 651
GlyphClass: 2
Flags: W
LayerCount: 2
Fore
SplineSet
291 -11 m 0,0,1
 201 -11 201 -11 139.5 44 c 128,-1,2
 78 99 78 99 78 180 c 1,3,-1
 68 670 l 1,4,-1
 212 695 l 1,5,-1
 196 257 l 1,6,7
 196 187 196 187 228.5 148 c 128,-1,8
 261 109 261 109 329 109 c 128,-1,9
 397 109 397 109 427 147 c 128,-1,10
 457 185 457 185 457 278 c 1,11,-1
 445 670 l 1,12,-1
 585 695 l 1,13,-1
 574 255 l 1,14,15
 574 137 574 137 495 63 c 128,-1,16
 416 -11 416 -11 291 -11 c 0,0,1
206 808 m 1,17,-1
 217 910 l 1,18,19
 345 862 345 862 446 832 c 1,20,-1
 441 760 l 1,21,-1
 206 808 l 1,17,-1
EndSplineSet
EndChar

StartChar: Uacute
Encoding: 218 218 155
Width: 651
GlyphClass: 2
Flags: W
LayerCount: 2
Fore
SplineSet
291 -11 m 0,0,1
 201 -11 201 -11 139.5 44 c 128,-1,2
 78 99 78 99 78 180 c 1,3,-1
 68 670 l 1,4,-1
 212 695 l 1,5,-1
 196 257 l 1,6,7
 196 187 196 187 228.5 148 c 128,-1,8
 261 109 261 109 329 109 c 128,-1,9
 397 109 397 109 427 147 c 128,-1,10
 457 185 457 185 457 278 c 1,11,-1
 445 670 l 1,12,-1
 585 695 l 1,13,-1
 574 255 l 1,14,15
 574 137 574 137 495 63 c 128,-1,16
 416 -11 416 -11 291 -11 c 0,0,1
435 910 m 1,17,-1
 446 808 l 1,18,19
 315 778 315 778 211 760 c 1,20,-1
 206 832 l 1,21,22
 291 857 291 857 435 910 c 1,17,-1
EndSplineSet
EndChar

StartChar: Ucircumflex
Encoding: 219 219 156
Width: 651
GlyphClass: 2
Flags: W
LayerCount: 2
Fore
SplineSet
324 751 m 1,0,-1
 180 836 l 1,1,-1
 195 898 l 1,2,-1
 324 851 l 1,3,-1
 455 898 l 1,4,-1
 470 836 l 1,5,-1
 324 751 l 1,0,-1
291 -11 m 0,6,7
 201 -11 201 -11 139.5 44 c 128,-1,8
 78 99 78 99 78 180 c 1,9,-1
 68 670 l 1,10,-1
 212 695 l 1,11,-1
 196 257 l 1,12,13
 196 187 196 187 228.5 148 c 128,-1,14
 261 109 261 109 329 109 c 128,-1,15
 397 109 397 109 427 147 c 128,-1,16
 457 185 457 185 457 278 c 1,17,-1
 445 670 l 1,18,-1
 585 695 l 1,19,-1
 574 255 l 1,20,21
 574 137 574 137 495 63 c 128,-1,22
 416 -11 416 -11 291 -11 c 0,6,7
EndSplineSet
EndChar

StartChar: Udieresis
Encoding: 220 220 157
Width: 651
GlyphClass: 2
Flags: W
LayerCount: 2
Fore
SplineSet
291 -11 m 0,0,1
 201 -11 201 -11 139.5 44 c 128,-1,2
 78 99 78 99 78 180 c 1,3,-1
 68 670 l 1,4,-1
 212 695 l 1,5,-1
 196 257 l 1,6,7
 196 187 196 187 228.5 148 c 128,-1,8
 261 109 261 109 329 109 c 128,-1,9
 397 109 397 109 427 147 c 128,-1,10
 457 185 457 185 457 278 c 1,11,-1
 445 670 l 1,12,-1
 585 695 l 1,13,-1
 574 255 l 1,14,15
 574 137 574 137 495 63 c 128,-1,16
 416 -11 416 -11 291 -11 c 0,0,1
200 891 m 128,-1,18
 221 913 221 913 249 913 c 128,-1,19
 277 913 277 913 292 897.5 c 128,-1,20
 307 882 307 882 307 851.5 c 128,-1,21
 307 821 307 821 286 799 c 128,-1,22
 265 777 265 777 237.5 777 c 128,-1,23
 210 777 210 777 194.5 795 c 128,-1,24
 179 813 179 813 179 841 c 128,-1,17
 179 869 179 869 200 891 c 128,-1,18
362 891 m 128,-1,26
 383 913 383 913 412 913 c 0,27,28
 469 913 469 913 469 855 c 0,29,30
 469 821 469 821 448.5 799 c 128,-1,31
 428 777 428 777 400.5 777 c 128,-1,32
 373 777 373 777 357 795 c 128,-1,33
 341 813 341 813 341 841 c 128,-1,25
 341 869 341 869 362 891 c 128,-1,26
EndSplineSet
EndChar

StartChar: Yacute
Encoding: 221 221 158
Width: 569
GlyphClass: 2
Flags: W
LayerCount: 2
Fore
SplineSet
283 395 m 1,0,-1
 295 395 l 1,1,-1
 369 531 l 1,2,-1
 444 696 l 1,3,-1
 566 678 l 1,4,-1
 474 511 l 1,5,-1
 344 257 l 1,6,-1
 355 0 l 1,7,-1
 215 0 l 1,8,-1
 225 240 l 1,9,-1
 99 496 l 1,10,-1
 3 671 l 1,11,-1
 144 696 l 1,12,-1
 209 544 l 1,13,-1
 283 395 l 1,0,-1
398 910 m 1,14,-1
 409 808 l 1,15,16
 278 778 278 778 174 760 c 1,17,-1
 169 832 l 1,18,19
 255 857 255 857 398 910 c 1,14,-1
EndSplineSet
EndChar

StartChar: Thorn
Encoding: 222 222 159
Width: 509
GlyphClass: 2
Flags: W
LayerCount: 2
Fore
SplineSet
292 568 m 2,0,1
 388 568 388 568 445 513.5 c 128,-1,2
 502 459 502 459 502 364 c 128,-1,3
 502 269 502 269 430 201.5 c 128,-1,4
 358 134 358 134 254 134 c 2,5,-1
 203 134 l 1,6,-1
 209 0 l 1,7,-1
 75 0 l 1,8,-1
 87 243 l 1,9,-1
 75 690 l 1,10,-1
 211 690 l 1,11,-1
 207 568 l 1,12,-1
 292 568 l 2,0,1
256 467 m 2,13,-1
 203 467 l 1,14,-1
 197 260 l 1,15,-1
 198 231 l 1,16,-1
 268 231 l 2,17,18
 318 231 318 231 345.5 264 c 128,-1,19
 373 297 373 297 373 358 c 0,20,21
 373 467 373 467 256 467 c 2,13,-1
EndSplineSet
EndChar

StartChar: germandbls
Encoding: 223 223 160
Width: 607
GlyphClass: 2
Flags: W
LayerCount: 2
Fore
SplineSet
147.5 712 m 128,-1,1
 215 774 215 774 307.5 774 c 128,-1,2
 400 774 400 774 453 730.5 c 128,-1,3
 506 687 506 687 506 612 c 0,4,5
 506 575 506 575 488 542 c 128,-1,6
 470 509 470 509 448 489 c 0,7,8
 390 436 390 436 390 396 c 0,9,10
 390 375 390 375 412.5 357.5 c 128,-1,11
 435 340 435 340 466.5 324.5 c 128,-1,12
 498 309 498 309 530 290 c 128,-1,13
 562 271 562 271 584.5 239 c 128,-1,14
 607 207 607 207 607 165 c 0,15,16
 607 95 607 95 549.5 42 c 128,-1,17
 492 -11 492 -11 417 -11 c 0,18,19
 369 -11 369 -11 327.5 10 c 128,-1,20
 286 31 286 31 268 52 c 2,21,-1
 250 73 l 1,22,-1
 329 165 l 1,23,24
 335 157 335 157 346 145 c 128,-1,25
 357 133 357 133 389.5 113 c 128,-1,26
 422 93 422 93 452 93 c 0,27,28
 504 93 504 93 504 139 c 0,29,30
 504 157 504 157 481.5 172.5 c 128,-1,31
 459 188 459 188 427.5 203.5 c 128,-1,32
 396 219 396 219 364 239 c 128,-1,33
 332 259 332 259 309.5 293 c 128,-1,34
 287 327 287 327 287 368 c 128,-1,35
 287 409 287 409 305 442 c 128,-1,36
 323 475 323 475 345 495 c 0,37,38
 403 548 403 548 403 584 c 128,-1,39
 403 620 403 620 372 640 c 128,-1,40
 341 660 341 660 292.5 660 c 128,-1,41
 244 660 244 660 222.5 641.5 c 128,-1,42
 201 623 201 623 201 579 c 2,43,-1
 199 260 l 1,44,-1
 210 25 l 1,45,-1
 75 0 l 1,46,-1
 87 243 l 1,47,-1
 83 402 l 1,48,-1
 17 402 l 1,49,-1
 28 484 l 1,50,-1
 81 484 l 1,51,-1
 80 560 l 1,52,0
 80 650 80 650 147.5 712 c 128,-1,1
EndSplineSet
EndChar

StartChar: agrave
Encoding: 224 224 161
Width: 469
GlyphClass: 2
Flags: W
LayerCount: 2
Fore
SplineSet
61.5 37.5 m 128,-1,1
 24 75 24 75 24 138.5 c 128,-1,2
 24 202 24 202 82 248.5 c 128,-1,3
 140 295 140 295 223 295 c 2,4,-1
 291 295 l 1,5,-1
 291 312 l 2,6,7
 291 361 291 361 271 379 c 128,-1,8
 251 397 251 397 196 397 c 0,9,10
 173 397 173 397 141.5 387.5 c 128,-1,11
 110 378 110 378 71 358 c 1,12,-1
 42 437 l 1,13,14
 85 467 85 467 146.5 491 c 128,-1,15
 208 515 208 515 248 515 c 0,16,17
 405 515 405 515 405 363 c 2,18,-1
 405 167 l 2,19,20
 405 111 405 111 440 42 c 1,21,-1
 334 -3 l 1,22,23
 309 45 309 45 297 83 c 1,24,25
 242 0 242 0 158 0 c 0,26,0
 99 0 99 0 61.5 37.5 c 128,-1,1
119 623 m 1,27,-1
 130 725 l 1,28,29
 258 677 258 677 359 647 c 1,30,-1
 354 575 l 1,31,-1
 119 623 l 1,27,-1
200 102 m 0,32,33
 240 102 240 102 291 143 c 1,34,-1
 291 210 l 1,35,36
 238 222 238 222 205 222 c 0,37,38
 142 222 142 222 142 166 c 0,39,40
 142 137 142 137 158 119.5 c 128,-1,41
 174 102 174 102 200 102 c 0,32,33
EndSplineSet
EndChar

StartChar: aacute
Encoding: 225 225 162
Width: 469
GlyphClass: 2
Flags: W
LayerCount: 2
Fore
SplineSet
61.5 37.5 m 128,-1,1
 24 75 24 75 24 138.5 c 128,-1,2
 24 202 24 202 82 248.5 c 128,-1,3
 140 295 140 295 223 295 c 2,4,-1
 291 295 l 1,5,-1
 291 312 l 2,6,7
 291 361 291 361 271 379 c 128,-1,8
 251 397 251 397 196 397 c 0,9,10
 173 397 173 397 141.5 387.5 c 128,-1,11
 110 378 110 378 71 358 c 1,12,-1
 42 437 l 1,13,14
 85 467 85 467 146.5 491 c 128,-1,15
 208 515 208 515 248 515 c 0,16,17
 405 515 405 515 405 363 c 2,18,-1
 405 167 l 2,19,20
 405 111 405 111 440 42 c 1,21,-1
 334 -3 l 1,22,23
 309 45 309 45 297 83 c 1,24,25
 242 0 242 0 158 0 c 0,26,0
 99 0 99 0 61.5 37.5 c 128,-1,1
348 725 m 1,27,-1
 359 623 l 1,28,29
 228 593 228 593 124 575 c 1,30,-1
 119 647 l 1,31,32
 204 672 204 672 348 725 c 1,27,-1
200 102 m 0,33,34
 240 102 240 102 291 143 c 1,35,-1
 291 210 l 1,36,37
 238 222 238 222 205 222 c 0,38,39
 142 222 142 222 142 166 c 0,40,41
 142 137 142 137 158 119.5 c 128,-1,42
 174 102 174 102 200 102 c 0,33,34
EndSplineSet
EndChar

StartChar: acircumflex
Encoding: 226 226 163
Width: 469
GlyphClass: 2
Flags: W
LayerCount: 2
Fore
SplineSet
61.5 37.5 m 128,-1,1
 24 75 24 75 24 138.5 c 128,-1,2
 24 202 24 202 82 248.5 c 128,-1,3
 140 295 140 295 223 295 c 2,4,-1
 291 295 l 1,5,-1
 291 312 l 2,6,7
 291 361 291 361 271 379 c 128,-1,8
 251 397 251 397 196 397 c 0,9,10
 173 397 173 397 141.5 387.5 c 128,-1,11
 110 378 110 378 71 358 c 1,12,-1
 42 437 l 1,13,14
 85 467 85 467 146.5 491 c 128,-1,15
 208 515 208 515 248 515 c 0,16,17
 405 515 405 515 405 363 c 2,18,-1
 405 167 l 2,19,20
 405 111 405 111 440 42 c 1,21,-1
 334 -3 l 1,22,23
 309 45 309 45 297 83 c 1,24,25
 242 0 242 0 158 0 c 0,26,0
 99 0 99 0 61.5 37.5 c 128,-1,1
237 566 m 1,27,-1
 93 651 l 1,28,-1
 108 713 l 1,29,-1
 237 666 l 1,30,-1
 368 713 l 1,31,-1
 383 651 l 1,32,-1
 237 566 l 1,27,-1
200 102 m 0,33,34
 240 102 240 102 291 143 c 1,35,-1
 291 210 l 1,36,37
 238 222 238 222 205 222 c 0,38,39
 142 222 142 222 142 166 c 0,40,41
 142 137 142 137 158 119.5 c 128,-1,42
 174 102 174 102 200 102 c 0,33,34
EndSplineSet
EndChar

StartChar: atilde
Encoding: 227 227 164
Width: 469
GlyphClass: 2
Flags: W
LayerCount: 2
Fore
SplineSet
61.5 37.5 m 128,-1,1
 24 75 24 75 24 138.5 c 128,-1,2
 24 202 24 202 82 248.5 c 128,-1,3
 140 295 140 295 223 295 c 2,4,-1
 291 295 l 1,5,-1
 291 312 l 2,6,7
 291 361 291 361 271 379 c 128,-1,8
 251 397 251 397 196 397 c 0,9,10
 173 397 173 397 141.5 387.5 c 128,-1,11
 110 378 110 378 71 358 c 1,12,-1
 42 437 l 1,13,14
 85 467 85 467 146.5 491 c 128,-1,15
 208 515 208 515 248 515 c 0,16,17
 405 515 405 515 405 363 c 2,18,-1
 405 167 l 2,19,20
 405 111 405 111 440 42 c 1,21,-1
 334 -3 l 1,22,23
 309 45 309 45 297 83 c 1,24,25
 242 0 242 0 158 0 c 0,26,0
 99 0 99 0 61.5 37.5 c 128,-1,1
375 703 m 1,27,-1
 403 660 l 1,28,29
 375 626 375 626 344.5 600 c 128,-1,30
 314 574 314 574 298 574 c 1,31,32
 283 576 283 576 231.5 595 c 128,-1,33
 180 614 180 614 165 616 c 1,34,-1
 99 574 l 1,35,-1
 71 617 l 1,36,37
 99 651 99 651 129.5 677 c 128,-1,38
 160 703 160 703 176 703 c 1,39,40
 191 701 191 701 242.5 682 c 128,-1,41
 294 663 294 663 309 661 c 1,42,-1
 375 703 l 1,27,-1
200 102 m 0,43,44
 240 102 240 102 291 143 c 1,45,-1
 291 210 l 1,46,47
 238 222 238 222 205 222 c 0,48,49
 142 222 142 222 142 166 c 0,50,51
 142 137 142 137 158 119.5 c 128,-1,52
 174 102 174 102 200 102 c 0,43,44
EndSplineSet
EndChar

StartChar: adieresis
Encoding: 228 228 165
Width: 469
GlyphClass: 2
Flags: W
LayerCount: 2
Fore
SplineSet
61.5 37.5 m 128,-1,1
 24 75 24 75 24 138.5 c 128,-1,2
 24 202 24 202 82 248.5 c 128,-1,3
 140 295 140 295 223 295 c 2,4,-1
 291 295 l 1,5,-1
 291 312 l 2,6,7
 291 361 291 361 271 379 c 128,-1,8
 251 397 251 397 196 397 c 0,9,10
 173 397 173 397 141.5 387.5 c 128,-1,11
 110 378 110 378 71 358 c 1,12,-1
 42 437 l 1,13,14
 85 467 85 467 146.5 491 c 128,-1,15
 208 515 208 515 248 515 c 0,16,17
 405 515 405 515 405 363 c 2,18,-1
 405 167 l 2,19,20
 405 111 405 111 440 42 c 1,21,-1
 334 -3 l 1,22,23
 309 45 309 45 297 83 c 1,24,25
 242 0 242 0 158 0 c 0,26,0
 99 0 99 0 61.5 37.5 c 128,-1,1
200 102 m 0,27,28
 240 102 240 102 291 143 c 1,29,-1
 291 210 l 1,30,31
 238 222 238 222 205 222 c 0,32,33
 142 222 142 222 142 166 c 0,34,35
 142 137 142 137 158 119.5 c 128,-1,36
 174 102 174 102 200 102 c 0,27,28
275 706 m 128,-1,38
 296 728 296 728 324 728 c 0,39,40
 382 728 382 728 382 670 c 0,41,42
 382 636 382 636 361.5 614 c 128,-1,43
 341 592 341 592 313.5 592 c 128,-1,44
 286 592 286 592 270 610 c 128,-1,45
 254 628 254 628 254 656 c 128,-1,37
 254 684 254 684 275 706 c 128,-1,38
113 706 m 128,-1,47
 134 728 134 728 162 728 c 128,-1,48
 190 728 190 728 205 712.5 c 128,-1,49
 220 697 220 697 220 666.5 c 128,-1,50
 220 636 220 636 199 614 c 128,-1,51
 178 592 178 592 150.5 592 c 128,-1,52
 123 592 123 592 107.5 610 c 128,-1,53
 92 628 92 628 92 656 c 128,-1,46
 92 684 92 684 113 706 c 128,-1,47
EndSplineSet
EndChar

StartChar: aring
Encoding: 229 229 166
Width: 469
GlyphClass: 2
Flags: W
LayerCount: 2
Fore
SplineSet
61.5 37.5 m 128,-1,1
 24 75 24 75 24 138.5 c 128,-1,2
 24 202 24 202 82 248.5 c 128,-1,3
 140 295 140 295 223 295 c 2,4,-1
 291 295 l 1,5,-1
 291 312 l 2,6,7
 291 361 291 361 271 379 c 128,-1,8
 251 397 251 397 196 397 c 0,9,10
 173 397 173 397 141.5 387.5 c 128,-1,11
 110 378 110 378 71 358 c 1,12,-1
 42 437 l 1,13,14
 85 467 85 467 146.5 491 c 128,-1,15
 208 515 208 515 248 515 c 0,16,17
 405 515 405 515 405 363 c 2,18,-1
 405 167 l 2,19,20
 405 111 405 111 440 42 c 1,21,-1
 334 -3 l 1,22,23
 309 45 309 45 297 83 c 1,24,25
 242 0 242 0 158 0 c 0,26,0
 99 0 99 0 61.5 37.5 c 128,-1,1
158 740 m 128,-1,28
 191 774 191 774 240 774 c 128,-1,29
 289 774 289 774 319 746 c 128,-1,30
 349 718 349 718 349 667 c 128,-1,31
 349 616 349 616 316 581 c 128,-1,32
 283 546 283 546 235 546 c 128,-1,33
 187 546 187 546 156 577.5 c 128,-1,34
 125 609 125 609 125 657.5 c 128,-1,27
 125 706 125 706 158 740 c 128,-1,28
200 102 m 0,35,36
 240 102 240 102 291 143 c 1,37,-1
 291 210 l 1,38,39
 238 222 238 222 205 222 c 0,40,41
 142 222 142 222 142 166 c 0,42,43
 142 137 142 137 158 119.5 c 128,-1,44
 174 102 174 102 200 102 c 0,35,36
276 703.5 m 128,-1,46
 262 718 262 718 238.5 718 c 128,-1,47
 215 718 215 718 199.5 701.5 c 128,-1,48
 184 685 184 685 184 660 c 128,-1,49
 184 635 184 635 198.5 618.5 c 128,-1,50
 213 602 213 602 235.5 602 c 128,-1,51
 258 602 258 602 274 620 c 128,-1,52
 290 638 290 638 290 663.5 c 128,-1,45
 290 689 290 689 276 703.5 c 128,-1,46
EndSplineSet
EndChar

StartChar: ae
Encoding: 230 230 167
Width: 699
GlyphClass: 2
Flags: W
LayerCount: 2
Fore
SplineSet
491 102 m 0,0,1
 520 102 520 102 552 117 c 128,-1,2
 584 132 584 132 602 147 c 2,3,-1
 620 162 l 1,4,-1
 666 106 l 1,5,6
 656 89 656 89 635 67 c 128,-1,7
 614 45 614 45 592.5 29.5 c 128,-1,8
 571 14 571 14 535.5 1.5 c 128,-1,9
 500 -11 500 -11 462 -11 c 0,10,11
 363 -11 363 -11 312 77 c 1,12,13
 254 -11 254 -11 168 -11 c 0,14,15
 104 -11 104 -11 64 26.5 c 128,-1,16
 24 64 24 64 24 127.5 c 128,-1,17
 24 191 24 191 72.5 232 c 128,-1,18
 121 273 121 273 208 279 c 1,19,-1
 281 285 l 1,20,-1
 281 312 l 2,21,22
 281 361 281 361 263 379 c 128,-1,23
 245 397 245 397 196 397 c 0,24,25
 173 397 173 397 141.5 387.5 c 128,-1,26
 110 378 110 378 71 358 c 1,27,-1
 42 437 l 1,28,29
 55 446 55 446 76 459 c 128,-1,30
 97 472 97 472 151 493.5 c 128,-1,31
 205 515 205 515 245 515 c 0,32,33
 341 515 341 515 368 444 c 1,34,35
 434 515 434 515 511.5 515 c 128,-1,36
 589 515 589 515 629.5 474 c 128,-1,37
 670 433 670 433 670 359 c 0,38,39
 670 323 670 323 655 261 c 1,40,-1
 635 240 l 1,41,-1
 384 222 l 1,42,43
 399 102 399 102 491 102 c 0,0,1
491 412 m 0,44,45
 450 412 450 412 420.5 379 c 128,-1,46
 391 346 391 346 384 294 c 1,47,-1
 552 309 l 1,48,49
 555 330 555 330 555 345 c 0,50,51
 555 412 555 412 491 412 c 0,44,45
281 209 m 2,52,-1
 281 215 l 1,53,-1
 206 210 l 2,54,55
 170 208 170 208 156 196 c 128,-1,56
 142 184 142 184 142 155 c 128,-1,57
 142 126 142 126 160.5 108.5 c 128,-1,58
 179 91 179 91 213 91 c 128,-1,59
 247 91 247 91 291 129 c 1,60,61
 281 163 281 163 281 209 c 2,52,-1
EndSplineSet
EndChar

StartChar: ccedilla
Encoding: 231 231 168
Width: 385
GlyphClass: 2
Flags: W
LayerCount: 2
Fore
SplineSet
222 -125 m 0,0,1
 222 -94 222 -94 153 -85 c 1,2,-1
 168 -9 l 1,3,4
 104 2 104 2 65 61.5 c 128,-1,5
 26 121 26 121 26 209 c 0,6,7
 26 331 26 331 97 423 c 128,-1,8
 168 515 168 515 263 515 c 0,9,10
 292 515 292 515 321 506.5 c 128,-1,11
 350 498 350 498 380 480 c 1,12,-1
 310 357 l 1,13,14
 274 385 274 385 230 385 c 128,-1,15
 186 385 186 385 162 353.5 c 128,-1,16
 138 322 138 322 138 257 c 128,-1,17
 138 192 138 192 162.5 152.5 c 128,-1,18
 187 113 187 113 234 113 c 0,19,20
 258 113 258 113 281 128 c 128,-1,21
 304 143 304 143 316 158 c 1,22,-1
 327 174 l 1,23,-1
 377 122 l 1,24,25
 344 56 344 56 283 16 c 0,26,27
 258 -1 258 -1 231 -7 c 1,28,-1
 225 -40 l 1,29,30
 265 -50 265 -50 286.5 -69.5 c 128,-1,31
 308 -89 308 -89 308 -115 c 0,32,33
 308 -152 308 -152 267 -182 c 128,-1,34
 226 -212 226 -212 164 -220 c 1,35,-1
 132 -176 l 1,36,37
 222 -160 222 -160 222 -125 c 0,0,1
EndSplineSet
EndChar

StartChar: egrave
Encoding: 232 232 169
Width: 446
GlyphClass: 2
Flags: W
LayerCount: 2
Fore
SplineSet
238 102 m 0,0,1
 267 102 267 102 299 117 c 128,-1,2
 331 132 331 132 349 147 c 2,3,-1
 367 162 l 1,4,-1
 413 106 l 1,5,6
 403 89 403 89 382 67 c 128,-1,7
 361 45 361 45 339.5 29.5 c 128,-1,8
 318 14 318 14 282.5 1.5 c 128,-1,9
 247 -11 247 -11 209 -11 c 0,10,11
 128 -11 128 -11 77 50.5 c 128,-1,12
 26 112 26 112 26 209 c 0,13,14
 26 331 26 331 97 423 c 128,-1,15
 168 515 168 515 263 515 c 0,16,17
 336 515 336 515 376.5 474 c 128,-1,18
 417 433 417 433 417 359 c 0,19,20
 417 315 417 315 402 259 c 1,21,-1
 382 238 l 1,22,-1
 132 215 l 1,23,24
 149 102 149 102 238 102 c 0,0,1
128 623 m 1,25,-1
 139 725 l 1,26,27
 267 677 267 677 368 647 c 1,28,-1
 363 575 l 1,29,-1
 128 623 l 1,25,-1
238 412 m 0,30,31
 194 412 194 412 164 376.5 c 128,-1,32
 134 341 134 341 129 286 c 1,33,-1
 299 307 l 1,34,35
 302 330 302 330 302 345 c 0,36,37
 302 412 302 412 238 412 c 0,30,31
EndSplineSet
EndChar

StartChar: eacute
Encoding: 233 233 170
Width: 446
GlyphClass: 2
Flags: W
LayerCount: 2
Fore
SplineSet
238 102 m 0,0,1
 267 102 267 102 299 117 c 128,-1,2
 331 132 331 132 349 147 c 2,3,-1
 367 162 l 1,4,-1
 413 106 l 1,5,6
 403 89 403 89 382 67 c 128,-1,7
 361 45 361 45 339.5 29.5 c 128,-1,8
 318 14 318 14 282.5 1.5 c 128,-1,9
 247 -11 247 -11 209 -11 c 0,10,11
 128 -11 128 -11 77 50.5 c 128,-1,12
 26 112 26 112 26 209 c 0,13,14
 26 331 26 331 97 423 c 128,-1,15
 168 515 168 515 263 515 c 0,16,17
 336 515 336 515 376.5 474 c 128,-1,18
 417 433 417 433 417 359 c 0,19,20
 417 315 417 315 402 259 c 1,21,-1
 382 238 l 1,22,-1
 132 215 l 1,23,24
 149 102 149 102 238 102 c 0,0,1
357 725 m 1,25,-1
 368 623 l 1,26,27
 237 593 237 593 133 575 c 1,28,-1
 128 647 l 1,29,30
 214 672 214 672 357 725 c 1,25,-1
238 412 m 0,31,32
 194 412 194 412 164 376.5 c 128,-1,33
 134 341 134 341 129 286 c 1,34,-1
 299 307 l 1,35,36
 302 330 302 330 302 345 c 0,37,38
 302 412 302 412 238 412 c 0,31,32
EndSplineSet
EndChar

StartChar: ecircumflex
Encoding: 234 234 171
Width: 446
GlyphClass: 2
Flags: W
LayerCount: 2
Fore
SplineSet
238 102 m 0,0,1
 267 102 267 102 299 117 c 128,-1,2
 331 132 331 132 349 147 c 2,3,-1
 367 162 l 1,4,-1
 413 106 l 1,5,6
 403 89 403 89 382 67 c 128,-1,7
 361 45 361 45 339.5 29.5 c 128,-1,8
 318 14 318 14 282.5 1.5 c 128,-1,9
 247 -11 247 -11 209 -11 c 0,10,11
 128 -11 128 -11 77 50.5 c 128,-1,12
 26 112 26 112 26 209 c 0,13,14
 26 331 26 331 97 423 c 128,-1,15
 168 515 168 515 263 515 c 0,16,17
 336 515 336 515 376.5 474 c 128,-1,18
 417 433 417 433 417 359 c 0,19,20
 417 315 417 315 402 259 c 1,21,-1
 382 238 l 1,22,-1
 132 215 l 1,23,24
 149 102 149 102 238 102 c 0,0,1
246 566 m 1,25,-1
 102 651 l 1,26,-1
 117 713 l 1,27,-1
 246 666 l 1,28,-1
 377 713 l 1,29,-1
 392 651 l 1,30,-1
 246 566 l 1,25,-1
238 412 m 0,31,32
 194 412 194 412 164 376.5 c 128,-1,33
 134 341 134 341 129 286 c 1,34,-1
 299 307 l 1,35,36
 302 330 302 330 302 345 c 0,37,38
 302 412 302 412 238 412 c 0,31,32
EndSplineSet
EndChar

StartChar: edieresis
Encoding: 235 235 172
Width: 446
GlyphClass: 2
Flags: W
LayerCount: 2
Fore
SplineSet
238 102 m 0,0,1
 267 102 267 102 299 117 c 128,-1,2
 331 132 331 132 349 147 c 2,3,-1
 367 162 l 1,4,-1
 413 106 l 1,5,6
 403 89 403 89 382 67 c 128,-1,7
 361 45 361 45 339.5 29.5 c 128,-1,8
 318 14 318 14 282.5 1.5 c 128,-1,9
 247 -11 247 -11 209 -11 c 0,10,11
 128 -11 128 -11 77 50.5 c 128,-1,12
 26 112 26 112 26 209 c 0,13,14
 26 331 26 331 97 423 c 128,-1,15
 168 515 168 515 263 515 c 0,16,17
 336 515 336 515 376.5 474 c 128,-1,18
 417 433 417 433 417 359 c 0,19,20
 417 315 417 315 402 259 c 1,21,-1
 382 238 l 1,22,-1
 132 215 l 1,23,24
 149 102 149 102 238 102 c 0,0,1
238 412 m 0,25,26
 194 412 194 412 164 376.5 c 128,-1,27
 134 341 134 341 129 286 c 1,28,-1
 299 307 l 1,29,30
 302 330 302 330 302 345 c 0,31,32
 302 412 302 412 238 412 c 0,25,26
284 706 m 128,-1,34
 305 728 305 728 334 728 c 0,35,36
 391 728 391 728 391 670 c 0,37,38
 391 636 391 636 370.5 614 c 128,-1,39
 350 592 350 592 322.5 592 c 128,-1,40
 295 592 295 592 279 610 c 128,-1,41
 263 628 263 628 263 656 c 128,-1,33
 263 684 263 684 284 706 c 128,-1,34
122 706 m 128,-1,43
 143 728 143 728 171 728 c 128,-1,44
 199 728 199 728 214 712.5 c 128,-1,45
 229 697 229 697 229 666.5 c 128,-1,46
 229 636 229 636 208 614 c 128,-1,47
 187 592 187 592 159.5 592 c 128,-1,48
 132 592 132 592 116.5 610 c 128,-1,49
 101 628 101 628 101 656 c 128,-1,42
 101 684 101 684 122 706 c 128,-1,43
EndSplineSet
EndChar

StartChar: igrave
Encoding: 236 236 173
Width: 244
GlyphClass: 2
Flags: W
LayerCount: 2
Fore
SplineSet
192 509 m 1,0,-1
 180 260 l 1,1,-1
 191 25 l 1,2,-1
 57 0 l 1,3,-1
 69 243 l 1,4,-1
 58 484 l 1,5,-1
 192 509 l 1,0,-1
5 623 m 1,6,-1
 16 725 l 1,7,8
 144 677 144 677 245 647 c 1,9,-1
 240 575 l 1,10,-1
 5 623 l 1,6,-1
EndSplineSet
EndChar

StartChar: iacute
Encoding: 237 237 174
Width: 244
GlyphClass: 2
Flags: W
LayerCount: 2
Fore
SplineSet
192 509 m 1,0,-1
 180 260 l 1,1,-1
 191 25 l 1,2,-1
 57 0 l 1,3,-1
 69 243 l 1,4,-1
 58 484 l 1,5,-1
 192 509 l 1,0,-1
234 725 m 1,6,-1
 245 623 l 1,7,8
 114 593 114 593 10 575 c 1,9,-1
 5 647 l 1,10,11
 90 672 90 672 234 725 c 1,6,-1
EndSplineSet
EndChar

StartChar: icircumflex
Encoding: 238 238 175
Width: 244
GlyphClass: 2
Flags: W
LayerCount: 2
Fore
SplineSet
123 566 m 1,0,-1
 -21 651 l 1,1,-1
 -6 713 l 1,2,-1
 123 666 l 1,3,-1
 254 713 l 1,4,-1
 269 651 l 1,5,-1
 123 566 l 1,0,-1
192 509 m 1,6,-1
 180 260 l 1,7,-1
 191 25 l 1,8,-1
 57 0 l 1,9,-1
 69 243 l 1,10,-1
 58 484 l 1,11,-1
 192 509 l 1,6,-1
EndSplineSet
EndChar

StartChar: idieresis
Encoding: 239 239 176
Width: 244
GlyphClass: 2
Flags: W
LayerCount: 2
Fore
SplineSet
192 509 m 1,0,-1
 180 260 l 1,1,-1
 191 25 l 1,2,-1
 57 0 l 1,3,-1
 69 243 l 1,4,-1
 58 484 l 1,5,-1
 192 509 l 1,0,-1
-1 706 m 128,-1,7
 20 728 20 728 48 728 c 128,-1,8
 76 728 76 728 91 712.5 c 128,-1,9
 106 697 106 697 106 666.5 c 128,-1,10
 106 636 106 636 85 614 c 128,-1,11
 64 592 64 592 36.5 592 c 128,-1,12
 9 592 9 592 -6.5 610 c 128,-1,13
 -22 628 -22 628 -22 656 c 128,-1,6
 -22 684 -22 684 -1 706 c 128,-1,7
161 706 m 128,-1,15
 182 728 182 728 210 728 c 0,16,17
 268 728 268 728 268 670 c 0,18,19
 268 636 268 636 247.5 614 c 128,-1,20
 227 592 227 592 199.5 592 c 128,-1,21
 172 592 172 592 156 610 c 128,-1,22
 140 628 140 628 140 656 c 128,-1,14
 140 684 140 684 161 706 c 128,-1,15
EndSplineSet
EndChar

StartChar: eth
Encoding: 240 240 177
Width: 514
GlyphClass: 2
Flags: W
LayerCount: 2
Fore
SplineSet
485 261 m 0,0,1
 485 145 485 145 415 67 c 128,-1,2
 345 -11 345 -11 239 -11 c 0,3,4
 152 -11 152 -11 90 54 c 128,-1,5
 28 119 28 119 28 211 c 0,6,7
 28 326 28 326 86 396.5 c 128,-1,8
 144 467 144 467 236 467 c 0,9,10
 279 467 279 467 316 445 c 1,11,12
 278 517 278 517 210 587 c 1,13,-1
 67 512 l 1,14,-1
 58 557 l 1,15,-1
 177 619 l 1,16,17
 118 673 118 673 55 721 c 1,18,-1
 183 780 l 1,19,20
 222 741 222 741 282 675 c 1,21,-1
 417 746 l 1,22,-1
 428 700 l 1,23,-1
 312 640 l 1,24,25
 403 531 403 531 444 440.5 c 128,-1,26
 485 350 485 350 485 261 c 0,0,1
340.5 127 m 128,-1,28
 369 160 369 160 369 223.5 c 128,-1,29
 369 287 369 287 354 347 c 1,30,31
 304 371 304 371 257 371 c 0,32,33
 149 371 149 371 149 232 c 0,34,35
 149 170 149 170 179 132 c 128,-1,36
 209 94 209 94 260.5 94 c 128,-1,27
 312 94 312 94 340.5 127 c 128,-1,28
EndSplineSet
EndChar

StartChar: ntilde
Encoding: 241 241 178
Width: 523
GlyphClass: 2
Flags: W
LayerCount: 2
Fore
SplineSet
336 345 m 128,-1,1
 324 368 324 368 280 368 c 128,-1,2
 236 368 236 368 180 333 c 1,3,-1
 180 260 l 1,4,-1
 191 25 l 1,5,-1
 57 0 l 1,6,-1
 69 243 l 1,7,8
 65 377 65 377 47 483 c 1,9,-1
 168 509 l 1,10,11
 175 451 175 451 178 396 c 1,12,13
 193 416 193 416 212 435.5 c 128,-1,14
 231 455 231 455 272 479.5 c 128,-1,15
 313 504 313 504 358.5 504 c 128,-1,16
 404 504 404 504 435 468.5 c 128,-1,17
 466 433 466 433 466 372 c 1,18,-1
 460 260 l 1,19,-1
 471 20 l 1,20,-1
 336 -5 l 1,21,-1
 348 253 l 1,22,0
 348 322 348 322 336 345 c 128,-1,1
414 703 m 1,23,-1
 442 660 l 1,24,25
 414 626 414 626 383.5 600 c 128,-1,26
 353 574 353 574 337 574 c 1,27,28
 322 576 322 576 270.5 595 c 128,-1,29
 219 614 219 614 204 616 c 1,30,-1
 138 574 l 1,31,-1
 110 617 l 1,32,33
 138 651 138 651 168.5 677 c 128,-1,34
 199 703 199 703 215 703 c 1,35,36
 230 701 230 701 281.5 682 c 128,-1,37
 333 663 333 663 348 661 c 1,38,-1
 414 703 l 1,23,-1
EndSplineSet
EndChar

StartChar: ograve
Encoding: 242 242 179
Width: 482
GlyphClass: 2
Flags: W
LayerCount: 2
Fore
SplineSet
97 426 m 128,-1,1
 166 515 166 515 258.5 515 c 128,-1,2
 351 515 351 515 402.5 455 c 128,-1,3
 454 395 454 395 454 296 c 0,4,5
 454 164 454 164 387.5 76.5 c 128,-1,6
 321 -11 321 -11 220 -11 c 0,7,8
 137 -11 137 -11 82.5 51.5 c 128,-1,9
 28 114 28 114 28 209 c 0,10,0
 28 337 28 337 97 426 c 128,-1,1
342 244 m 0,11,12
 342 389 342 389 243 389 c 0,13,14
 140 389 140 389 140 253 c 0,15,16
 140 182 140 182 169 142 c 128,-1,17
 198 102 198 102 245.5 102 c 128,-1,18
 293 102 293 102 317.5 138.5 c 128,-1,19
 342 175 342 175 342 244 c 0,11,12
126 623 m 1,20,-1
 137 725 l 1,21,22
 265 677 265 677 366 647 c 1,23,-1
 361 575 l 1,24,-1
 126 623 l 1,20,-1
EndSplineSet
EndChar

StartChar: oacute
Encoding: 243 243 180
Width: 482
GlyphClass: 2
Flags: W
LayerCount: 2
Fore
SplineSet
97 426 m 128,-1,1
 166 515 166 515 258.5 515 c 128,-1,2
 351 515 351 515 402.5 455 c 128,-1,3
 454 395 454 395 454 296 c 0,4,5
 454 164 454 164 387.5 76.5 c 128,-1,6
 321 -11 321 -11 220 -11 c 0,7,8
 137 -11 137 -11 82.5 51.5 c 128,-1,9
 28 114 28 114 28 209 c 0,10,0
 28 337 28 337 97 426 c 128,-1,1
342 244 m 0,11,12
 342 389 342 389 243 389 c 0,13,14
 140 389 140 389 140 253 c 0,15,16
 140 182 140 182 169 142 c 128,-1,17
 198 102 198 102 245.5 102 c 128,-1,18
 293 102 293 102 317.5 138.5 c 128,-1,19
 342 175 342 175 342 244 c 0,11,12
355 725 m 1,20,-1
 366 623 l 1,21,22
 235 593 235 593 131 575 c 1,23,-1
 126 647 l 1,24,25
 212 672 212 672 355 725 c 1,20,-1
EndSplineSet
EndChar

StartChar: ocircumflex
Encoding: 244 244 181
Width: 482
GlyphClass: 2
Flags: W
LayerCount: 2
Fore
SplineSet
244 566 m 1,0,-1
 100 651 l 1,1,-1
 115 713 l 1,2,-1
 244 666 l 1,3,-1
 375 713 l 1,4,-1
 390 651 l 1,5,-1
 244 566 l 1,0,-1
97 426 m 128,-1,7
 166 515 166 515 258.5 515 c 128,-1,8
 351 515 351 515 402.5 455 c 128,-1,9
 454 395 454 395 454 296 c 0,10,11
 454 164 454 164 387.5 76.5 c 128,-1,12
 321 -11 321 -11 220 -11 c 0,13,14
 137 -11 137 -11 82.5 51.5 c 128,-1,15
 28 114 28 114 28 209 c 0,16,6
 28 337 28 337 97 426 c 128,-1,7
342 244 m 0,17,18
 342 389 342 389 243 389 c 0,19,20
 140 389 140 389 140 253 c 0,21,22
 140 182 140 182 169 142 c 128,-1,23
 198 102 198 102 245.5 102 c 128,-1,24
 293 102 293 102 317.5 138.5 c 128,-1,25
 342 175 342 175 342 244 c 0,17,18
EndSplineSet
EndChar

StartChar: otilde
Encoding: 245 245 182
Width: 482
GlyphClass: 2
Flags: W
LayerCount: 2
Fore
SplineSet
97 426 m 128,-1,1
 166 515 166 515 258.5 515 c 128,-1,2
 351 515 351 515 402.5 455 c 128,-1,3
 454 395 454 395 454 296 c 0,4,5
 454 164 454 164 387.5 76.5 c 128,-1,6
 321 -11 321 -11 220 -11 c 0,7,8
 137 -11 137 -11 82.5 51.5 c 128,-1,9
 28 114 28 114 28 209 c 0,10,0
 28 337 28 337 97 426 c 128,-1,1
342 244 m 0,11,12
 342 389 342 389 243 389 c 0,13,14
 140 389 140 389 140 253 c 0,15,16
 140 182 140 182 169 142 c 128,-1,17
 198 102 198 102 245.5 102 c 128,-1,18
 293 102 293 102 317.5 138.5 c 128,-1,19
 342 175 342 175 342 244 c 0,11,12
382 703 m 1,20,-1
 410 660 l 1,21,22
 382 626 382 626 351.5 600 c 128,-1,23
 321 574 321 574 305 574 c 1,24,25
 290 576 290 576 238.5 595 c 128,-1,26
 187 614 187 614 172 616 c 1,27,-1
 106 574 l 1,28,-1
 78 617 l 1,29,30
 106 651 106 651 136.5 677 c 128,-1,31
 167 703 167 703 183 703 c 1,32,33
 198 701 198 701 249.5 682 c 128,-1,34
 301 663 301 663 316 661 c 1,35,-1
 382 703 l 1,20,-1
EndSplineSet
EndChar

StartChar: odieresis
Encoding: 246 246 183
Width: 482
GlyphClass: 2
Flags: W
LayerCount: 2
Fore
SplineSet
97 426 m 128,-1,1
 166 515 166 515 258.5 515 c 128,-1,2
 351 515 351 515 402.5 455 c 128,-1,3
 454 395 454 395 454 296 c 0,4,5
 454 164 454 164 387.5 76.5 c 128,-1,6
 321 -11 321 -11 220 -11 c 0,7,8
 137 -11 137 -11 82.5 51.5 c 128,-1,9
 28 114 28 114 28 209 c 0,10,0
 28 337 28 337 97 426 c 128,-1,1
342 244 m 0,11,12
 342 389 342 389 243 389 c 0,13,14
 140 389 140 389 140 253 c 0,15,16
 140 182 140 182 169 142 c 128,-1,17
 198 102 198 102 245.5 102 c 128,-1,18
 293 102 293 102 317.5 138.5 c 128,-1,19
 342 175 342 175 342 244 c 0,11,12
120 706 m 128,-1,21
 141 728 141 728 169 728 c 128,-1,22
 197 728 197 728 212 712.5 c 128,-1,23
 227 697 227 697 227 666.5 c 128,-1,24
 227 636 227 636 206 614 c 128,-1,25
 185 592 185 592 157.5 592 c 128,-1,26
 130 592 130 592 114.5 610 c 128,-1,27
 99 628 99 628 99 656 c 128,-1,20
 99 684 99 684 120 706 c 128,-1,21
282 706 m 128,-1,29
 303 728 303 728 332 728 c 0,30,31
 389 728 389 728 389 670 c 0,32,33
 389 636 389 636 368.5 614 c 128,-1,34
 348 592 348 592 320.5 592 c 128,-1,35
 293 592 293 592 277 610 c 128,-1,36
 261 628 261 628 261 656 c 128,-1,28
 261 684 261 684 282 706 c 128,-1,29
EndSplineSet
EndChar

StartChar: divide
Encoding: 247 247 184
Width: 425
GlyphClass: 2
Flags: W
LayerCount: 2
Fore
SplineSet
17 215 m 1,0,-1
 25 306 l 1,1,-1
 408 306 l 1,2,-1
 400 215 l 1,3,-1
 17 215 l 1,0,-1
162.5 478.5 m 128,-1,5
 186 503 186 503 218 503 c 0,6,7
 284 503 284 503 284 437 c 0,8,9
 284 399 284 399 260.5 374 c 128,-1,10
 237 349 237 349 205.5 349 c 128,-1,11
 174 349 174 349 156.5 369.5 c 128,-1,12
 139 390 139 390 139 422 c 128,-1,4
 139 454 139 454 162.5 478.5 c 128,-1,5
162.5 146.5 m 128,-1,14
 186 171 186 171 218 171 c 0,15,16
 284 171 284 171 284 105 c 0,17,18
 284 67 284 67 260.5 42 c 128,-1,19
 237 17 237 17 205.5 17 c 128,-1,20
 174 17 174 17 156.5 37.5 c 128,-1,21
 139 58 139 58 139 90 c 128,-1,13
 139 122 139 122 162.5 146.5 c 128,-1,14
EndSplineSet
EndChar

StartChar: oslash
Encoding: 248 248 185
Width: 482
GlyphClass: 2
Flags: W
LayerCount: 2
Fore
SplineSet
265 515 m 0,0,1
 311 515 311 515 349 496 c 1,2,-1
 413 611 l 1,3,-1
 457 593 l 1,4,-1
 388 469 l 1,5,6
 454 409 454 409 454 286.5 c 128,-1,7
 454 164 454 164 387.5 76.5 c 128,-1,8
 321 -11 321 -11 220 -11 c 0,9,10
 176 -11 176 -11 134 10 c 1,11,-1
 74 -99 l 1,12,-1
 31 -80 l 1,13,-1
 96 37 l 1,14,15
 28 102 28 102 28 209 c 0,16,17
 28 337 28 337 97 426 c 128,-1,18
 166 515 166 515 265 515 c 0,0,1
317.5 138.5 m 128,-1,20
 342 175 342 175 342 243.5 c 128,-1,21
 342 312 342 312 321 348 c 1,22,-1
 194 117 l 1,23,24
 216 102 216 102 254.5 102 c 128,-1,19
 293 102 293 102 317.5 138.5 c 128,-1,20
140 253 m 0,25,26
 140 192 140 192 161 155 c 1,27,-1
 286 381 l 1,28,29
 267 389 267 389 243 389 c 0,30,31
 140 389 140 389 140 253 c 0,25,26
EndSplineSet
EndChar

StartChar: ugrave
Encoding: 249 249 186
Width: 510
GlyphClass: 2
Flags: W
LayerCount: 2
Fore
SplineSet
178 0 m 0,0,1
 124 0 124 0 90.5 35.5 c 128,-1,2
 57 71 57 71 57 129 c 1,3,-1
 63 244 l 1,4,-1
 52 484 l 1,5,-1
 186 509 l 1,6,-1
 173 205 l 1,7,8
 173 162 173 162 188.5 142 c 128,-1,9
 204 122 204 122 238 122 c 128,-1,10
 272 122 272 122 332 156 c 1,11,-1
 332 216 l 1,12,-1
 321 479 l 1,13,-1
 456 504 l 1,14,-1
 444 254 l 1,15,-1
 445 172 l 2,16,17
 445 108 445 108 478 43 c 1,18,-1
 374 -3 l 1,19,20
 341 62 341 62 334 101 c 1,21,22
 244 0 244 0 178 0 c 0,0,1
140 623 m 1,23,-1
 151 725 l 1,24,25
 279 677 279 677 380 647 c 1,26,-1
 375 575 l 1,27,-1
 140 623 l 1,23,-1
EndSplineSet
EndChar

StartChar: uacute
Encoding: 250 250 187
Width: 510
GlyphClass: 2
Flags: W
LayerCount: 2
Fore
SplineSet
178 0 m 0,0,1
 124 0 124 0 90.5 35.5 c 128,-1,2
 57 71 57 71 57 129 c 1,3,-1
 63 244 l 1,4,-1
 52 484 l 1,5,-1
 186 509 l 1,6,-1
 173 205 l 1,7,8
 173 162 173 162 188.5 142 c 128,-1,9
 204 122 204 122 238 122 c 128,-1,10
 272 122 272 122 332 156 c 1,11,-1
 332 216 l 1,12,-1
 321 479 l 1,13,-1
 456 504 l 1,14,-1
 444 254 l 1,15,-1
 445 172 l 2,16,17
 445 108 445 108 478 43 c 1,18,-1
 374 -3 l 1,19,20
 341 62 341 62 334 101 c 1,21,22
 244 0 244 0 178 0 c 0,0,1
369 725 m 1,23,-1
 380 623 l 1,24,25
 249 593 249 593 145 575 c 1,26,-1
 140 647 l 1,27,28
 225 672 225 672 369 725 c 1,23,-1
EndSplineSet
EndChar

StartChar: ucircumflex
Encoding: 251 251 188
Width: 510
GlyphClass: 2
Flags: W
LayerCount: 2
Fore
SplineSet
178 0 m 0,0,1
 124 0 124 0 90.5 35.5 c 128,-1,2
 57 71 57 71 57 129 c 1,3,-1
 63 244 l 1,4,-1
 52 484 l 1,5,-1
 186 509 l 1,6,-1
 173 205 l 1,7,8
 173 162 173 162 188.5 142 c 128,-1,9
 204 122 204 122 238 122 c 128,-1,10
 272 122 272 122 332 156 c 1,11,-1
 332 216 l 1,12,-1
 321 479 l 1,13,-1
 456 504 l 1,14,-1
 444 254 l 1,15,-1
 445 172 l 2,16,17
 445 108 445 108 478 43 c 1,18,-1
 374 -3 l 1,19,20
 341 62 341 62 334 101 c 1,21,22
 244 0 244 0 178 0 c 0,0,1
258 566 m 1,23,-1
 114 651 l 1,24,-1
 129 713 l 1,25,-1
 258 666 l 1,26,-1
 389 713 l 1,27,-1
 404 651 l 1,28,-1
 258 566 l 1,23,-1
EndSplineSet
EndChar

StartChar: udieresis
Encoding: 252 252 189
Width: 510
GlyphClass: 2
Flags: W
LayerCount: 2
Fore
SplineSet
178 0 m 0,0,1
 124 0 124 0 90.5 35.5 c 128,-1,2
 57 71 57 71 57 129 c 1,3,-1
 63 244 l 1,4,-1
 52 484 l 1,5,-1
 186 509 l 1,6,-1
 173 205 l 1,7,8
 173 162 173 162 188.5 142 c 128,-1,9
 204 122 204 122 238 122 c 128,-1,10
 272 122 272 122 332 156 c 1,11,-1
 332 216 l 1,12,-1
 321 479 l 1,13,-1
 456 504 l 1,14,-1
 444 254 l 1,15,-1
 445 172 l 2,16,17
 445 108 445 108 478 43 c 1,18,-1
 374 -3 l 1,19,20
 341 62 341 62 334 101 c 1,21,22
 244 0 244 0 178 0 c 0,0,1
296 706 m 128,-1,24
 317 728 317 728 346 728 c 0,25,26
 403 728 403 728 403 670 c 0,27,28
 403 636 403 636 382.5 614 c 128,-1,29
 362 592 362 592 334.5 592 c 128,-1,30
 307 592 307 592 291 610 c 128,-1,31
 275 628 275 628 275 656 c 128,-1,23
 275 684 275 684 296 706 c 128,-1,24
134 706 m 128,-1,33
 155 728 155 728 183 728 c 128,-1,34
 211 728 211 728 226 712.5 c 128,-1,35
 241 697 241 697 241 666.5 c 128,-1,36
 241 636 241 636 220 614 c 128,-1,37
 199 592 199 592 171.5 592 c 128,-1,38
 144 592 144 592 128.5 610 c 128,-1,39
 113 628 113 628 113 656 c 128,-1,32
 113 684 113 684 134 706 c 128,-1,33
EndSplineSet
EndChar

StartChar: yacute
Encoding: 253 253 190
Width: 465
GlyphClass: 2
Flags: W
LayerCount: 2
Fore
SplineSet
72 -193 m 1,0,-1
 175 38 l 1,1,-1
 101 240 l 1,2,-1
 0 483 l 1,3,-1
 133 508 l 1,4,-1
 197 295 l 1,5,-1
 230 194 l 1,6,-1
 243 194 l 1,7,-1
 267 267 l 1,8,-1
 339 509 l 1,9,-1
 462 494 l 1,10,-1
 285 29 l 1,11,-1
 201 -220 l 1,12,-1
 72 -193 l 1,0,-1
344 725 m 1,13,-1
 355 623 l 1,14,15
 224 593 224 593 120 575 c 1,16,-1
 115 647 l 1,17,18
 200 672 200 672 344 725 c 1,13,-1
EndSplineSet
EndChar

StartChar: thorn
Encoding: 254 254 191
Width: 499
GlyphClass: 2
Flags: W
LayerCount: 2
Fore
SplineSet
323 505 m 0,0,1
 387 505 387 505 430.5 449 c 128,-1,2
 474 393 474 393 474 298 c 0,3,4
 474 165 474 165 405.5 82.5 c 128,-1,5
 337 0 337 0 235 0 c 0,6,7
 214 0 214 0 188 3 c 1,8,-1
 193 -188 l 1,9,-1
 56 -213 l 1,10,-1
 69 243 l 1,11,-1
 57 749 l 1,12,-1
 194 774 l 1,13,-1
 181 516 l 1,14,-1
 181 407 l 1,15,16
 191 421 191 421 207 439.5 c 128,-1,17
 223 458 223 458 257.5 481.5 c 128,-1,18
 292 505 292 505 323 505 c 0,0,1
284 375 m 0,19,20
 231 375 231 375 181 346 c 1,21,-1
 181 260 l 1,22,-1
 185 117 l 1,23,24
 239 108 239 108 267 108 c 0,25,26
 363 108 363 108 363 241.5 c 128,-1,27
 363 375 363 375 284 375 c 0,19,20
181 260 m 1,28,-1
 70 243 l 1,29,-1
 181 260 l 1,28,-1
EndSplineSet
EndChar

StartChar: ydieresis
Encoding: 255 255 192
Width: 465
GlyphClass: 2
Flags: W
LayerCount: 2
Fore
SplineSet
72 -193 m 1,0,-1
 175 38 l 1,1,-1
 101 240 l 1,2,-1
 0 483 l 1,3,-1
 133 508 l 1,4,-1
 197 295 l 1,5,-1
 230 194 l 1,6,-1
 243 194 l 1,7,-1
 267 267 l 1,8,-1
 339 509 l 1,9,-1
 462 494 l 1,10,-1
 285 29 l 1,11,-1
 201 -220 l 1,12,-1
 72 -193 l 1,0,-1
109 706 m 128,-1,14
 130 728 130 728 158 728 c 128,-1,15
 186 728 186 728 201 712.5 c 128,-1,16
 216 697 216 697 216 666.5 c 128,-1,17
 216 636 216 636 195 614 c 128,-1,18
 174 592 174 592 146.5 592 c 128,-1,19
 119 592 119 592 103.5 610 c 128,-1,20
 88 628 88 628 88 656 c 128,-1,13
 88 684 88 684 109 706 c 128,-1,14
271 706 m 128,-1,22
 292 728 292 728 320 728 c 0,23,24
 378 728 378 728 378 670 c 0,25,26
 378 636 378 636 357.5 614 c 128,-1,27
 337 592 337 592 309.5 592 c 128,-1,28
 282 592 282 592 266 610 c 128,-1,29
 250 628 250 628 250 656 c 128,-1,21
 250 684 250 684 271 706 c 128,-1,22
EndSplineSet
EndChar

StartChar: hbar
Encoding: 295 295 193
Width: 525
GlyphClass: 2
Flags: W
LayerCount: 2
Fore
SplineSet
275 480 m 128,-1,1
 315 504 315 504 360.5 504 c 128,-1,2
 406 504 406 504 437 468.5 c 128,-1,3
 468 433 468 433 468 372 c 1,4,-1
 462 260 l 1,5,-1
 473 20 l 1,6,-1
 338 -5 l 1,7,-1
 350 253 l 1,8,9
 350 322 350 322 338 345 c 128,-1,10
 326 368 326 368 282 368 c 128,-1,11
 238 368 238 368 182 333 c 1,12,-1
 182 260 l 1,13,-1
 193 25 l 1,14,-1
 58 0 l 1,15,-1
 70 243 l 1,16,-1
 62 574 l 1,17,-1
 -8 574 l 1,18,-1
 -3 621 l 1,19,-1
 61 621 l 1,20,-1
 58 749 l 1,21,-1
 195 774 l 1,22,-1
 187 621 l 1,23,-1
 305 621 l 1,24,-1
 301 574 l 1,25,-1
 185 574 l 1,26,-1
 182 515 l 1,27,-1
 182 398 l 1,28,29
 197 418 197 418 216 437 c 128,-1,0
 235 456 235 456 275 480 c 128,-1,1
EndSplineSet
EndChar

StartChar: Itilde
Encoding: 296 296 194
Width: 302
GlyphClass: 2
Flags: W
LayerCount: 2
Fore
SplineSet
222 695 m 1,0,-1
 208 260 l 1,1,-1
 220 0 l 1,2,-1
 80 0 l 1,3,-1
 92 243 l 1,4,-1
 80 670 l 1,5,-1
 222 695 l 1,0,-1
290 888 m 1,6,-1
 318 845 l 1,7,8
 290 811 290 811 259.5 785 c 128,-1,9
 229 759 229 759 213 759 c 1,10,11
 198 761 198 761 146.5 780 c 128,-1,12
 95 799 95 799 80 801 c 1,13,-1
 14 759 l 1,14,-1
 -14 802 l 1,15,16
 14 836 14 836 44.5 862 c 128,-1,17
 75 888 75 888 91 888 c 1,18,19
 106 886 106 886 157.5 867 c 128,-1,20
 209 848 209 848 224 846 c 1,21,-1
 290 888 l 1,6,-1
EndSplineSet
EndChar

StartChar: itilde
Encoding: 297 297 195
Width: 244
GlyphClass: 2
Flags: W
LayerCount: 2
Fore
SplineSet
192 509 m 1,0,-1
 180 260 l 1,1,-1
 191 25 l 1,2,-1
 57 0 l 1,3,-1
 69 243 l 1,4,-1
 58 484 l 1,5,-1
 192 509 l 1,0,-1
261 703 m 1,6,-1
 289 660 l 1,7,8
 261 626 261 626 230.5 600 c 128,-1,9
 200 574 200 574 184 574 c 1,10,11
 169 576 169 576 117.5 595 c 128,-1,12
 66 614 66 614 51 616 c 1,13,-1
 -15 574 l 1,14,-1
 -43 617 l 1,15,16
 -15 651 -15 651 15.5 677 c 128,-1,17
 46 703 46 703 62 703 c 1,18,19
 77 701 77 701 128.5 682 c 128,-1,20
 180 663 180 663 195 661 c 1,21,-1
 261 703 l 1,6,-1
EndSplineSet
EndChar

StartChar: dotlessi
Encoding: 305 305 196
Width: 244
GlyphClass: 2
Flags: W
LayerCount: 2
Fore
SplineSet
192 509 m 1,0,-1
 180 260 l 1,1,-1
 191 25 l 1,2,-1
 57 0 l 1,3,-1
 69 243 l 1,4,-1
 58 484 l 1,5,-1
 192 509 l 1,0,-1
EndSplineSet
EndChar

StartChar: ij
Encoding: 307 307 197
Width: 491
GlyphClass: 2
Flags: W
LayerCount: 2
Fore
SplineSet
192 509 m 1,0,-1
 180 260 l 1,1,-1
 191 25 l 1,2,-1
 57 0 l 1,3,-1
 69 243 l 1,4,-1
 58 484 l 1,5,-1
 192 509 l 1,0,-1
77 715.5 m 128,-1,7
 103 742 103 742 137 742 c 128,-1,8
 171 742 171 742 189 723.5 c 128,-1,9
 207 705 207 705 207 668 c 128,-1,10
 207 631 207 631 181.5 604.5 c 128,-1,11
 156 578 156 578 122.5 578 c 128,-1,12
 89 578 89 578 70 600 c 128,-1,13
 51 622 51 622 51 655.5 c 128,-1,6
 51 689 51 689 77 715.5 c 128,-1,7
247 -220 m 0,14,15
 206 -220 206 -220 165 -211 c 1,16,-1
 196 -97 l 1,17,18
 230 -106 230 -106 259.5 -106 c 128,-1,19
 289 -106 289 -106 302 -84 c 128,-1,20
 315 -62 315 -62 315 -5 c 2,21,-1
 314 243 l 1,22,-1
 303 484 l 1,23,-1
 437 509 l 1,24,-1
 425 260 l 1,25,-1
 436 34 l 1,26,27
 436 -70 436 -70 380 -145 c 128,-1,28
 324 -220 324 -220 247 -220 c 0,14,15
322 715.5 m 128,-1,30
 348 742 348 742 382.5 742 c 128,-1,31
 417 742 417 742 434.5 723.5 c 128,-1,32
 452 705 452 705 452 668.5 c 128,-1,33
 452 632 452 632 427 605 c 128,-1,34
 402 578 402 578 368.5 578 c 128,-1,35
 335 578 335 578 315.5 599 c 128,-1,36
 296 620 296 620 296 654.5 c 128,-1,29
 296 689 296 689 322 715.5 c 128,-1,30
EndSplineSet
EndChar

StartChar: Jcircumflex
Encoding: 308 308 198
Width: 353
GlyphClass: 2
Flags: W
LayerCount: 2
Fore
SplineSet
215 751 m 1,0,-1
 71 836 l 1,1,-1
 86 898 l 1,2,-1
 215 851 l 1,3,-1
 346 898 l 1,4,-1
 361 836 l 1,5,-1
 215 751 l 1,0,-1
82 -10 m 0,6,7
 41 -10 41 -10 0 -1 c 1,8,-1
 32 119 l 1,9,10
 65 108 65 108 96 108 c 0,11,12
 157 108 157 108 157 209 c 1,13,-1
 143 670 l 1,14,-1
 285 695 l 1,15,-1
 271 244 l 1,16,17
 271 135 271 135 218 62.5 c 128,-1,18
 165 -10 165 -10 82 -10 c 0,6,7
EndSplineSet
EndChar

StartChar: jcircumflex
Encoding: 309 309 199
Width: 247
GlyphClass: 2
Flags: W
LayerCount: 2
Fore
SplineSet
3 -220 m 0,0,1
 -38 -220 -38 -220 -79 -211 c 1,2,-1
 -48 -97 l 1,3,4
 -14 -106 -14 -106 15.5 -106 c 128,-1,5
 45 -106 45 -106 58 -84 c 128,-1,6
 71 -62 71 -62 71 -5 c 2,7,-1
 70 243 l 1,8,-1
 59 484 l 1,9,-1
 193 509 l 1,10,-1
 181 260 l 1,11,-1
 192 34 l 1,12,13
 192 -70 192 -70 136 -145 c 128,-1,14
 80 -220 80 -220 3 -220 c 0,0,1
122 566 m 1,15,-1
 -22 651 l 1,16,-1
 -7 713 l 1,17,-1
 122 666 l 1,18,-1
 253 713 l 1,19,-1
 268 651 l 1,20,-1
 122 566 l 1,15,-1
EndSplineSet
EndChar

StartChar: kcedilla
Encoding: 311 311 200
Width: 482
GlyphClass: 2
Flags: W
LayerCount: 2
Fore
SplineSet
147 -125 m 0,0,1
 147 -94 147 -94 78 -85 c 1,2,-1
 96 7 l 1,3,-1
 58 0 l 1,4,-1
 70 243 l 1,5,-1
 58 749 l 1,6,-1
 195 774 l 1,7,-1
 182 291 l 1,8,-1
 382 510 l 1,9,-1
 476 446 l 1,10,-1
 301 282 l 1,11,-1
 484 66 l 1,12,-1
 370 -10 l 1,13,-1
 182 267 l 1,14,-1
 182 260 l 1,15,-1
 193 25 l 1,16,-1
 161 19 l 1,17,-1
 150 -40 l 1,18,19
 190 -50 190 -50 211.5 -69.5 c 128,-1,20
 233 -89 233 -89 233 -115 c 0,21,22
 233 -152 233 -152 192 -182 c 128,-1,23
 151 -212 151 -212 89 -220 c 1,24,-1
 57 -176 l 1,25,26
 147 -160 147 -160 147 -125 c 0,0,1
EndSplineSet
EndChar

StartChar: kgreenlandic
Encoding: 312 312 201
Width: 482
GlyphClass: 2
Flags: W
LayerCount: 2
Fore
SplineSet
192 509 m 1,0,-1
 181 290 l 1,1,-1
 382 510 l 1,2,-1
 476 446 l 1,3,-1
 301 282 l 1,4,-1
 484 66 l 1,5,-1
 370 -10 l 1,6,-1
 180 270 l 1,7,-1
 180 260 l 1,8,-1
 191 25 l 1,9,-1
 57 0 l 1,10,-1
 69 243 l 1,11,-1
 58 484 l 1,12,-1
 192 509 l 1,0,-1
EndSplineSet
EndChar

StartChar: ldot
Encoding: 320 320 202
Width: 377
GlyphClass: 2
Flags: W
LayerCount: 2
Fore
SplineSet
195 774 m 1,0,-1
 182 260 l 1,1,-1
 193 25 l 1,2,-1
 58 0 l 1,3,-1
 70 243 l 1,4,-1
 58 749 l 1,5,-1
 195 774 l 1,0,-1
245.5 351.5 m 128,-1,7
 269 376 269 376 302 376 c 0,8,9
 367 376 367 376 367 310 c 0,10,11
 367 272 367 272 343.5 247 c 128,-1,12
 320 222 320 222 288.5 222 c 128,-1,13
 257 222 257 222 239.5 242.5 c 128,-1,14
 222 263 222 263 222 295 c 128,-1,6
 222 327 222 327 245.5 351.5 c 128,-1,7
EndSplineSet
EndChar

StartChar: Lslash
Encoding: 321 321 203
Width: 446
GlyphClass: 2
Flags: W
LayerCount: 2
Fore
SplineSet
242 695 m 1,0,-1
 234 451 l 1,1,-1
 349 515 l 1,2,-1
 369 471 l 1,3,-1
 232 395 l 1,4,-1
 228 260 l 1,5,-1
 235 98 l 1,6,-1
 440 114 l 1,7,-1
 429 0 l 1,8,-1
 100 0 l 1,9,-1
 112 243 l 1,10,-1
 109 328 l 1,11,-1
 21 279 l 1,12,-1
 3 323 l 1,13,-1
 108 381 l 1,14,-1
 100 670 l 1,15,-1
 242 695 l 1,0,-1
EndSplineSet
EndChar

StartChar: lslash
Encoding: 322 322 204
Width: 273
GlyphClass: 2
Flags: W
LayerCount: 2
Fore
SplineSet
205 774 m 1,0,-1
 197 470 l 1,1,-1
 278 515 l 1,2,-1
 298 471 l 1,3,-1
 196 414 l 1,4,-1
 192 260 l 1,5,-1
 203 25 l 1,6,-1
 68 0 l 1,7,-1
 80 243 l 1,8,-1
 77 349 l 1,9,-1
 -1 306 l 1,10,-1
 -19 350 l 1,11,-1
 76 403 l 1,12,-1
 68 749 l 1,13,-1
 205 774 l 1,0,-1
EndSplineSet
EndChar

StartChar: Nacute
Encoding: 323 323 205
Width: 689
GlyphClass: 2
Flags: W
LayerCount: 2
Fore
SplineSet
609 692 m 1,0,-1
 596 260 l 1,1,-1
 607 22 l 1,2,-1
 489 -3 l 1,3,-1
 191 479 l 1,4,-1
 191 260 l 1,5,-1
 205 0 l 1,6,-1
 80 0 l 1,7,-1
 92 243 l 1,8,-1
 80 687 l 1,9,-1
 200 693 l 1,10,-1
 497 204 l 1,11,-1
 487 677 l 1,12,-1
 609 692 l 1,0,-1
456 910 m 1,13,-1
 467 808 l 1,14,15
 336 778 336 778 232 760 c 1,16,-1
 227 832 l 1,17,18
 312 857 312 857 456 910 c 1,13,-1
EndSplineSet
EndChar

StartChar: nacute
Encoding: 324 324 206
Width: 523
GlyphClass: 2
Flags: W
LayerCount: 2
Fore
SplineSet
336 345 m 128,-1,1
 324 368 324 368 280 368 c 128,-1,2
 236 368 236 368 180 333 c 1,3,-1
 180 260 l 1,4,-1
 191 25 l 1,5,-1
 57 0 l 1,6,-1
 69 243 l 1,7,8
 65 377 65 377 47 483 c 1,9,-1
 168 509 l 1,10,11
 175 451 175 451 178 396 c 1,12,13
 193 416 193 416 212 435.5 c 128,-1,14
 231 455 231 455 272 479.5 c 128,-1,15
 313 504 313 504 358.5 504 c 128,-1,16
 404 504 404 504 435 468.5 c 128,-1,17
 466 433 466 433 466 372 c 1,18,-1
 460 260 l 1,19,-1
 471 20 l 1,20,-1
 336 -5 l 1,21,-1
 348 253 l 1,22,0
 348 322 348 322 336 345 c 128,-1,1
387 725 m 1,23,-1
 398 623 l 1,24,25
 267 593 267 593 163 575 c 1,26,-1
 158 647 l 1,27,28
 244 672 244 672 387 725 c 1,23,-1
EndSplineSet
EndChar

StartChar: OE
Encoding: 338 338 207
Width: 893
GlyphClass: 2
Flags: W
LayerCount: 2
Fore
SplineSet
301 0 m 2,0,1
 186 0 186 0 108 89.5 c 128,-1,2
 30 179 30 179 30 310 c 0,3,4
 30 470 30 470 125.5 580 c 128,-1,5
 221 690 221 690 360 690 c 2,6,-1
 837 690 l 1,7,-1
 826 583 l 1,8,-1
 566 583 l 1,9,-1
 560 406 l 1,10,-1
 795 406 l 1,11,-1
 784 300 l 1,12,-1
 556 300 l 1,13,-1
 555 260 l 1,14,-1
 562 106 l 1,15,-1
 839 106 l 1,16,-1
 828 0 l 1,17,-1
 301 0 l 2,0,1
339 573 m 0,18,19
 258 573 258 573 212 518 c 128,-1,20
 166 463 166 463 166 366 c 0,21,22
 166 239 166 239 214 170 c 128,-1,23
 262 101 262 101 350 101 c 0,24,25
 401 101 401 101 419.5 116 c 128,-1,26
 438 131 438 131 438 174 c 2,27,-1
 435 493 l 2,28,29
 435 544 435 544 417 558.5 c 128,-1,30
 399 573 399 573 339 573 c 0,18,19
EndSplineSet
EndChar

StartChar: oe
Encoding: 339 339 208
Width: 777
GlyphClass: 2
Flags: W
LayerCount: 2
Fore
SplineSet
569 102 m 0,0,1
 598 102 598 102 630 117 c 128,-1,2
 662 132 662 132 680 147 c 2,3,-1
 698 162 l 1,4,-1
 744 106 l 1,5,6
 734 89 734 89 713 67 c 128,-1,7
 692 45 692 45 670.5 29.5 c 128,-1,8
 649 14 649 14 613.5 1.5 c 128,-1,9
 578 -11 578 -11 540 -11 c 0,10,11
 437 -11 437 -11 387 87 c 1,12,13
 323 -11 323 -11 220 -11 c 0,14,15
 137 -11 137 -11 82.5 51.5 c 128,-1,16
 28 114 28 114 28 209 c 0,17,18
 28 337 28 337 97 426 c 128,-1,19
 166 515 166 515 265 515 c 0,20,21
 318 515 318 515 359 487.5 c 128,-1,22
 400 460 400 460 422 411 c 1,23,24
 493 515 493 515 594 515 c 0,25,26
 667 515 667 515 707.5 474 c 128,-1,27
 748 433 748 433 748 359 c 0,28,29
 748 323 748 323 733 259 c 1,30,-1
 713 238 l 1,31,-1
 463 216 l 1,32,33
 480 102 480 102 569 102 c 0,0,1
243 389 m 0,34,35
 140 389 140 389 140 253 c 0,36,37
 140 182 140 182 169 142 c 128,-1,38
 198 102 198 102 246 102 c 0,39,40
 342 102 342 102 342 245.5 c 128,-1,41
 342 389 342 389 243 389 c 0,34,35
569 412 m 0,42,43
 526 412 526 412 496 376.5 c 128,-1,44
 466 341 466 341 461 285 c 1,45,-1
 630 307 l 1,46,47
 633 330 633 330 633 345 c 0,48,49
 633 412 633 412 569 412 c 0,42,43
EndSplineSet
EndChar

StartChar: Racute
Encoding: 340 340 209
Width: 579
GlyphClass: 2
Flags: W
LayerCount: 2
Fore
SplineSet
259 266 m 2,0,-1
 202 266 l 1,1,-1
 202 260 l 1,2,-1
 214 0 l 1,3,-1
 80 0 l 1,4,-1
 92 243 l 1,5,-1
 80 690 l 1,6,-1
 297 690 l 2,7,8
 393 690 393 690 450 638 c 128,-1,9
 507 586 507 586 507 500 c 0,10,11
 507 435 507 435 473.5 381.5 c 128,-1,12
 440 328 440 328 383 297 c 1,13,-1
 557 51 l 1,14,-1
 436 -11 l 1,15,-1
 280 267 l 1,16,17
 273 266 273 266 259 266 c 2,0,-1
261 589 m 2,18,-1
 212 589 l 1,19,-1
 205 363 l 1,20,-1
 273 363 l 2,21,22
 323 363 323 363 350.5 396 c 128,-1,23
 378 429 378 429 378 490 c 0,24,25
 378 589 378 589 261 589 c 2,18,-1
395 910 m 1,26,-1
 406 808 l 1,27,28
 275 778 275 778 171 760 c 1,29,-1
 166 832 l 1,30,31
 252 857 252 857 395 910 c 1,26,-1
EndSplineSet
EndChar

StartChar: Rcommaaccent
Encoding: 342 342 210
Width: 579
GlyphClass: 2
Flags: W
LayerCount: 2
Fore
SplineSet
259 266 m 2,0,-1
 202 266 l 1,1,-1
 202 260 l 1,2,-1
 214 0 l 1,3,-1
 80 0 l 1,4,-1
 92 243 l 1,5,-1
 80 690 l 1,6,-1
 297 690 l 2,7,8
 393 690 393 690 450 638 c 128,-1,9
 507 586 507 586 507 500 c 0,10,11
 507 435 507 435 473.5 381.5 c 128,-1,12
 440 328 440 328 383 297 c 1,13,-1
 557 51 l 1,14,-1
 436 -11 l 1,15,-1
 280 267 l 1,16,17
 273 266 273 266 259 266 c 2,0,-1
261 589 m 2,18,-1
 212 589 l 1,19,-1
 205 363 l 1,20,-1
 273 363 l 2,21,22
 323 363 323 363 350.5 396 c 128,-1,23
 378 429 378 429 378 490 c 0,24,25
 378 589 378 589 261 589 c 2,18,-1
EndSplineSet
EndChar

StartChar: rcommaaccent
Encoding: 343 343 211
Width: 356
GlyphClass: 2
Flags: W
LayerCount: 2
Fore
SplineSet
47 483 m 1,0,-1
 168 509 l 1,1,2
 177 432 177 432 180 363 c 1,3,4
 271 504 271 504 351 504 c 1,5,-1
 340 348 l 1,6,7
 282 348 282 348 248.5 337.5 c 128,-1,8
 215 327 215 327 180 296 c 1,9,-1
 180 260 l 1,10,-1
 191 25 l 1,11,-1
 57 0 l 1,12,-1
 69 243 l 1,13,14
 65 377 65 377 47 483 c 1,0,-1
200 -127 m 0,15,16
 200 -212 200 -212 76 -307 c 1,17,-1
 35 -277 l 1,18,19
 94 -208 94 -208 94 -158 c 0,20,21
 94 -127 94 -127 68 -79 c 1,22,-1
 166 -40 l 1,23,24
 200 -83 200 -83 200 -127 c 0,15,16
EndSplineSet
EndChar

StartChar: Rcaron
Encoding: 344 344 212
Width: 579
GlyphClass: 2
Flags: W
LayerCount: 2
Fore
SplineSet
259 266 m 2,0,-1
 202 266 l 1,1,-1
 202 260 l 1,2,-1
 214 0 l 1,3,-1
 80 0 l 1,4,-1
 92 243 l 1,5,-1
 80 690 l 1,6,-1
 297 690 l 2,7,8
 393 690 393 690 450 638 c 128,-1,9
 507 586 507 586 507 500 c 0,10,11
 507 435 507 435 473.5 381.5 c 128,-1,12
 440 328 440 328 383 297 c 1,13,-1
 557 51 l 1,14,-1
 436 -11 l 1,15,-1
 280 267 l 1,16,17
 273 266 273 266 259 266 c 2,0,-1
261 589 m 2,18,-1
 212 589 l 1,19,-1
 205 363 l 1,20,-1
 273 363 l 2,21,22
 323 363 323 363 350.5 396 c 128,-1,23
 378 429 378 429 378 490 c 0,24,25
 378 589 378 589 261 589 c 2,18,-1
284 751 m 1,26,-1
 140 836 l 1,27,-1
 155 898 l 1,28,-1
 284 851 l 1,29,-1
 415 898 l 1,30,-1
 430 836 l 1,31,-1
 284 751 l 1,26,-1
EndSplineSet
EndChar

StartChar: rcaron
Encoding: 345 345 213
Width: 356
GlyphClass: 2
Flags: W
LayerCount: 2
Fore
SplineSet
47 483 m 1,0,-1
 168 509 l 1,1,2
 177 432 177 432 180 363 c 1,3,4
 271 504 271 504 351 504 c 1,5,-1
 340 348 l 1,6,7
 282 348 282 348 248.5 337.5 c 128,-1,8
 215 327 215 327 180 296 c 1,9,-1
 180 260 l 1,10,-1
 191 25 l 1,11,-1
 57 0 l 1,12,-1
 69 243 l 1,13,14
 65 377 65 377 47 483 c 1,0,-1
117 566 m 1,15,-1
 2 651 l 1,16,-1
 14 713 l 1,17,-1
 117 666 l 1,18,-1
 222 713 l 1,19,-1
 234 651 l 1,20,-1
 117 566 l 1,15,-1
EndSplineSet
EndChar

StartChar: circumflex
Encoding: 710 710 214
Width: 244
GlyphClass: 2
Flags: W
LayerCount: 2
Fore
SplineSet
121 566 m 1,0,-1
 -23 651 l 1,1,-1
 -8 713 l 1,2,-1
 121 666 l 1,3,-1
 252 713 l 1,4,-1
 267 651 l 1,5,-1
 121 566 l 1,0,-1
EndSplineSet
EndChar

StartChar: tilde
Encoding: 732 732 215
Width: 244
GlyphClass: 2
Flags: W
LayerCount: 2
Fore
SplineSet
260 703 m 1,0,-1
 288 660 l 1,1,2
 260 626 260 626 229.5 600 c 128,-1,3
 199 574 199 574 183 574 c 1,4,5
 168 576 168 576 116.5 595 c 128,-1,6
 65 614 65 614 50 616 c 1,7,-1
 -16 574 l 1,8,-1
 -44 617 l 1,9,10
 -16 651 -16 651 14.5 677 c 128,-1,11
 45 703 45 703 61 703 c 1,12,13
 76 701 76 701 127.5 682 c 128,-1,14
 179 663 179 663 194 661 c 1,15,-1
 260 703 l 1,0,-1
EndSplineSet
EndChar

StartChar: endash
Encoding: 8211 8211 216
Width: 425
GlyphClass: 2
Flags: W
LayerCount: 2
Fore
SplineSet
-8 215 m 1,0,-1
 0 306 l 1,1,-1
 433 306 l 1,2,-1
 425 215 l 1,3,-1
 -8 215 l 1,0,-1
EndSplineSet
EndChar

StartChar: emdash
Encoding: 8212 8212 217
Width: 551
GlyphClass: 2
Flags: W
LayerCount: 2
Fore
SplineSet
-8 215 m 1,0,-1
 0 306 l 1,1,-1
 559 306 l 1,2,-1
 551 215 l 1,3,-1
 -8 215 l 1,0,-1
EndSplineSet
EndChar

StartChar: quoteleft
Encoding: 8216 8216 218
Width: 193
GlyphClass: 2
Flags: W
LayerCount: 2
Fore
SplineSet
18 464 m 0,0,1
 18 549 18 549 142 644 c 1,2,-1
 183 614 l 1,3,4
 124 545 124 545 124 495 c 0,5,6
 124 464 124 464 150 416 c 1,7,-1
 52 377 l 1,8,9
 18 420 18 420 18 464 c 0,0,1
EndSplineSet
EndChar

StartChar: quoteright
Encoding: 8217 8217 219
Width: 193
GlyphClass: 2
Flags: W
LayerCount: 2
Fore
SplineSet
175 557 m 0,0,1
 175 472 175 472 51 377 c 1,2,-1
 10 407 l 1,3,4
 69 476 69 476 69 526 c 0,5,6
 69 557 69 557 43 605 c 1,7,-1
 141 644 l 1,8,9
 175 601 175 601 175 557 c 0,0,1
EndSplineSet
EndChar

StartChar: quotesinglbase
Encoding: 8218 8218 220
Width: 205
GlyphClass: 2
Flags: W
LayerCount: 2
Fore
SplineSet
165 67 m 0,0,1
 165 -18 165 -18 41 -113 c 1,2,-1
 0 -83 l 1,3,4
 59 -14 59 -14 59 36 c 0,5,6
 59 67 59 67 33 115 c 1,7,-1
 131 154 l 1,8,9
 165 111 165 111 165 67 c 0,0,1
EndSplineSet
EndChar

StartChar: quotedblleft
Encoding: 8220 8220 221
Width: 363
GlyphClass: 2
Flags: W
LayerCount: 2
Fore
SplineSet
18 464 m 0,0,1
 18 549 18 549 142 644 c 1,2,-1
 183 614 l 1,3,4
 124 545 124 545 124 495 c 0,5,6
 124 464 124 464 150 416 c 1,7,-1
 52 377 l 1,8,9
 18 420 18 420 18 464 c 0,0,1
188 464 m 0,10,11
 188 549 188 549 312 644 c 1,12,-1
 353 614 l 1,13,14
 294 545 294 545 294 495 c 0,15,16
 294 464 294 464 320 416 c 1,17,-1
 222 377 l 1,18,19
 188 420 188 420 188 464 c 0,10,11
EndSplineSet
EndChar

StartChar: quotedblright
Encoding: 8221 8221 222
Width: 363
GlyphClass: 2
Flags: W
LayerCount: 2
Fore
SplineSet
175 557 m 0,0,1
 175 472 175 472 51 377 c 1,2,-1
 10 407 l 1,3,4
 69 476 69 476 69 526 c 0,5,6
 69 557 69 557 43 605 c 1,7,-1
 141 644 l 1,8,9
 175 601 175 601 175 557 c 0,0,1
345 557 m 0,10,11
 345 472 345 472 221 377 c 1,12,-1
 180 407 l 1,13,14
 239 476 239 476 239 526 c 0,15,16
 239 557 239 557 213 605 c 1,17,-1
 311 644 l 1,18,19
 345 601 345 601 345 557 c 0,10,11
EndSplineSet
EndChar

StartChar: quotedblbase
Encoding: 8222 8222 223
Width: 375
GlyphClass: 2
Flags: W
LayerCount: 2
Fore
SplineSet
165 67 m 0,0,1
 165 -18 165 -18 41 -113 c 1,2,-1
 0 -83 l 1,3,4
 59 -14 59 -14 59 36 c 0,5,6
 59 67 59 67 33 115 c 1,7,-1
 131 154 l 1,8,9
 165 111 165 111 165 67 c 0,0,1
335 67 m 0,10,11
 335 -18 335 -18 211 -113 c 1,12,-1
 170 -83 l 1,13,14
 229 -14 229 -14 229 36 c 0,15,16
 229 67 229 67 203 115 c 1,17,-1
 301 154 l 1,18,19
 335 111 335 111 335 67 c 0,10,11
EndSplineSet
EndChar

StartChar: bullet
Encoding: 8226 8226 224
Width: 298
GlyphClass: 2
Flags: W
LayerCount: 2
Fore
SplineSet
75.5 340 m 128,-1,1
 111 377 111 377 159 377 c 128,-1,2
 207 377 207 377 232 351 c 128,-1,3
 257 325 257 325 257 273 c 128,-1,4
 257 221 257 221 222 183.5 c 128,-1,5
 187 146 187 146 139.5 146 c 128,-1,6
 92 146 92 146 66 176.5 c 128,-1,7
 40 207 40 207 40 255 c 128,-1,0
 40 303 40 303 75.5 340 c 128,-1,1
EndSplineSet
EndChar

StartChar: guilsinglleft
Encoding: 8249 8249 225
Width: 247
GlyphClass: 2
Flags: W
LayerCount: 2
Fore
SplineSet
127 265 m 1,0,-1
 232 129 l 1,1,-1
 174 81 l 1,2,-1
 7 258 l 1,3,-1
 174 445 l 1,4,-1
 232 397 l 1,5,-1
 127 265 l 1,0,-1
EndSplineSet
EndChar

StartChar: guilsinglright
Encoding: 8250 8250 226
Width: 247
GlyphClass: 2
Flags: W
LayerCount: 2
Fore
SplineSet
120 261 m 1,0,-1
 15 397 l 1,1,-1
 73 445 l 1,2,-1
 240 268 l 1,3,-1
 73 81 l 1,4,-1
 15 129 l 1,5,-1
 120 261 l 1,0,-1
EndSplineSet
EndChar

StartChar: Euro
Encoding: 8364 8364 227
Width: 586
GlyphClass: 2
Flags: W
LayerCount: 2
Fore
SplineSet
280 142.5 m 128,-1,1
 315 108 315 108 363 108 c 128,-1,2
 411 108 411 108 446 135.5 c 128,-1,3
 481 163 481 163 496 209 c 1,4,-1
 576 163 l 1,5,6
 545 81 545 81 482 35 c 128,-1,7
 419 -11 419 -11 332.5 -11 c 128,-1,8
 246 -11 246 -11 178 61 c 128,-1,9
 110 133 110 133 97 243 c 1,10,-1
 13 243 l 1,11,-1
 18 290 l 1,12,-1
 95 290 l 1,13,14
 95 332 95 332 102 367 c 1,15,-1
 13 367 l 1,16,-1
 18 414 l 1,17,-1
 113 414 l 1,18,19
 144 520 144 520 218.5 585 c 128,-1,20
 293 650 293 650 388 650 c 0,21,22
 436 650 436 650 477.5 640 c 128,-1,23
 519 630 519 630 536 620 c 2,24,-1
 554 610 l 1,25,-1
 489 478 l 1,26,27
 465 498 465 498 428.5 513.5 c 128,-1,28
 392 529 392 529 351.5 529 c 128,-1,29
 311 529 311 529 277.5 499 c 128,-1,30
 244 469 244 469 230 414 c 1,31,-1
 456 414 l 1,32,-1
 452 367 l 1,33,-1
 223 367 l 1,34,35
 222 358 222 358 222 331.5 c 128,-1,36
 222 305 222 305 224 290 c 1,37,-1
 456 290 l 1,38,-1
 452 243 l 1,39,-1
 231 243 l 1,40,0
 245 177 245 177 280 142.5 c 128,-1,1
EndSplineSet
EndChar

StartChar: fi
Encoding: 64257 64257 228
Width: 547
GlyphClass: 2
Flags: W
LayerCount: 2
Fore
SplineSet
269 774 m 0,0,1
 311 774 311 774 356 765 c 1,2,-1
 325 651 l 1,3,4
 288 660 288 660 258 660 c 128,-1,5
 228 660 228 660 214.5 642 c 128,-1,6
 201 624 201 624 201 579 c 2,7,-1
 200 485 l 1,8,-1
 366 485 l 1,9,-1
 495 509 l 1,10,-1
 483 260 l 1,11,-1
 494 25 l 1,12,-1
 360 0 l 1,13,-1
 372 243 l 1,14,-1
 364 403 l 1,15,-1
 200 403 l 1,16,-1
 199 260 l 1,17,-1
 210 25 l 1,18,-1
 75 0 l 1,19,-1
 87 243 l 1,20,-1
 83 403 l 1,21,-1
 17 403 l 1,22,-1
 28 485 l 1,23,-1
 81 485 l 1,24,-1
 80 560 l 1,25,26
 80 649 80 649 135 711.5 c 128,-1,27
 190 774 190 774 269 774 c 0,0,1
380 715.5 m 128,-1,29
 406 742 406 742 440 742 c 128,-1,30
 474 742 474 742 492 723.5 c 128,-1,31
 510 705 510 705 510 668 c 128,-1,32
 510 631 510 631 484.5 604.5 c 128,-1,33
 459 578 459 578 425.5 578 c 128,-1,34
 392 578 392 578 373 600 c 128,-1,35
 354 622 354 622 354 655.5 c 128,-1,28
 354 689 354 689 380 715.5 c 128,-1,29
EndSplineSet
EndChar

StartChar: fl
Encoding: 64258 64258 229
Width: 564
GlyphClass: 2
Flags: W
LayerCount: 2
Fore
SplineSet
367 646 m 1,0,1
 290 660 290 660 259 660 c 128,-1,2
 228 660 228 660 214.5 642.5 c 128,-1,3
 201 625 201 625 201 579 c 2,4,-1
 200 484 l 1,5,-1
 308 484 l 1,6,-1
 297 402 l 1,7,-1
 200 402 l 1,8,-1
 199 260 l 1,9,-1
 210 25 l 1,10,-1
 75 0 l 1,11,-1
 87 243 l 1,12,-1
 83 402 l 1,13,-1
 17 402 l 1,14,-1
 28 484 l 1,15,-1
 81 484 l 1,16,-1
 80 560 l 1,17,18
 80 650 80 650 135 712 c 128,-1,19
 190 774 190 774 273 774 c 0,20,21
 323 774 323 774 410 757 c 1,22,-1
 502 774 l 1,23,-1
 489 260 l 1,24,-1
 500 25 l 1,25,-1
 365 0 l 1,26,-1
 377 243 l 1,27,-1
 367 646 l 1,0,1
EndSplineSet
EndChar

StartChar: foundryicon
Encoding: 65539 -1 230
Width: 783
GlyphClass: 2
Flags: W
LayerCount: 2
Fore
SplineSet
265 342 m 2,0,-1
 265 458 l 1,1,-1
 191 458 l 1,2,-1
 191 114 l 1,3,-1
 265 114 l 1,4,-1
 265 294 l 2,5,6
 265 306 265 306 289 306 c 0,7,8
 332 306 332 306 332 250 c 2,9,-1
 332 114 l 1,10,-1
 406 114 l 1,11,-1
 406 292 l 2,12,13
 406 324 406 324 384 344.5 c 128,-1,14
 362 365 362 365 328 365 c 1,15,16
 273 333 273 333 269 333 c 128,-1,17
 265 333 265 333 265 342 c 2,0,-1
435 323 m 1,18,-1
 461 323 l 2,19,20
 471 323 471 323 471 313 c 2,21,-1
 471 181 l 2,22,23
 471 149 471 149 493 128.5 c 128,-1,24
 515 108 515 108 549 108 c 1,25,-1
 612 145 l 1,26,-1
 612 170 l 1,27,28
 600 166 600 166 586 166 c 0,29,30
 545 166 545 166 545 223 c 2,31,-1
 545 313 l 2,32,33
 545 323 545 323 555 323 c 2,34,-1
 613 323 l 1,35,-1
 613 359 l 1,36,-1
 555 359 l 2,37,38
 545 359 545 359 545 369 c 2,39,-1
 545 397 l 1,40,-1
 524 397 l 1,41,-1
 435 341 l 1,42,-1
 435 323 l 1,18,-1
180 -38 m 2,43,44
 100 -38 100 -38 100 42 c 2,45,-1
 100 465 l 2,46,47
 100 545 100 545 180 545 c 2,48,-1
 603 545 l 2,49,50
 683 545 683 545 683 465 c 2,51,-1
 683 42 l 2,52,53
 683 -38 683 -38 603 -38 c 2,54,-1
 180 -38 l 2,43,44
EndSplineSet
EndChar
